<?xml version="1.0" standalone="no"?>
<!DOCTYPE svg PUBLIC "-//W3C//DTD SVG 1.1//EN" "http://www.w3.org/Graphics/SVG/1.1/DTD/svg11.dtd" >
<svg xmlns="http://www.w3.org/2000/svg" xmlns:xlink="http://www.w3.org/1999/xlink" version="1.1">
<metadata>
Created by FontForge 20161003 at Fri Feb 10 07:57:57 2017
 By www-data
Copyright 2011 The Montserrat Project Authors (julieta.ulanovsky@gmail.com)
</metadata>
<defs>
<font id="MontserratBlack" horiz-adv-x="0" >
  <font-face 
    font-family="MontserratBlack"
    font-weight="900"
    font-stretch="normal"
    units-per-em="1000"
    panose-1="0 0 10 0 0 0 0 0 0 0"
    ascent="800"
    descent="-200"
    x-height="547"
    cap-height="701"
    bbox="-530 -487 1563 1177"
    underline-thickness="50"
    underline-position="-150"
    unicode-range="U+000D-FB02"
  />
<missing-glyph horiz-adv-x="587" 
d="M40 0v700h507v-700h-507zM120 70h347v560h-347v-560z" />
    <glyph glyph-name="fi" unicode="fi" horiz-adv-x="761" 
d="M332.5 565.5q-13.5 -12.5 -13.5 -33.5v-15h106v-142h-106v-375h-224v375h-75v142h75v49q0 85 61 135.5t163 50.5q67 0 130 -19l-22 -166q-40 11 -59 11q-22 0 -35.5 -12.5zM481 547h225v-547h-225v547zM673 785q32 -32 32 -82t-32 -82t-82 -32t-82 32t-32 82t32 82t82 32
t82 -32z" />
    <glyph glyph-name="fl" unicode="fl" horiz-adv-x="801" 
d="M332.5 565.5q-13.5 -12.5 -13.5 -33.5v-15h106v-142h-106v-375h-224v375h-75v142h75v49q0 85 61 135.5t163 50.5q67 0 130 -19l-22 -166q-40 11 -59 11q-22 0 -35.5 -12.5zM516 742h225v-742h-225v742z" />
    <glyph glyph-name=".notdef" horiz-adv-x="587" 
d="M40 0v700h507v-700h-507zM120 70h347v560h-347v-560z" />
    <glyph glyph-name=".null" 
 />
    <glyph glyph-name="nonmarkingreturn" unicode="&#xd;" horiz-adv-x="200" 
 />
    <glyph glyph-name="NULL" 
 />
    <glyph glyph-name="NULL" 
 />
    <glyph glyph-name="space" unicode=" " horiz-adv-x="200" 
 />
    <glyph glyph-name="exclam" unicode="!" horiz-adv-x="294" 
d="M40 701h214v-184l-40 -259h-134l-40 259v184zM216.5 168.5q28.5 -28.5 28.5 -73.5q0 -46 -28.5 -74.5t-74.5 -28.5q-45 0 -73.5 28.5t-28.5 74.5q0 45 28.5 73.5t73.5 28.5q46 0 74.5 -28.5z" />
    <glyph glyph-name="quotedbl" unicode="&#x22;" horiz-adv-x="509" 
d="M60 701h168v-302h-168v302zM281 701h168v-302h-168v302z" />
    <glyph glyph-name="numbersign" unicode="#" horiz-adv-x="745" 
d="M723 401h-131l-14 -110h130l-19 -153h-130l-17 -138h-160l17 138h-105l-17 -138h-160l17 138h-130l19 153h130l14 110h-129l18 153h130l18 147h160l-18 -147h105l18 147h160l-18 -147h130zM418 291l14 110h-105l-14 -110h105z" />
    <glyph glyph-name="dollar" unicode="$" horiz-adv-x="664" 
d="M318.5 473q27.5 -13 87.5 -29q75 -21 124.5 -42t86.5 -66.5t37 -119.5q0 -96 -62 -152.5t-163 -71.5v-157h-166v160q-71 12 -137.5 39.5t-117.5 66.5l86 175q53 -46 133 -78.5t134 -32.5q26 0 41 9.5t15 29.5q0 24 -28.5 37.5t-89.5 28.5q-74 19 -123.5 39.5t-85.5 63.5
t-36 115q0 87 55.5 145.5t153.5 77.5v153h166v-150q64 -8 124 -29t106 -50l-84 -177q-57 33 -127 58t-114 25q-43 0 -43 -31q0 -24 27.5 -37z" />
    <glyph glyph-name="percent" unicode="%" horiz-adv-x="1016" 
d="M365.5 647q55.5 -58 55.5 -156t-55.5 -157t-148.5 -59t-149 59t-56 157q0 97 56 155.5t149 58.5t148.5 -58zM170.5 561q-17.5 -26 -17.5 -70t17.5 -70.5t46.5 -26.5t46.5 26.5t17.5 70.5t-17.5 70t-46.5 26t-46.5 -26zM677 701h149l-487 -701h-149zM948.5 367
q55.5 -58 55.5 -156t-55.5 -157t-148.5 -59t-149 59t-56 157q0 97 56 155.5t149 58.5t148.5 -58zM753.5 281q-17.5 -26 -17.5 -70t17.5 -70.5t46.5 -26.5t46.5 26.5t17.5 70.5t-17.5 70t-46.5 26t-46.5 -26z" />
    <glyph glyph-name="ampersand" unicode="&#x26;" horiz-adv-x="706" 
d="M586 -40l-91 87q-86 -57 -187 -57q-73 0 -131 27t-91 74.5t-33 108.5q0 62 34 104.5t94 77.5q-28 42 -39.5 77t-11.5 73q0 83 58 131t158 48q64 0 114 -21.5t78.5 -59.5t28.5 -86q0 -67 -42.5 -110.5t-116.5 -81.5q31 -34 75 -78q23 45 35 98l141 -101q-20 -60 -56 -113
l50 -46l46 -43zM327 457q31 19 48 39.5t17 45.5q0 20 -12 32.5t-32 12.5q-21 0 -32.5 -15t-11.5 -39q0 -37 23 -76zM379 160q-49 49 -111 115q-32 -27 -32 -58q0 -33 22.5 -52.5t58.5 -19.5q32 0 62 15z" />
    <glyph glyph-name="quotesingle" unicode="'" horiz-adv-x="288" 
d="M60 701h168v-302h-168v302z" />
    <glyph glyph-name="parenleft" unicode="(" horiz-adv-x="370" 
d="M291 536.5q-33 -111.5 -33 -227.5t33 -227.5t90 -205.5h-201q-65 90 -99 201.5t-34 231.5t34 231.5t99 201.5h201q-57 -94 -90 -205.5z" />
    <glyph glyph-name="parenright" unicode=")" horiz-adv-x="370" 
d="M190 742q65 -90 99 -201.5t34 -231.5t-34 -231.5t-99 -201.5h-201q57 94 90 205.5t33 227.5t-33 227.5t-90 205.5h201z" />
    <glyph glyph-name="asterisk" unicode="*" horiz-adv-x="406" 
d="M148 718h110l-2 -88l75 45l55 -95l-79 -41l79 -43l-55 -96l-76 47l3 -88h-110l3 89l-76 -46l-55 94l78 43l-78 41l55 97l75 -47z" />
    <glyph glyph-name="plus" unicode="+" horiz-adv-x="520" 
d="M490 399v-140h-160v-160h-140v160h-160v140h160v160h140v-160h160z" />
    <glyph glyph-name="comma" unicode="," horiz-adv-x="265" 
d="M206.5 170q29.5 -27 29.5 -74q0 -39 -27 -80l-97 -146h-104l61 147q-38 28 -38 78q0 45 29 73.5t74 28.5q43 0 72.5 -27z" />
    <glyph glyph-name="hyphen" unicode="-" horiz-adv-x="380" 
d="M50 379h280v-140h-280v140z" />
    <glyph glyph-name="period" unicode="." horiz-adv-x="265" 
d="M206.5 168.5q28.5 -28.5 28.5 -73.5q0 -46 -28.5 -74.5t-74.5 -28.5q-45 0 -73.5 28.5t-28.5 74.5q0 45 28.5 73.5t73.5 28.5q46 0 74.5 -28.5z" />
    <glyph glyph-name="slash" unicode="/" horiz-adv-x="373" 
d="M279 806h188l-329 -910h-188z" />
    <glyph glyph-name="zero" unicode="0" horiz-adv-x="700" 
d="M589 615.5q83 -92.5 83 -264.5t-83 -265t-238 -93q-156 0 -239 92.5t-83 265.5t83 265t239 92q155 0 238 -92.5zM301 522q-18 -18 -26 -58.5t-8 -112.5t8 -113t26 -59t50 -18q31 0 49 18t26 59t8 113t-8 112.5t-25.5 58.5t-49.5 18t-50 -18z" />
    <glyph glyph-name="one" unicode="1" horiz-adv-x="426" 
d="M-30 701h354v-701h-232v518h-122v183z" />
    <glyph glyph-name="two" unicode="2" horiz-adv-x="620" 
d="M588 178v-178h-550l-1 146l245 253q23 24 38 48t15 41q0 18 -12.5 27.5t-35.5 9.5q-39 0 -89 -24t-102 -66l-86 167q160 109 313 109q72 0 130 -24t91.5 -67t33.5 -98q0 -57 -36 -114.5t-102 -122.5l-108 -107h256z" />
    <glyph glyph-name="three" unicode="3" horiz-adv-x="614" 
d="M547.5 351.5q45.5 -51.5 45.5 -128.5q0 -68 -36 -121t-102 -82.5t-154 -29.5q-81 0 -160 25.5t-133 67.5l82 156q93 -78 192 -78q84 0 84 62q0 30 -21 46.5t-63 16.5h-131v120l136 129h-241v167h513v-131l-165 -145l33 -7q75 -16 120.5 -67.5z" />
    <glyph glyph-name="four" unicode="4" horiz-adv-x="615" 
d="M580 301v-166h-80v-135h-211v135h-299v151l170 415h218l-159 -400h70v134h211v-134h80z" />
    <glyph glyph-name="five" unicode="5" horiz-adv-x="631" 
d="M470.5 423q63.5 -26 98 -74t34.5 -111q0 -74 -36.5 -130.5t-104 -87t-157.5 -30.5q-74 0 -153 25t-138 67l83 159q97 -81 181 -81q37 0 56 15.5t19 45.5q0 59 -76 59h-198v421h491v-178h-279v-74h32q84 0 147.5 -26z" />
    <glyph glyph-name="six" unicode="6" horiz-adv-x="627" 
d="M347 542q-66 0 -100 -33.5t-34 -98.5q52 57 143 57q66 0 116 -29t77.5 -81.5t27.5 -120.5q0 -74 -33 -129.5t-93.5 -86t-139.5 -30.5q-95 0 -164.5 43t-106.5 122.5t-37 186.5q0 111 41 194.5t116 129t174 45.5q64 0 127 -16.5t107 -44.5l-84 -154q-57 46 -137 46z
M251 288.5q-18 -18.5 -18 -52.5t17.5 -52t52.5 -18q69 0 69 71q0 34 -17 52t-51 18q-35 0 -53 -18.5z" />
    <glyph glyph-name="seven" unicode="7" horiz-adv-x="602" 
d="M16 701h579v-154l-241 -547h-245l231 523h-120v-98h-204v276z" />
    <glyph glyph-name="eight" unicode="8" horiz-adv-x="629" 
d="M426.5 687q58.5 -24 90 -68.5t31.5 -103.5q0 -40 -19 -78t-51 -62q49 -26 78 -74t29 -103q0 -62 -36.5 -109.5t-103 -73t-154.5 -25.5t-154 25.5t-102.5 71.5t-36.5 107q0 56 32.5 105.5t85.5 75.5q-37 27 -59 67t-22 80q0 57 31.5 99.5t89.5 66t134 23.5q78 0 136.5 -24
zM227 503q0 -54 64 -54q65 0 65 54q0 58 -65 58q-64 0 -64 -58zM215 218q0 -31 19.5 -47t56.5 -16q38 0 58 16t20 47q0 32 -19.5 49t-57.5 17q-77 0 -77 -66z" />
    <glyph glyph-name="nine" unicode="9" horiz-adv-x="626" 
d="M234 160q67 0 101 33.5t34 98.5q-53 -58 -143 -58q-66 0 -115.5 29t-77 82t-27.5 121q0 74 33 129.5t93.5 85.5t139.5 30q95 0 164 -43t106 -122t37 -186q0 -111 -41 -195t-116 -129.5t-175 -45.5q-62 0 -125 17t-108 45l84 154q55 -46 136 -46zM211 465q0 -70 67 -70
q35 0 53 18.5t18 52.5t-17.5 52t-52.5 18q-68 0 -68 -71z" />
    <glyph glyph-name="colon" unicode=":" horiz-adv-x="265" 
d="M206.5 465.5q28.5 -28.5 28.5 -73.5q0 -46 -28.5 -74.5t-74.5 -28.5q-45 0 -73.5 28.5t-28.5 74.5q0 45 28.5 73.5t73.5 28.5q46 0 74.5 -28.5zM206.5 168.5q28.5 -28.5 28.5 -73.5q0 -46 -28.5 -74.5t-74.5 -28.5q-45 0 -73.5 28.5t-28.5 74.5q0 45 28.5 73.5t73.5 28.5
q46 0 74.5 -28.5z" />
    <glyph glyph-name="semicolon" unicode=";" horiz-adv-x="265" 
d="M206.5 465.5q28.5 -28.5 28.5 -73.5q0 -46 -28.5 -74.5t-74.5 -28.5q-45 0 -73.5 28.5t-28.5 74.5q0 45 28.5 73.5t73.5 28.5q46 0 74.5 -28.5zM206.5 170q29.5 -27 29.5 -74q0 -39 -27 -80l-97 -146h-104l61 147q-38 28 -38 78q0 45 29 73.5t74 28.5q43 0 72.5 -27z" />
    <glyph glyph-name="less" unicode="&#x3c;" horiz-adv-x="520" 
d="M490 597v-156l-316 -118l316 -118v-156l-460 185v178z" />
    <glyph glyph-name="equal" unicode="=" horiz-adv-x="520" 
d="M30 509h460v-140h-460v140zM30 289h460v-140h-460v140z" />
    <glyph glyph-name="greater" unicode="&#x3e;" horiz-adv-x="520" 
d="M30 59v156l316 118l-316 118v156l460 -185v-178z" />
    <glyph glyph-name="question" unicode="?" horiz-adv-x="498" 
d="M86 643.5q65 67.5 182 67.5q109 0 169.5 -48t60.5 -134q0 -52 -24.5 -87.5t-70.5 -76.5q-38 -35 -56 -59t-18 -56h-167q0 40 11.5 70t26.5 49t40 44q25 24 36.5 40.5t11.5 38.5t-9.5 32t-31.5 10q-28 0 -41 -19t-13 -60h-172q0 121 65 188.5zM315.5 168.5
q28.5 -28.5 28.5 -73.5q0 -46 -28.5 -74.5t-74.5 -28.5q-45 0 -73.5 28.5t-28.5 74.5q0 45 28.5 73.5t73.5 28.5q46 0 74.5 -28.5z" />
    <glyph glyph-name="at" unicode="@" horiz-adv-x="865" 
d="M648.5 132q7.5 -10 22.5 -10q18 0 34.5 19.5t27 54t10.5 77.5q0 92 -36 166t-104.5 117t-163.5 43q-86 0 -158.5 -44.5t-115 -120.5t-42.5 -166q0 -88 40 -160t109.5 -113t154.5 -41q45 0 94.5 16t89.5 47l51 -86q-42 -34 -108.5 -55t-126.5 -21q-116 0 -210 54t-148 148
t-54 211q0 118 57 217t154 156t213 57t209.5 -55t147.5 -151t54 -216q0 -72 -24.5 -127.5t-68.5 -85.5t-99 -30q-97 0 -118 74l-2 7q-26 -37 -60.5 -54t-71.5 -17q-53 0 -100.5 28.5t-77 81t-29.5 118.5q0 63 23.5 116t67.5 84.5t101 31.5q32 0 57.5 -12t41.5 -25.5
t16 -15.5v41h135v-325q0 -24 7.5 -34zM367 349q-20 -30 -20 -73q0 -46 20 -79t53 -33q36 0 56.5 32t20.5 79q0 45 -21 74.5t-57 29.5q-32 0 -52 -30z" />
    <glyph glyph-name="A" unicode="A" horiz-adv-x="799" 
d="M562 0l-35 99h-263l-36 -99h-238l296 701h238l285 -701h-247zM324 265h146l-72 205z" />
    <glyph glyph-name="B" unicode="B" horiz-adv-x="724" 
d="M552 679q63 -22 97 -62t34 -93q0 -52 -32 -93t-86 -57q63 -14 101 -62.5t38 -114.5q0 -59 -35 -104t-98.5 -69t-148.5 -24h-372v701h355q84 0 147 -22zM430.5 445q14.5 14 14.5 37q0 22 -14.5 35.5t-38.5 13.5h-111v-100h111q24 0 38.5 14zM443.5 185.5
q19.5 15.5 19.5 40.5q0 23 -19.5 37t-51.5 14h-111v-107h111q32 0 51.5 15.5z" />
    <glyph glyph-name="C" unicode="C" horiz-adv-x="688" 
d="M482.5 496.5q-43.5 26.5 -84.5 26.5t-74.5 -21.5t-52 -59.5t-18.5 -86t18.5 -86.5t52 -60.5t74.5 -22q38 0 81.5 22.5t77.5 59.5l134 -143q-59 -65 -141.5 -103.5t-163.5 -38.5q-106 0 -190.5 47.5t-132.5 132t-48 189.5q0 104 49 186.5t135.5 129.5t195.5 47
q80 0 161 -35.5t135 -94.5l-134 -159q-31 43 -74.5 69.5z" />
    <glyph glyph-name="D" unicode="D" horiz-adv-x="759" 
d="M564 658q86 -43 133 -122.5t47 -184.5q0 -106 -48 -185t-136.5 -122.5t-205.5 -43.5h-304v701h313q115 0 201 -43zM469.5 226q37.5 46 37.5 123q0 78 -40.5 125t-108.5 47h-76v-341h87q63 0 100.5 46z" />
    <glyph glyph-name="E" unicode="E" horiz-adv-x="690" 
d="M50 701h593v-176h-361v-86h328v-176h-328v-87h370v-176h-602v701z" />
    <glyph glyph-name="F" unicode="F" horiz-adv-x="631" 
d="M50 701h564v-176h-332v-121h311v-176h-311v-228h-232v701z" />
    <glyph glyph-name="G" unicode="G" horiz-adv-x="738" 
d="M503 369h199v-293q-59 -40 -145.5 -66t-161.5 -26q-109 0 -195.5 47.5t-135.5 131t-49 188.5q0 104 51 187.5t141 130.5t203 47q82 0 164.5 -30t138.5 -80l-131 -159q-35 35 -82.5 55.5t-90.5 20.5q-44 0 -80 -22.5t-56 -61.5t-20 -88q0 -50 20.5 -89.5t56.5 -62
t81 -22.5q38 0 92 24v168z" />
    <glyph glyph-name="H" unicode="H" horiz-adv-x="781" 
d="M50 701h232v-272h217v272h232v-701h-232v253h-217v-253h-232v701z" />
    <glyph glyph-name="I" unicode="I" horiz-adv-x="332" 
d="M50 701h232v-701h-232v701z" />
    <glyph glyph-name="J" unicode="J" horiz-adv-x="569" 
d="M458 55q-71 -65 -193 -65q-162 0 -273 122l105 150q39 -39 78.5 -59t67.5 -20q25 0 39 15t14 44v276h-238v183h471v-464q0 -117 -71 -182z" />
    <glyph glyph-name="K" unicode="K" horiz-adv-x="773" 
d="M773 0h-277l-148 244l-66 -74v-170h-232v701h232v-256l209 256h267l-251 -280z" />
    <glyph glyph-name="L" unicode="L" horiz-adv-x="584" 
d="M50 701h232v-508h292v-193h-524v701z" />
    <glyph glyph-name="M" unicode="M" horiz-adv-x="939" 
d="M50 701h246l174 -366l173 366h246v-701h-203v384l-141 -316h-151l-141 316v-384h-203v701z" />
    <glyph glyph-name="N" unicode="N" horiz-adv-x="781" 
d="M521 701h210v-701h-194l-276 358v-358h-211v701h194l277 -360v360z" />
    <glyph glyph-name="O" unicode="O" horiz-adv-x="800" 
d="M598 669q88 -47 137.5 -130t49.5 -187q0 -105 -49.5 -189t-137.5 -131.5t-198 -47.5t-198 47.5t-137.5 131.5t-49.5 189t49.5 188t137.5 129.5t198 46.5t198 -47zM328.5 500.5q-34.5 -22.5 -55 -61.5t-20.5 -88t20.5 -88.5t55 -62.5t74.5 -23t73 22.5t52 62.5t19 89
t-19 88.5t-52 61.5t-73 22t-74.5 -22.5z" />
    <glyph glyph-name="P" unicode="P" horiz-adv-x="686" 
d="M591 635.5q75 -65.5 75 -185.5q0 -127 -75 -197.5t-212 -70.5h-97v-182h-232v701h329q137 0 212 -65.5zM425.5 380.5q20.5 22.5 20.5 62.5q0 39 -20.5 60.5t-58.5 21.5h-85v-167h85q38 0 58.5 22.5z" />
    <glyph glyph-name="Q" unicode="Q" horiz-adv-x="801" 
d="M815 -99q-40 -35 -99.5 -56.5t-114.5 -21.5q-77 0 -137 43.5t-89 118.5q-104 5 -186 54t-128 130.5t-46 182.5q0 105 49.5 188t137.5 129.5t198 46.5t198 -47t137.5 -130t49.5 -187q0 -113 -57.5 -201.5t-156.5 -131.5q24 -29 55 -29q21 0 51.5 13t60.5 35zM273.5 262.5
q20.5 -39.5 55 -62.5t74.5 -23t73 22.5t52 62.5t19 89t-19 88.5t-52 61.5t-73 22t-74.5 -22.5t-55 -61.5t-20.5 -88t20.5 -88.5z" />
    <glyph glyph-name="R" unicode="R" horiz-adv-x="725" 
d="M453 0l-84 182h-87v-182h-232v701h339q143 0 221 -65.5t78 -185.5q0 -76 -28.5 -132.5t-82.5 -89.5l138 -228h-262zM282 358h107q38 0 58.5 22.5t20.5 62.5q0 39 -20.5 60.5t-58.5 21.5h-107v-167z" />
    <glyph glyph-name="S" unicode="S" horiz-adv-x="664" 
d="M448 516q-70 25 -114 25q-43 0 -43 -31q0 -24 27.5 -37t87.5 -29q75 -21 124.5 -42t86.5 -66.5t37 -119.5q0 -76 -39.5 -127.5t-106.5 -76.5t-149 -25q-93 0 -187.5 30.5t-163.5 83.5l86 175q53 -46 133 -78.5t134 -32.5q26 0 41 9.5t15 29.5q0 24 -28.5 37.5t-89.5 28.5
q-74 19 -123.5 39.5t-85.5 63.5t-36 115q0 70 37 122.5t105 80.5t158 28q82 0 163.5 -23t141.5 -61l-84 -177q-57 33 -127 58z" />
    <glyph glyph-name="T" unicode="T" horiz-adv-x="641" 
d="M5 701h631v-183h-200v-518h-232v518h-199v183z" />
    <glyph glyph-name="U" unicode="U" horiz-adv-x="741" 
d="M302 209q30 -32 72 -32q41 0 68 31.5t27 82.5v410h232v-410q0 -92 -40.5 -161.5t-114.5 -107.5t-173 -38t-174.5 38t-117 107.5t-41.5 161.5v410h232v-410q0 -50 30 -82z" />
    <glyph glyph-name="V" unicode="V" horiz-adv-x="764" 
d="M-5 701h248l145 -460l144 460h237l-268 -701h-240z" />
    <glyph glyph-name="W" unicode="W" horiz-adv-x="1151" 
d="M919 701h237l-237 -701h-238l-105 419l-108 -419h-238l-235 701h248l113 -460l112 460h226l114 -460z" />
    <glyph glyph-name="X" unicode="X" horiz-adv-x="773" 
d="M10 701h270l102 -165l102 165h273l-227 -334l248 -367h-278l-118 181l-116 -181h-271l246 356z" />
    <glyph glyph-name="Y" unicode="Y" horiz-adv-x="719" 
d="M729 701l-251 -483v-218h-232v213l-256 488h231l141 -270l136 270h231z" />
    <glyph glyph-name="Z" unicode="Z" horiz-adv-x="683" 
d="M32 701h624v-145l-327 -378h334v-178h-643v145l327 378h-315v178z" />
    <glyph glyph-name="bracketleft" unicode="[" horiz-adv-x="381" 
d="M54 742h317v-166h-117v-534h117v-166h-317v866z" />
    <glyph glyph-name="backslash" unicode="\" horiz-adv-x="373" 
d="M94 806l329 -910h-188l-329 910h188z" />
    <glyph glyph-name="bracketright" unicode="]" horiz-adv-x="381" 
d="M327 742v-866h-317v166h117v534h-117v166h317z" />
    <glyph glyph-name="asciicircum" unicode="^" horiz-adv-x="608" 
d="M578 143h-156l-118 261l-118 -261h-156l185 380h178z" />
    <glyph glyph-name="underscore" unicode="_" horiz-adv-x="599" 
d="M0 -84h599v-120h-599v120z" />
    <glyph glyph-name="grave" unicode="`" horiz-adv-x="387" 
d="M202 780l111 -179l-143 -10l-138 129z" />
    <glyph glyph-name="a" unicode="a" horiz-adv-x="613" 
d="M506.5 503.5q66.5 -53.5 66.5 -149.5v-354h-221v59q-50 -69 -154 -69q-86 0 -134.5 46.5t-48.5 125.5q0 81 54 123t158 44h125q-1 29 -22.5 44.5t-62.5 15.5q-32 0 -76.5 -9t-89.5 -26l-50 150q70 26 139.5 39.5t130.5 13.5q119 0 185.5 -53.5zM318.5 144
q20.5 11 33.5 31v50h-78q-48 0 -48 -44q0 -23 13 -35.5t37 -12.5q22 0 42.5 11z" />
    <glyph glyph-name="b" unicode="b" horiz-adv-x="690" 
d="M556 520q57 -35 88 -99.5t31 -150.5q0 -84 -30 -147t-85.5 -97t-129.5 -34q-44 0 -81 16.5t-64 47.5v-56h-225v742h225v-250q54 63 139 63q75 0 132 -35zM425.5 199q22.5 29 22.5 77t-22.5 77t-59.5 29t-59 -29t-22 -77t22 -77t59 -29t59.5 29z" />
    <glyph glyph-name="c" unicode="c" horiz-adv-x="561" 
d="M314 373q-33 0 -52.5 -27.5t-19.5 -73.5q0 -47 19.5 -74.5t52.5 -27.5q50 0 67 59l182 -84q-30 -73 -98.5 -113t-162.5 -40q-86 0 -151 34.5t-100.5 97.5t-35.5 147q0 85 35.5 149.5t101 99.5t152.5 35q89 0 157 -41.5t102 -116.5l-179 -76q-22 52 -70 52z" />
    <glyph glyph-name="d" unicode="d" horiz-adv-x="690" 
d="M630 742v-742h-225v55q-54 -63 -139 -63q-75 0 -132 35t-88 99.5t-31 150.5q0 84 30 147t85.5 97t129.5 34q44 0 81 -16.5t64 -47.5v251h225zM383 194q22 29 22 77t-22 77t-59 29t-59.5 -29t-22.5 -77t22.5 -77t59.5 -29t59 29z" />
    <glyph glyph-name="e" unicode="e" horiz-adv-x="614" 
d="M463 518q66 -37 101 -105.5t35 -160.5q0 -19 -1 -29h-356q11 -32 34.5 -48.5t56.5 -16.5q59 0 111 49l117 -115q-44 -49 -106.5 -74.5t-141.5 -25.5q-92 0 -159.5 34.5t-103 97.5t-35.5 147q0 86 36 150t102.5 99t153.5 35q90 0 156 -37zM356.5 383q-18.5 22 -47.5 22
q-28 0 -46.5 -21t-25.5 -57h136q2 34 -16.5 56z" />
    <glyph glyph-name="f" unicode="f" horiz-adv-x="426" 
d="M332.5 565.5q-13.5 -12.5 -13.5 -33.5v-15h106v-142h-106v-375h-224v375h-75v142h75v49q0 85 61 135.5t163 50.5q67 0 130 -19l-22 -166q-40 11 -59 11q-22 0 -35.5 -12.5z" />
    <glyph glyph-name="g" unicode="g" horiz-adv-x="654" 
d="M601 547v-502q0 -75 -38.5 -131.5t-108 -87t-159.5 -30.5q-75 0 -143.5 20t-114.5 51l71 151q35 -22 81 -35t86 -13q49 0 75.5 18.5t26.5 50.5v52q-52 -58 -137 -58q-64 0 -115.5 32.5t-80.5 92.5t-29 139q0 77 28 135.5t78.5 90.5t114.5 32q88 0 141 -59v51h224z
M356 220q21 27 21 71q0 45 -20.5 72t-55.5 27t-55.5 -27t-20.5 -72q0 -44 21 -71t55 -27t55 27z" />
    <glyph glyph-name="h" unicode="h" horiz-adv-x="687" 
d="M552.5 531q44.5 -26 69.5 -73t25 -109v-349h-225v284q0 34 -18 54.5t-47 20.5q-33 0 -52.5 -24t-19.5 -64v-271h-225v742h225v-273q28 43 70.5 65.5t95.5 22.5q57 0 101.5 -26z" />
    <glyph glyph-name="i" unicode="i" horiz-adv-x="335" 
d="M55 547h225v-547h-225v547zM247 785q32 -32 32 -82t-32 -82t-82 -32t-82 32t-32 82t32 82t82 32t82 -32z" />
    <glyph glyph-name="j" unicode="j" horiz-adv-x="340" 
d="M16 -29q21 -1 32.5 11t11.5 35v530h225v-564q0 -85 -58 -135.5t-156 -50.5q-76 0 -136 23l43 157q24 -6 38 -6zM250 785q32 -32 32 -82t-32 -82t-82 -32t-82 32t-32 82t32 82t82 32t82 -32z" />
    <glyph glyph-name="k" unicode="k" horiz-adv-x="662" 
d="M666 547l-199 -211l196 -336h-267l-84 172l-27 -28v-144h-225v742h225v-337l127 142h254z" />
    <glyph glyph-name="l" unicode="l" horiz-adv-x="345" 
d="M60 742h225v-742h-225v742z" />
    <glyph glyph-name="m" unicode="m" horiz-adv-x="1032" 
d="M899 531q44 -26 68.5 -73t24.5 -109v-349h-225v284q0 34 -17 54.5t-45 20.5q-31 0 -50 -24t-19 -64v-271h-225v284q0 34 -17 54.5t-45 20.5q-31 0 -50 -24t-19 -64v-271h-225v547h225v-77q28 42 69.5 64.5t93.5 22.5q62 0 108.5 -31t68.5 -86q27 56 72.5 86.5t106.5 30.5
q56 0 100 -26z" />
    <glyph glyph-name="n" unicode="n" horiz-adv-x="682" 
d="M547.5 531q44.5 -26 69.5 -73t25 -109v-349h-225v284q0 34 -18 54.5t-47 20.5q-33 0 -52.5 -24t-19.5 -64v-271h-225v547h225v-78q28 43 70.5 65.5t95.5 22.5q57 0 101.5 -26z" />
    <glyph glyph-name="o" unicode="o" horiz-adv-x="648" 
d="M487 520.5q70 -34.5 108 -98t38 -148.5t-38 -148.5t-108 -98.5t-163 -35t-163 35t-108 98.5t-38 148.5t38 148.5t108 98t163 34.5t163 -34.5zM264.5 348q-22.5 -29 -22.5 -77t22.5 -77t59.5 -29t59.5 29t22.5 77t-22.5 77t-59.5 29t-59.5 -29z" />
    <glyph glyph-name="p" unicode="p" horiz-adv-x="690" 
d="M556 520q57 -35 88 -99.5t31 -150.5q0 -84 -30 -147t-85.5 -97t-129.5 -34q-44 0 -81 16.5t-64 47.5v-250h-225v741h225v-55q54 63 139 63q75 0 132 -35zM425.5 199q22.5 29 22.5 77t-22.5 77t-59.5 29t-59 -29t-22 -77t22 -77t59 -29t59.5 29z" />
    <glyph glyph-name="q" unicode="q" horiz-adv-x="690" 
d="M630 547v-741h-225v249q-54 -63 -139 -63q-75 0 -132 35t-88 99.5t-31 150.5q0 84 30 147t85.5 97t129.5 34q44 0 81 -16.5t64 -47.5v56h225zM383 194q22 29 22 77t-22 77t-59 29t-59.5 -29t-22.5 -77t22.5 -77t59.5 -29t59 29z" />
    <glyph glyph-name="r" unicode="r" horiz-adv-x="457" 
d="M351.5 533.5q42.5 23.5 95.5 23.5v-203q-22 3 -43 3q-58 0 -91 -25.5t-33 -70.5v-261h-225v547h225v-80q29 43 71.5 66.5z" />
    <glyph glyph-name="s" unicode="s" horiz-adv-x="552" 
d="M274 409q-14 0 -22.5 -5t-8.5 -13q0 -12 18 -20t60 -19q59 -16 101 -33t73.5 -52t31.5 -91t-30.5 -98t-86.5 -65t-131 -23q-153 0 -267 78l68 140q110 -68 202 -68q16 0 25 4.5t9 11.5q0 11 -17.5 18.5t-56.5 17.5q-59 15 -100 32t-72.5 52t-31.5 92t30 99.5t84.5 66
t126.5 23.5q131 0 254 -69l-74 -139q-122 60 -185 60z" />
    <glyph glyph-name="t" unicode="t" horiz-adv-x="460" 
d="M445 24q-27 -16 -70.5 -25t-88.5 -9q-92 0 -147.5 50.5t-55.5 135.5v199h-75v142h75v153h224v-153h128v-142h-128v-165q0 -22 12 -34.5t32 -11.5q19 0 56 14z" />
    <glyph glyph-name="u" unicode="u" horiz-adv-x="672" 
d="M617 547v-547h-225v76q-27 -42 -68 -64t-93 -22q-56 0 -99 26t-67.5 73t-24.5 109v349h225v-284q0 -34 16.5 -54.5t43.5 -20.5q31 0 49 24t18 64v271h225z" />
    <glyph glyph-name="v" unicode="v" horiz-adv-x="612" 
d="M-10 547h231l87 -343l89 343h225l-202 -547h-230z" />
    <glyph glyph-name="w" unicode="w" horiz-adv-x="977" 
d="M-10 547h228l87 -326l84 326h208l87 -326l86 326h217l-200 -547h-220l-78 288l-81 -288h-220z" />
    <glyph glyph-name="x" unicode="x" horiz-adv-x="654" 
d="M6 547h258l63 -128l74 128h246l-170 -266l182 -281h-259l-73 142l-85 -142h-247l181 280z" />
    <glyph glyph-name="y" unicode="y" horiz-adv-x="624" 
d="M316 -163.5q-59 -40.5 -147 -40.5q-54 0 -99.5 15.5t-89.5 48.5l94 148q35 -32 73 -32t54 28l8 13l-227 530h231l108 -312l89 312h224l-225 -585q-34 -85 -93 -125.5z" />
    <glyph glyph-name="z" unicode="z" horiz-adv-x="568" 
d="M35 547h502v-131l-228 -248h238v-168h-522v131l228 248h-218v168z" />
    <glyph glyph-name="braceleft" unicode="{" horiz-adv-x="377" 
d="M263.5 352.5q-21.5 -30.5 -74.5 -43.5q53 -13 74.5 -43.5t21.5 -90.5v-77q0 -34 16 -46.5t65 -12.5v-165h-88q-74 0 -115.5 14.5t-59.5 47.5t-18 91v163q0 19 -7 26.5t-24 7.5h-45v170h45q17 0 24 7.5t7 26.5v163q0 58 18 91t59.5 47.5t115.5 14.5h88v-165
q-49 0 -65 -12.5t-16 -46.5v-77q0 -60 -21.5 -90.5z" />
    <glyph glyph-name="bar" unicode="|" horiz-adv-x="326" 
d="M80 796h166v-899h-166v899z" />
    <glyph glyph-name="braceright" unicode="}" horiz-adv-x="377" 
d="M368 394v-170h-45q-17 0 -24 -7.5t-7 -26.5v-163q0 -58 -18 -91t-59.5 -47.5t-115.5 -14.5h-88v165q49 0 65 12.5t16 46.5v77q0 60 21.5 90.5t74.5 43.5q-53 13 -74.5 43.5t-21.5 90.5v77q0 34 -16 46.5t-65 12.5v165h88q74 0 115.5 -14.5t59.5 -47.5t18 -91v-163
q0 -19 7 -26.5t24 -7.5h45z" />
    <glyph glyph-name="asciitilde" unicode="~" horiz-adv-x="520" 
d="M442 275q-31 -49 -96 -49q-28 0 -48 8t-43 22t-33 14q-26 0 -26 -41h-149q0 103 31.5 152t96.5 49q28 0 48 -8t43 -22t33 -14q26 0 26 41h148q0 -103 -31 -152z" />
    <glyph glyph-name="uni00A0" unicode="&#xa0;" horiz-adv-x="200" 
 />
    <glyph glyph-name="exclamdown" unicode="&#xa1;" horiz-adv-x="294" 
d="M77.5 377.5q-28.5 28.5 -28.5 73.5q0 46 28.5 74.5t74.5 28.5q45 0 73.5 -28.5t28.5 -74.5q0 -45 -28.5 -73.5t-73.5 -28.5q-46 0 -74.5 28.5zM254 -155h-214v184l40 259h134l40 -259v-184z" />
    <glyph glyph-name="cent" unicode="&#xa2;" horiz-adv-x="600" 
d="M381 229l182 -84q-22 -53 -65 -89t-103 -52v-169h-166v164q-100 20 -157 92.5t-57 179.5q0 109 57 182.5t157 94.5v166h166v-171q57 -17 100 -54.5t68 -91.5l-179 -76q-22 52 -70 52q-33 0 -52.5 -27.5t-19.5 -73.5q0 -47 19.5 -74.5t52.5 -27.5q50 0 67 59z" />
    <glyph glyph-name="sterling" unicode="&#xa3;" horiz-adv-x="576" 
d="M323 173h238v-173h-541v173h70v130h-70v70h70v91q0 118 68.5 182.5t192.5 64.5q64 0 123 -21.5t102 -60.5l-84 -170q-65 59 -116 59q-53 0 -53 -59v-86h159v-70h-159v-130z" />
    <glyph glyph-name="currency" unicode="&#xa4;" horiz-adv-x="693" 
d="M575 214l103 -103l-125 -125l-105 105q-49 -22 -102 -22q-52 0 -102 21l-104 -104l-125 125l102 102q-25 52 -25 110q0 53 22 102l-99 99l125 125l97 -97q52 25 109 25q58 0 110 -25l97 97l125 -125l-99 -99q21 -50 21 -102q0 -57 -25 -109zM402.5 267q23.5 23 23.5 56
t-23.5 56.5t-56.5 23.5t-56 -23.5t-23 -56.5t23 -56t56 -23t56.5 23z" />
    <glyph glyph-name="yen" unicode="&#xa5;" horiz-adv-x="739" 
d="M739 701l-185 -356h115v-70h-151l-24 -45h175v-70h-181v-160h-232v160h-185v70h176l-24 45h-152v70h116l-187 356h231l141 -270l136 270h231z" />
    <glyph glyph-name="brokenbar" unicode="&#xa6;" horiz-adv-x="326" 
d="M80 796h166v-339h-166v339zM80 236h166v-339h-166v339z" />
    <glyph glyph-name="section" unicode="&#xa7;" horiz-adv-x="586" 
d="M305 546q-16 0 -24.5 -4.5t-8.5 -11.5q0 -12 20.5 -21.5t63.5 -22.5q63 -19 105 -38t74 -53.5t32 -86.5q0 -88 -91 -137q25 -21 35.5 -39t10.5 -50q0 -50 -29.5 -89t-84.5 -61t-130 -22q-70 0 -139.5 20t-126.5 58l61 140q55 -33 107 -50.5t93 -17.5q38 0 38 15
q0 11 -19.5 19.5t-59.5 20.5q-62 19 -104 37.5t-74 53t-32 87.5q0 89 91 138q-27 20 -36.5 40t-9.5 48q0 51 28.5 90.5t82 62t125.5 22.5q127 0 254 -69l-67 -139q-124 60 -185 60zM226 308q0 -14 22 -22.5t56 -8.5q26 0 39.5 5.5t13.5 14.5q0 14 -25 23t-58 9
q-48 0 -48 -21z" />
    <glyph glyph-name="dieresis" unicode="&#xa8;" horiz-adv-x="470" 
d="M197.5 757q24.5 -25 24.5 -64q0 -38 -24.5 -63t-63.5 -25t-63.5 25t-24.5 63q0 39 24.5 64t63.5 25t63.5 -25zM399.5 757q24.5 -25 24.5 -64q0 -38 -24.5 -63t-63.5 -25t-63.5 25t-24.5 63q0 39 24.5 64t63.5 25t63.5 -25z" />
    <glyph glyph-name="copyright" unicode="&#xa9;" horiz-adv-x="707" 
d="M524.5 643.5q77.5 -45.5 122.5 -123.5t45 -170q0 -91 -45 -169.5t-123 -125t-172 -46.5q-93 0 -170.5 46t-122 124t-44.5 169t45 169.5t122.5 125t171.5 46.5q93 0 170.5 -45.5zM233 556.5q-55 -32.5 -86.5 -88t-31.5 -120.5t31.5 -119.5t85.5 -87t120 -32.5
q67 0 122 32.5t86.5 88t31.5 120.5t-31.5 119.5t-86 87t-120.5 32.5t-121 -32.5zM400.5 411.5q-19.5 11.5 -37.5 11.5q-29 0 -47.5 -20.5t-18.5 -51.5q0 -32 18.5 -52.5t47.5 -20.5q17 0 36 10t35 26l60 -64q-26 -29 -63 -46t-74 -17q-48 0 -86 21t-59.5 58t-21.5 83
t22 82.5t61 57.5t88 21q36 0 72.5 -16t60.5 -42l-60 -72q-14 20 -33.5 31.5z" />
    <glyph glyph-name="ordfeminine" unicode="&#xaa;" horiz-adv-x="400" 
d="M330.5 762q43.5 -32 42.5 -91v-213h-149v33q-32 -40 -96 -40q-55 0 -86 28.5t-31 76.5q0 49 34.5 75t101.5 27h77q-5 28 -51 28q-42 0 -105 -19l-34 97q96 30 175 30q78 0 121.5 -32zM224 564v27h-45q-25 0 -25 -23q0 -24 27 -24q26 0 43 20z" />
    <glyph glyph-name="guillemotleft" unicode="&#xab;" horiz-adv-x="544" 
d="M107 466h180l-106 -193l106 -195h-180l-124 195zM366 466h180l-106 -193l106 -195h-180l-124 195z" />
    <glyph glyph-name="logicalnot" unicode="&#xac;" horiz-adv-x="595" 
d="M540 449v-320h-160v180h-350v140h510z" />
    <glyph glyph-name="uni00AD" unicode="&#xad;" horiz-adv-x="380" 
d="M50 379h280v-140h-280v140z" />
    <glyph glyph-name="registered" unicode="&#xae;" horiz-adv-x="707" 
d="M524.5 643.5q77.5 -45.5 122.5 -123.5t45 -170q0 -91 -45 -169.5t-123 -125t-172 -46.5q-93 0 -170.5 46t-122 124t-44.5 169t45 169.5t122.5 125t171.5 46.5q93 0 170.5 -45.5zM474 141.5q55 32.5 86.5 88t31.5 120.5t-31.5 119.5t-86 87t-120.5 32.5t-121 -32.5
t-86.5 -88t-31.5 -120.5t31.5 -119.5t85.5 -87t120 -32.5q67 0 122 32.5zM446 309l60 -98h-113l-36 78h-33v-78h-100v301h141q61 0 95 -28t34 -79q0 -67 -48 -96zM324 365h41q16 0 25 9.5t9 26.5t-9 26.5t-25 9.5h-41v-72z" />
    <glyph glyph-name="macron" unicode="&#xaf;" horiz-adv-x="340" 
d="M15 762h320v-128h-320v128z" />
    <glyph glyph-name="degree" unicode="&#xb0;" horiz-adv-x="400" 
d="M292.5 788.5q35.5 -35.5 35.5 -85.5t-35.5 -85.5t-85.5 -35.5t-85.5 35.5t-35.5 85.5t35.5 85.5t85.5 35.5t85.5 -35.5zM180 730q-11 -11 -11 -27t11 -27t27 -11t27 11t11 27t-11 27t-27 11t-27 -11z" />
    <glyph glyph-name="plusminus" unicode="&#xb1;" horiz-adv-x="520" 
d="M330 478h160v-133h-160v-152h-140v152h-160v133h160v152h140v-152zM30 -16v140h460v-140h-460z" />
    <glyph glyph-name="uni00B2" unicode="&#xb2;" horiz-adv-x="396" 
d="M203 650q0 16 -23 16q-24 0 -55 -14.5t-64 -39.5l-58 108q104 67 202 67q70 0 116 -32t46 -83q0 -35 -22.5 -69.5t-64.5 -73.5l-58 -54h149v-115h-349v93l152 149q29 31 29 48z" />
    <glyph glyph-name="uni00B3" unicode="&#xb3;" horiz-adv-x="382" 
d="M340.5 571.5q25.5 -30.5 25.5 -75.5q0 -62 -49 -101.5t-130 -39.5q-51 0 -100.5 16t-81.5 42l62 114q49 -61 107 -61q39 0 39 30q0 31 -39 31h-82v78l78 68h-142v108h318v-84l-91 -79l19 -5q41 -11 66.5 -41.5z" />
    <glyph glyph-name="acute" unicode="&#xb4;" horiz-adv-x="350" 
d="M157 780l169 -60l-162 -129l-142 10z" />
    <glyph glyph-name="uni00B5" unicode="&#xb5;" horiz-adv-x="692" 
d="M637 547v-547h-225v76q-47 -71 -127 -83v-187h-225v741h225v-284q0 -34 16.5 -54.5t43.5 -20.5q31 0 49 24t18 64v271h225z" />
    <glyph glyph-name="paragraph" unicode="&#xb6;" horiz-adv-x="682" 
d="M206 293q-80 0 -128 35t-68 85t-20 100q0 62 26.5 113.5t85 83.5t147.5 32h383v-847h-166v723h-72v-723h-166v398h-22z" />
    <glyph glyph-name="periodcentered" unicode="&#xb7;" horiz-adv-x="242" 
d="M200 376q32 -32 32 -82t-32 -82t-82 -32t-82 32t-32 82t32 82t82 32t82 -32z" />
    <glyph glyph-name="cedilla" unicode="&#xb8;" horiz-adv-x="342" 
d="M253 0l-22 -59q83 -22 83 -83q0 -52 -40 -77t-97 -25q-62 0 -119 19l30 90q20 -7 45 -7q18 0 29 5t11 14q0 12 -16.5 17.5t-40.5 5.5h-17l36 110z" />
    <glyph glyph-name="uni00B9" unicode="&#xb9;" horiz-adv-x="278" 
d="M-1 781h232v-421h-156v302h-76v119z" />
    <glyph glyph-name="ordmasculine" unicode="&#xba;" horiz-adv-x="419" 
d="M353.5 747q53.5 -46 53.5 -124q0 -77 -53.5 -123.5t-144.5 -46.5q-90 0 -143.5 46.5t-53.5 123.5q0 78 53.5 124t143.5 46q91 0 144.5 -46zM177 662.5q-12 -15.5 -12 -41.5t12 -41t32 -15t32 15t12 41t-12 41.5t-32 15.5t-32 -15.5z" />
    <glyph glyph-name="guillemotright" unicode="&#xbb;" horiz-adv-x="544" 
d="M178 78h-180l106 193l-106 195h180l124 -195zM437 78h-180l106 193l-106 195h180l124 -195z" />
    <glyph glyph-name="onequarter" unicode="&#xbc;" horiz-adv-x="907" 
d="M-1 701h232v-421h-156v302h-76v119zM592 701h149l-487 -701h-149zM628 421h149l-116 -237h49v76h145v-76h55v-107h-55v-77h-145v77h-208v98z" />
    <glyph glyph-name="onehalf" unicode="&#xbd;" horiz-adv-x="954" 
d="M-1 701h232v-421h-156v302h-76v119zM592 701h149l-487 -701h-149zM761 290q0 16 -23 16q-24 0 -55 -14.5t-64 -39.5l-58 108q104 67 202 67q70 0 116 -32t46 -83q0 -35 -22.5 -69.5t-64.5 -73.5l-58 -54h149v-115h-349v93l152 149q29 31 29 48z" />
    <glyph glyph-name="threequarters" unicode="&#xbe;" horiz-adv-x="981" 
d="M340.5 491.5q25.5 -30.5 25.5 -75.5q0 -62 -49 -101.5t-130 -39.5q-51 0 -100.5 16t-81.5 42l62 114q49 -61 107 -61q39 0 39 30q0 31 -39 31h-82v78l78 68h-142v108h318v-84l-91 -79l19 -5q41 -11 66.5 -41.5zM666 701h149l-487 -701h-149zM702 421h149l-116 -237h49v76
h145v-76h55v-107h-55v-77h-145v77h-208v98z" />
    <glyph glyph-name="questiondown" unicode="&#xbf;" horiz-adv-x="498" 
d="M182.5 378.5q-28.5 28.5 -28.5 73.5q0 46 28.5 74.5t74.5 28.5q45 0 73.5 -28.5t28.5 -74.5q0 -45 -28.5 -73.5t-73.5 -28.5q-46 0 -74.5 28.5zM412 -96.5q-65 -67.5 -182 -67.5q-109 0 -169.5 48t-60.5 134q0 52 24.5 87.5t70.5 76.5q38 35 56 59t18 56h167
q0 -40 -11.5 -70t-26.5 -49t-40 -44q-25 -24 -36.5 -40.5t-11.5 -38.5t9.5 -32t31.5 -10q28 0 41 19t13 60h172q0 -121 -65 -188.5z" />
    <glyph glyph-name="Agrave" unicode="&#xc0;" horiz-adv-x="799" 
d="M562 0l-35 99h-263l-36 -99h-238l296 701h238l285 -701h-247zM324 265h146l-72 205zM393 934l111 -179l-143 -10l-138 129z" />
    <glyph glyph-name="Aacute" unicode="&#xc1;" horiz-adv-x="799" 
d="M562 0l-35 99h-263l-36 -99h-238l296 701h238l285 -701h-247zM324 265h146l-72 205zM423 934l169 -60l-162 -129l-142 10z" />
    <glyph glyph-name="Acircumflex" unicode="&#xc2;" horiz-adv-x="799" 
d="M562 0l-35 99h-263l-36 -99h-238l296 701h238l285 -701h-247zM324 265h146l-72 205zM605 752h-140l-65 72l-65 -72h-140l111 162h188z" />
    <glyph glyph-name="Atilde" unicode="&#xc3;" horiz-adv-x="799" 
d="M562 0l-35 99h-263l-36 -99h-238l296 701h238l285 -701h-247zM324 265h146l-72 205zM575.5 792q-25.5 -42 -81.5 -42q-25 0 -45.5 7t-46.5 20q-3 1 -17 7.5t-24 6.5q-14 0 -21 -9.5t-8 -29.5h-117q0 92 26 135t82 43q25 0 46 -7.5t46 -19.5q28 -14 40 -14q15 0 22 9t8 29
h116q0 -93 -25.5 -135z" />
    <glyph glyph-name="Adieresis" unicode="&#xc4;" horiz-adv-x="799" 
d="M562 0l-35 99h-263l-36 -99h-238l296 701h238l285 -701h-247zM324 265h146l-72 205zM362.5 904q24.5 -25 24.5 -64q0 -38 -24.5 -63t-63.5 -25t-63.5 25t-24.5 63q0 39 24.5 64t63.5 25t63.5 -25zM564.5 904q24.5 -25 24.5 -64q0 -38 -24.5 -63t-63.5 -25t-63.5 25
t-24.5 63q0 39 24.5 64t63.5 25t63.5 -25z" />
    <glyph glyph-name="Aring" unicode="&#xc5;" horiz-adv-x="799" 
d="M562 0l-35 99h-263l-36 -99h-238l296 701h238l285 -701h-247zM324 265h146l-72 205zM488 945q36 -36 36 -88t-36 -88t-88 -36t-88 36t-36 88t36 88t88 36t88 -36zM372 885q-11 -11 -11 -28q0 -16 11 -27.5t28 -11.5q16 0 27.5 11.5t11.5 27.5q0 17 -11.5 28t-27.5 11
q-17 0 -28 -11z" />
    <glyph glyph-name="AE" unicode="&#xc6;" horiz-adv-x="1147" 
d="M739 176h370v-176h-602v122h-217l-60 -122h-240l390 701h720v-176h-361v-86h328v-176h-328v-87zM373 288h134v237h-17z" />
    <glyph glyph-name="Ccedilla" unicode="&#xc7;" horiz-adv-x="688" 
d="M479.5 209.5q43.5 22.5 77.5 59.5l134 -143q-51 -56 -121.5 -93.5t-142.5 -45.5l-17 -46q83 -22 83 -83q0 -52 -40 -77t-97 -25q-62 0 -119 19l30 90q20 -7 45 -7q18 0 29 5t11 14q0 12 -16.5 17.5t-40.5 5.5h-17l30 91q-86 16 -152.5 66.5t-103.5 127t-37 168.5
q0 104 49 186.5t135.5 129.5t195.5 47q80 0 161 -35.5t135 -94.5l-134 -159q-31 43 -74.5 69.5t-84.5 26.5t-74.5 -21.5t-52 -59.5t-18.5 -86t18.5 -86.5t52 -60.5t74.5 -22q38 0 81.5 22.5z" />
    <glyph glyph-name="Egrave" unicode="&#xc8;" horiz-adv-x="690" 
d="M50 701h593v-176h-361v-86h328v-176h-328v-87h370v-176h-602v701zM341 934l111 -179l-143 -10l-138 129z" />
    <glyph glyph-name="Eacute" unicode="&#xc9;" horiz-adv-x="690" 
d="M50 701h593v-176h-361v-86h328v-176h-328v-87h370v-176h-602v701zM371 934l169 -60l-162 -129l-142 10z" />
    <glyph glyph-name="Ecircumflex" unicode="&#xca;" horiz-adv-x="690" 
d="M50 701h593v-176h-361v-86h328v-176h-328v-87h370v-176h-602v701zM553 752h-140l-65 72l-65 -72h-140l111 162h188z" />
    <glyph glyph-name="Edieresis" unicode="&#xcb;" horiz-adv-x="690" 
d="M50 701h593v-176h-361v-86h328v-176h-328v-87h370v-176h-602v701zM310.5 904q24.5 -25 24.5 -64q0 -38 -24.5 -63t-63.5 -25t-63.5 25t-24.5 63q0 39 24.5 64t63.5 25t63.5 -25zM512.5 904q24.5 -25 24.5 -64q0 -38 -24.5 -63t-63.5 -25t-63.5 25t-24.5 63q0 39 24.5 64
t63.5 25t63.5 -25z" />
    <glyph glyph-name="Igrave" unicode="&#xcc;" horiz-adv-x="332" 
d="M50 701h232v-701h-232v701zM159 934l111 -179l-143 -10l-138 129z" />
    <glyph glyph-name="Iacute" unicode="&#xcd;" horiz-adv-x="332" 
d="M50 701h232v-701h-232v701zM189 934l169 -60l-162 -129l-142 10z" />
    <glyph glyph-name="Icircumflex" unicode="&#xce;" horiz-adv-x="332" 
d="M50 701h232v-701h-232v701zM371 752h-140l-65 72l-65 -72h-140l111 162h188z" />
    <glyph glyph-name="Idieresis" unicode="&#xcf;" horiz-adv-x="332" 
d="M50 701h232v-701h-232v701zM128.5 904q24.5 -25 24.5 -64q0 -38 -24.5 -63t-63.5 -25t-63.5 25t-24.5 63q0 39 24.5 64t63.5 25t63.5 -25zM330.5 904q24.5 -25 24.5 -64q0 -38 -24.5 -63t-63.5 -25t-63.5 25t-24.5 63q0 39 24.5 64t63.5 25t63.5 -25z" />
    <glyph glyph-name="Eth" unicode="&#xd0;" horiz-adv-x="759" 
d="M564 658q86 -43 133 -122.5t47 -184.5q0 -106 -48 -185t-136.5 -122.5t-205.5 -43.5h-304v302h-62v98h62v301h313q115 0 201 -43zM469.5 226q37.5 46 37.5 123q0 78 -40.5 125t-108.5 47h-76v-121h133v-98h-133v-122h87q63 0 100.5 46z" />
    <glyph glyph-name="Ntilde" unicode="&#xd1;" horiz-adv-x="781" 
d="M521 701h210v-701h-194l-276 358v-358h-211v701h194l277 -360v360zM566.5 792q-25.5 -42 -81.5 -42q-25 0 -45.5 7t-46.5 20q-3 1 -17 7.5t-24 6.5q-14 0 -21 -9.5t-8 -29.5h-117q0 92 26 135t82 43q25 0 46 -7.5t46 -19.5q28 -14 40 -14q15 0 22 9t8 29h116
q0 -93 -25.5 -135z" />
    <glyph glyph-name="Ograve" unicode="&#xd2;" horiz-adv-x="800" 
d="M598 669q88 -47 137.5 -130t49.5 -187q0 -105 -49.5 -189t-137.5 -131.5t-198 -47.5t-198 47.5t-137.5 131.5t-49.5 189t49.5 188t137.5 129.5t198 46.5t198 -47zM328.5 500.5q-34.5 -22.5 -55 -61.5t-20.5 -88t20.5 -88.5t55 -62.5t74.5 -23t73 22.5t52 62.5t19 89
t-19 88.5t-52 61.5t-73 22t-74.5 -22.5zM393 934l111 -179l-143 -10l-138 129z" />
    <glyph glyph-name="Oacute" unicode="&#xd3;" horiz-adv-x="800" 
d="M598 669q88 -47 137.5 -130t49.5 -187q0 -105 -49.5 -189t-137.5 -131.5t-198 -47.5t-198 47.5t-137.5 131.5t-49.5 189t49.5 188t137.5 129.5t198 46.5t198 -47zM328.5 500.5q-34.5 -22.5 -55 -61.5t-20.5 -88t20.5 -88.5t55 -62.5t74.5 -23t73 22.5t52 62.5t19 89
t-19 88.5t-52 61.5t-73 22t-74.5 -22.5zM423 934l169 -60l-162 -129l-142 10z" />
    <glyph glyph-name="Ocircumflex" unicode="&#xd4;" horiz-adv-x="800" 
d="M598 669q88 -47 137.5 -130t49.5 -187q0 -105 -49.5 -189t-137.5 -131.5t-198 -47.5t-198 47.5t-137.5 131.5t-49.5 189t49.5 188t137.5 129.5t198 46.5t198 -47zM328.5 500.5q-34.5 -22.5 -55 -61.5t-20.5 -88t20.5 -88.5t55 -62.5t74.5 -23t73 22.5t52 62.5t19 89
t-19 88.5t-52 61.5t-73 22t-74.5 -22.5zM605 752h-140l-65 72l-65 -72h-140l111 162h188z" />
    <glyph glyph-name="Otilde" unicode="&#xd5;" horiz-adv-x="800" 
d="M598 669q88 -47 137.5 -130t49.5 -187q0 -105 -49.5 -189t-137.5 -131.5t-198 -47.5t-198 47.5t-137.5 131.5t-49.5 189t49.5 188t137.5 129.5t198 46.5t198 -47zM328.5 500.5q-34.5 -22.5 -55 -61.5t-20.5 -88t20.5 -88.5t55 -62.5t74.5 -23t73 22.5t52 62.5t19 89
t-19 88.5t-52 61.5t-73 22t-74.5 -22.5zM575.5 792q-25.5 -42 -81.5 -42q-25 0 -45.5 7t-46.5 20q-3 1 -17 7.5t-24 6.5q-14 0 -21 -9.5t-8 -29.5h-117q0 92 26 135t82 43q25 0 46 -7.5t46 -19.5q28 -14 40 -14q15 0 22 9t8 29h116q0 -93 -25.5 -135z" />
    <glyph glyph-name="Odieresis" unicode="&#xd6;" horiz-adv-x="800" 
d="M598 669q88 -47 137.5 -130t49.5 -187q0 -105 -49.5 -189t-137.5 -131.5t-198 -47.5t-198 47.5t-137.5 131.5t-49.5 189t49.5 188t137.5 129.5t198 46.5t198 -47zM328.5 500.5q-34.5 -22.5 -55 -61.5t-20.5 -88t20.5 -88.5t55 -62.5t74.5 -23t73 22.5t52 62.5t19 89
t-19 88.5t-52 61.5t-73 22t-74.5 -22.5zM362.5 904q24.5 -25 24.5 -64q0 -38 -24.5 -63t-63.5 -25t-63.5 25t-24.5 63q0 39 24.5 64t63.5 25t63.5 -25zM564.5 904q24.5 -25 24.5 -64q0 -38 -24.5 -63t-63.5 -25t-63.5 25t-24.5 63q0 39 24.5 64t63.5 25t63.5 -25z" />
    <glyph glyph-name="multiply" unicode="&#xd7;" horiz-adv-x="520" 
d="M472 442l-113 -113l113 -113l-99 -99l-113 113l-113 -113l-99 99l113 113l-113 113l99 99l113 -113l113 113z" />
    <glyph glyph-name="Oslash" unicode="&#xd8;" horiz-adv-x="800" 
d="M744.5 514.5q40.5 -75.5 40.5 -167.5q0 -103 -49.5 -185t-137.5 -129t-198 -47q-74 0 -137 21l-36 -62h-127l64 110q-70 49 -109.5 124.5t-39.5 167.5q0 103 49.5 184t137.5 127t198 46q67 0 132 -19l41 70h127l-68 -117q72 -48 112.5 -123.5zM279 252l150 256
q-12 3 -26 3q-40 0 -74.5 -21.5t-55 -59t-20.5 -84.5q0 -52 26 -94zM476 201q33 22 52 60t19 85q0 58 -28 100l-152 -262q18 -5 36 -5q40 0 73 22z" />
    <glyph glyph-name="Ugrave" unicode="&#xd9;" horiz-adv-x="741" 
d="M302 209q30 -32 72 -32q41 0 68 31.5t27 82.5v410h232v-410q0 -92 -40.5 -161.5t-114.5 -107.5t-173 -38t-174.5 38t-117 107.5t-41.5 161.5v410h232v-410q0 -50 30 -82zM364 934l111 -179l-143 -10l-138 129z" />
    <glyph glyph-name="Uacute" unicode="&#xda;" horiz-adv-x="741" 
d="M302 209q30 -32 72 -32q41 0 68 31.5t27 82.5v410h232v-410q0 -92 -40.5 -161.5t-114.5 -107.5t-173 -38t-174.5 38t-117 107.5t-41.5 161.5v410h232v-410q0 -50 30 -82zM394 934l169 -60l-162 -129l-142 10z" />
    <glyph glyph-name="Ucircumflex" unicode="&#xdb;" horiz-adv-x="741" 
d="M302 209q30 -32 72 -32q41 0 68 31.5t27 82.5v410h232v-410q0 -92 -40.5 -161.5t-114.5 -107.5t-173 -38t-174.5 38t-117 107.5t-41.5 161.5v410h232v-410q0 -50 30 -82zM576 752h-140l-65 72l-65 -72h-140l111 162h188z" />
    <glyph glyph-name="Udieresis" unicode="&#xdc;" horiz-adv-x="741" 
d="M302 209q30 -32 72 -32q41 0 68 31.5t27 82.5v410h232v-410q0 -92 -40.5 -161.5t-114.5 -107.5t-173 -38t-174.5 38t-117 107.5t-41.5 161.5v410h232v-410q0 -50 30 -82zM333.5 904q24.5 -25 24.5 -64q0 -38 -24.5 -63t-63.5 -25t-63.5 25t-24.5 63q0 39 24.5 64t63.5 25
t63.5 -25zM535.5 904q24.5 -25 24.5 -64q0 -38 -24.5 -63t-63.5 -25t-63.5 25t-24.5 63q0 39 24.5 64t63.5 25t63.5 -25z" />
    <glyph glyph-name="Yacute" unicode="&#xdd;" horiz-adv-x="719" 
d="M729 701l-251 -483v-218h-232v213l-256 488h231l141 -270l136 270h231zM383 934l169 -60l-162 -129l-142 10z" />
    <glyph glyph-name="Thorn" unicode="&#xde;" horiz-adv-x="698" 
d="M538 584.5q67 -30.5 103.5 -86.5t36.5 -131q0 -80 -36.5 -140t-103.5 -92.5t-156 -32.5h-100v-102h-232v701h232v-86h100q89 0 156 -30.5zM421.5 300.5q18.5 22.5 18.5 59.5q0 36 -18.5 57.5t-49.5 21.5h-90v-161h90q31 0 49.5 22.5z" />
    <glyph glyph-name="germandbls" unicode="&#xdf;" horiz-adv-x="670" 
d="M75 631q35 58 99.5 89.5t150.5 31.5q85 0 148.5 -25.5t98 -72t34.5 -107.5q0 -46 -21.5 -90t-56.5 -72q56 -20 89 -65.5t33 -102.5q0 -65 -36 -114.5t-101.5 -76t-153.5 -26.5h-47v158h23q50 0 73.5 15.5t23.5 49.5q0 32 -23.5 46.5t-73.5 14.5h-23v157q40 0 58 17t18 55
t-14 55t-45 17q-33 0 -48.5 -17.5t-15.5 -54.5v-513h-225v496q0 77 35 135z" />
    <glyph glyph-name="agrave" unicode="&#xe0;" horiz-adv-x="613" 
d="M506.5 503.5q66.5 -53.5 66.5 -149.5v-354h-221v59q-50 -69 -154 -69q-86 0 -134.5 46.5t-48.5 125.5q0 81 54 123t158 44h125q-1 29 -22.5 44.5t-62.5 15.5q-32 0 -76.5 -9t-89.5 -26l-50 150q70 26 139.5 39.5t130.5 13.5q119 0 185.5 -53.5zM318.5 144
q20.5 11 33.5 31v50h-78q-48 0 -48 -44q0 -23 13 -35.5t37 -12.5q22 0 42.5 11zM301 780l111 -179l-143 -10l-138 129z" />
    <glyph glyph-name="aacute" unicode="&#xe1;" horiz-adv-x="613" 
d="M506.5 503.5q66.5 -53.5 66.5 -149.5v-354h-221v59q-50 -69 -154 -69q-86 0 -134.5 46.5t-48.5 125.5q0 81 54 123t158 44h125q-1 29 -22.5 44.5t-62.5 15.5q-32 0 -76.5 -9t-89.5 -26l-50 150q70 26 139.5 39.5t130.5 13.5q119 0 185.5 -53.5zM318.5 144
q20.5 11 33.5 31v50h-78q-48 0 -48 -44q0 -23 13 -35.5t37 -12.5q22 0 42.5 11zM331 780l169 -60l-162 -129l-142 10z" />
    <glyph glyph-name="acircumflex" unicode="&#xe2;" horiz-adv-x="613" 
d="M506.5 503.5q66.5 -53.5 66.5 -149.5v-354h-221v59q-50 -69 -154 -69q-86 0 -134.5 46.5t-48.5 125.5q0 81 54 123t158 44h125q-1 29 -22.5 44.5t-62.5 15.5q-32 0 -76.5 -9t-89.5 -26l-50 150q70 26 139.5 39.5t130.5 13.5q119 0 185.5 -53.5zM318.5 144
q20.5 11 33.5 31v50h-78q-48 0 -48 -44q0 -23 13 -35.5t37 -12.5q22 0 42.5 11zM513 607h-140l-65 72l-65 -72h-140l111 162h188z" />
    <glyph glyph-name="atilde" unicode="&#xe3;" horiz-adv-x="613" 
d="M506.5 503.5q66.5 -53.5 66.5 -149.5v-354h-221v59q-50 -69 -154 -69q-86 0 -134.5 46.5t-48.5 125.5q0 81 54 123t158 44h125q-1 29 -22.5 44.5t-62.5 15.5q-32 0 -76.5 -9t-89.5 -26l-50 150q70 26 139.5 39.5t130.5 13.5q119 0 185.5 -53.5zM318.5 144
q20.5 11 33.5 31v50h-78q-48 0 -48 -44q0 -23 13 -35.5t37 -12.5q22 0 42.5 11zM483.5 636q-25.5 -42 -81.5 -42q-25 0 -45.5 7t-46.5 20q-3 1 -17 7.5t-24 6.5q-14 0 -21 -9.5t-8 -29.5h-117q0 92 26 135t82 43q25 0 46 -7.5t46 -19.5q28 -14 40 -14q15 0 22 9t8 29h116
q0 -93 -25.5 -135z" />
    <glyph glyph-name="adieresis" unicode="&#xe4;" horiz-adv-x="613" 
d="M506.5 503.5q66.5 -53.5 66.5 -149.5v-354h-221v59q-50 -69 -154 -69q-86 0 -134.5 46.5t-48.5 125.5q0 81 54 123t158 44h125q-1 29 -22.5 44.5t-62.5 15.5q-32 0 -76.5 -9t-89.5 -26l-50 150q70 26 139.5 39.5t130.5 13.5q119 0 185.5 -53.5zM318.5 144
q20.5 11 33.5 31v50h-78q-48 0 -48 -44q0 -23 13 -35.5t37 -12.5q22 0 42.5 11zM270.5 757q24.5 -25 24.5 -64q0 -38 -24.5 -63t-63.5 -25t-63.5 25t-24.5 63q0 39 24.5 64t63.5 25t63.5 -25zM472.5 757q24.5 -25 24.5 -64q0 -38 -24.5 -63t-63.5 -25t-63.5 25t-24.5 63
q0 39 24.5 64t63.5 25t63.5 -25z" />
    <glyph glyph-name="aring" unicode="&#xe5;" horiz-adv-x="613" 
d="M506.5 503.5q66.5 -53.5 66.5 -149.5v-354h-221v59q-50 -69 -154 -69q-86 0 -134.5 46.5t-48.5 125.5q0 81 54 123t158 44h125q-1 29 -22.5 44.5t-62.5 15.5q-32 0 -76.5 -9t-89.5 -26l-50 150q70 26 139.5 39.5t130.5 13.5q119 0 185.5 -53.5zM318.5 144
q20.5 11 33.5 31v50h-78q-48 0 -48 -44q0 -23 13 -35.5t37 -12.5q22 0 42.5 11zM396 791q36 -36 36 -88t-36 -88t-88 -36t-88 36t-36 88t36 88t88 36t88 -36zM280 731q-11 -11 -11 -28q0 -16 11 -27.5t28 -11.5q16 0 27.5 11.5t11.5 27.5q0 17 -11.5 28t-27.5 11
q-17 0 -28 -11z" />
    <glyph glyph-name="ae" unicode="&#xe6;" horiz-adv-x="958" 
d="M620.5 173q23.5 -15 55.5 -15q60 0 112 49l117 -115q-44 -49 -107 -74.5t-142 -25.5q-75 0 -130.5 26t-89.5 75q-31 -50 -86 -77t-130 -27q-96 0 -150.5 47t-54.5 126q0 81 54.5 123t158.5 44h127l-1 9q-4 24 -25.5 37.5t-59.5 13.5q-33 0 -78 -9t-90 -26l-50 150
q71 26 140.5 39.5t130.5 13.5q111 0 175 -45q63 43 153 43q91 0 157 -37t101 -105.5t35 -160.5q0 -19 -1 -29h-357l2 -6q10 -29 33.5 -44zM700.5 383q-18.5 22 -48.5 22q-28 0 -46.5 -21t-25.5 -57h137q2 34 -16.5 56zM239 214q-13 -11 -13 -33q0 -23 13.5 -35.5t37.5 -12.5
q22 0 43 11t35 31v50h-80q-23 0 -36 -11z" />
    <glyph glyph-name="ccedilla" unicode="&#xe7;" horiz-adv-x="561" 
d="M381 229l182 -84q-25 -63 -80 -101.5t-131 -48.5l-20 -54q83 -22 83 -83q0 -52 -40 -77t-97 -25q-62 0 -119 19l30 90q20 -7 45 -7q18 0 29 5t11 14q0 12 -16.5 17.5t-40.5 5.5h-17l32 98q-101 20 -159 92.5t-58 180.5q0 85 35.5 149.5t101 99.5t152.5 35q89 0 157 -41.5
t102 -116.5l-179 -76q-22 52 -70 52q-33 0 -52.5 -27.5t-19.5 -73.5q0 -47 19.5 -74.5t52.5 -27.5q50 0 67 59z" />
    <glyph glyph-name="egrave" unicode="&#xe8;" horiz-adv-x="614" 
d="M463 518q66 -37 101 -105.5t35 -160.5q0 -19 -1 -29h-356q11 -32 34.5 -48.5t56.5 -16.5q59 0 111 49l117 -115q-44 -49 -106.5 -74.5t-141.5 -25.5q-92 0 -159.5 34.5t-103 97.5t-35.5 147q0 86 36 150t102.5 99t153.5 35q90 0 156 -37zM356.5 383q-18.5 22 -47.5 22
q-28 0 -46.5 -21t-25.5 -57h136q2 34 -16.5 56zM296 780l111 -179l-143 -10l-138 129z" />
    <glyph glyph-name="eacute" unicode="&#xe9;" horiz-adv-x="614" 
d="M463 518q66 -37 101 -105.5t35 -160.5q0 -19 -1 -29h-356q11 -32 34.5 -48.5t56.5 -16.5q59 0 111 49l117 -115q-44 -49 -106.5 -74.5t-141.5 -25.5q-92 0 -159.5 34.5t-103 97.5t-35.5 147q0 86 36 150t102.5 99t153.5 35q90 0 156 -37zM356.5 383q-18.5 22 -47.5 22
q-28 0 -46.5 -21t-25.5 -57h136q2 34 -16.5 56zM326 780l169 -60l-162 -129l-142 10z" />
    <glyph glyph-name="ecircumflex" unicode="&#xea;" horiz-adv-x="614" 
d="M463 518q66 -37 101 -105.5t35 -160.5q0 -19 -1 -29h-356q11 -32 34.5 -48.5t56.5 -16.5q59 0 111 49l117 -115q-44 -49 -106.5 -74.5t-141.5 -25.5q-92 0 -159.5 34.5t-103 97.5t-35.5 147q0 86 36 150t102.5 99t153.5 35q90 0 156 -37zM356.5 383q-18.5 22 -47.5 22
q-28 0 -46.5 -21t-25.5 -57h136q2 34 -16.5 56zM508 607h-140l-65 72l-65 -72h-140l111 162h188z" />
    <glyph glyph-name="edieresis" unicode="&#xeb;" horiz-adv-x="614" 
d="M463 518q66 -37 101 -105.5t35 -160.5q0 -19 -1 -29h-356q11 -32 34.5 -48.5t56.5 -16.5q59 0 111 49l117 -115q-44 -49 -106.5 -74.5t-141.5 -25.5q-92 0 -159.5 34.5t-103 97.5t-35.5 147q0 86 36 150t102.5 99t153.5 35q90 0 156 -37zM356.5 383q-18.5 22 -47.5 22
q-28 0 -46.5 -21t-25.5 -57h136q2 34 -16.5 56zM265.5 757q24.5 -25 24.5 -64q0 -38 -24.5 -63t-63.5 -25t-63.5 25t-24.5 63q0 39 24.5 64t63.5 25t63.5 -25zM467.5 757q24.5 -25 24.5 -64q0 -38 -24.5 -63t-63.5 -25t-63.5 25t-24.5 63q0 39 24.5 64t63.5 25t63.5 -25z
" />
    <glyph glyph-name="igrave" unicode="&#xec;" horiz-adv-x="335" 
d="M55 547h225v-547h-225v547zM161 780l111 -179l-143 -10l-138 129z" />
    <glyph glyph-name="iacute" unicode="&#xed;" horiz-adv-x="335" 
d="M55 547h225v-547h-225v547zM191 780l169 -60l-162 -129l-142 10z" />
    <glyph glyph-name="icircumflex" unicode="&#xee;" horiz-adv-x="335" 
d="M55 547h225v-547h-225v547zM373 607h-140l-65 72l-65 -72h-140l111 162h188z" />
    <glyph glyph-name="idieresis" unicode="&#xef;" horiz-adv-x="335" 
d="M55 547h225v-547h-225v547zM130.5 757q24.5 -25 24.5 -64q0 -38 -24.5 -63t-63.5 -25t-63.5 25t-24.5 63q0 39 24.5 64t63.5 25t63.5 -25zM332.5 757q24.5 -25 24.5 -64q0 -38 -24.5 -63t-63.5 -25t-63.5 25t-24.5 63q0 39 24.5 64t63.5 25t63.5 -25z" />
    <glyph glyph-name="eth" unicode="&#xf0;" horiz-adv-x="617" 
d="M562.5 477.5q39.5 -83.5 39.5 -174.5q0 -94 -39 -165t-111 -110t-168 -39q-83 0 -145 29.5t-96 83.5t-34 125q0 66 28 116t79.5 77.5t119.5 27.5q42 0 81.5 -10.5t63.5 -28.5q-1 74 -91 146l-178 -81l-37 76l130 60q-56 30 -121 53l151 89q77 -26 139 -66l145 67l37 -78
l-105 -48q72 -66 111.5 -149.5zM342 191q19 17 19 46t-19 46t-51 17q-31 0 -49 -17t-18 -45q0 -29 18.5 -46.5t49.5 -17.5t50 17z" />
    <glyph glyph-name="ntilde" unicode="&#xf1;" horiz-adv-x="682" 
d="M547.5 531q44.5 -26 69.5 -73t25 -109v-349h-225v284q0 34 -18 54.5t-47 20.5q-33 0 -52.5 -24t-19.5 -64v-271h-225v547h225v-78q28 43 70.5 65.5t95.5 22.5q57 0 101.5 -26zM535.5 636q-25.5 -42 -81.5 -42q-25 0 -45.5 7t-46.5 20q-3 1 -17 7.5t-24 6.5
q-14 0 -21 -9.5t-8 -29.5h-117q0 92 26 135t82 43q25 0 46 -7.5t46 -19.5q28 -14 40 -14q15 0 22 9t8 29h116q0 -93 -25.5 -135z" />
    <glyph glyph-name="ograve" unicode="&#xf2;" horiz-adv-x="648" 
d="M487 520.5q70 -34.5 108 -98t38 -148.5t-38 -148.5t-108 -98.5t-163 -35t-163 35t-108 98.5t-38 148.5t38 148.5t108 98t163 34.5t163 -34.5zM264.5 348q-22.5 -29 -22.5 -77t22.5 -77t59.5 -29t59.5 29t22.5 77t-22.5 77t-59.5 29t-59.5 -29zM317 780l111 -179l-143 -10
l-138 129z" />
    <glyph glyph-name="oacute" unicode="&#xf3;" horiz-adv-x="648" 
d="M487 520.5q70 -34.5 108 -98t38 -148.5t-38 -148.5t-108 -98.5t-163 -35t-163 35t-108 98.5t-38 148.5t38 148.5t108 98t163 34.5t163 -34.5zM264.5 348q-22.5 -29 -22.5 -77t22.5 -77t59.5 -29t59.5 29t22.5 77t-22.5 77t-59.5 29t-59.5 -29zM347 780l169 -60l-162 -129
l-142 10z" />
    <glyph glyph-name="ocircumflex" unicode="&#xf4;" horiz-adv-x="648" 
d="M487 520.5q70 -34.5 108 -98t38 -148.5t-38 -148.5t-108 -98.5t-163 -35t-163 35t-108 98.5t-38 148.5t38 148.5t108 98t163 34.5t163 -34.5zM264.5 348q-22.5 -29 -22.5 -77t22.5 -77t59.5 -29t59.5 29t22.5 77t-22.5 77t-59.5 29t-59.5 -29zM529 607h-140l-65 72
l-65 -72h-140l111 162h188z" />
    <glyph glyph-name="otilde" unicode="&#xf5;" horiz-adv-x="648" 
d="M487 520.5q70 -34.5 108 -98t38 -148.5t-38 -148.5t-108 -98.5t-163 -35t-163 35t-108 98.5t-38 148.5t38 148.5t108 98t163 34.5t163 -34.5zM264.5 348q-22.5 -29 -22.5 -77t22.5 -77t59.5 -29t59.5 29t22.5 77t-22.5 77t-59.5 29t-59.5 -29zM499.5 636
q-25.5 -42 -81.5 -42q-25 0 -45.5 7t-46.5 20q-3 1 -17 7.5t-24 6.5q-14 0 -21 -9.5t-8 -29.5h-117q0 92 26 135t82 43q25 0 46 -7.5t46 -19.5q28 -14 40 -14q15 0 22 9t8 29h116q0 -93 -25.5 -135z" />
    <glyph glyph-name="odieresis" unicode="&#xf6;" horiz-adv-x="648" 
d="M487 520.5q70 -34.5 108 -98t38 -148.5t-38 -148.5t-108 -98.5t-163 -35t-163 35t-108 98.5t-38 148.5t38 148.5t108 98t163 34.5t163 -34.5zM264.5 348q-22.5 -29 -22.5 -77t22.5 -77t59.5 -29t59.5 29t22.5 77t-22.5 77t-59.5 29t-59.5 -29zM286.5 757
q24.5 -25 24.5 -64q0 -38 -24.5 -63t-63.5 -25t-63.5 25t-24.5 63q0 39 24.5 64t63.5 25t63.5 -25zM488.5 757q24.5 -25 24.5 -64q0 -38 -24.5 -63t-63.5 -25t-63.5 25t-24.5 63q0 39 24.5 64t63.5 25t63.5 -25z" />
    <glyph glyph-name="divide" unicode="&#xf7;" horiz-adv-x="520" 
d="M323.5 574.5q25.5 -25.5 25.5 -66.5q0 -40 -26 -65.5t-66 -25.5t-65.5 25.5t-25.5 65.5t25.5 66t65.5 26q41 0 66.5 -25.5zM30 399h460v-140h-460v140zM323.5 214.5q25.5 -25.5 25.5 -66.5q0 -40 -26 -65.5t-66 -25.5t-65.5 25.5t-25.5 65.5t25.5 66t65.5 26
q41 0 66.5 -25.5z" />
    <glyph glyph-name="oslash" unicode="&#xf8;" horiz-adv-x="648" 
d="M604.5 404.5q28.5 -57.5 28.5 -130.5q0 -85 -38 -148.5t-108 -98.5t-163 -35q-72 0 -129 21l-63 -93h-88l85 125q-55 37 -84.5 96t-29.5 133q0 85 38 148.5t108 98t163 34.5q73 0 134 -22l64 94h88l-87 -128q53 -37 81.5 -94.5zM238 207l123 182q-19 7 -37 7
q-44 0 -70.5 -34t-26.5 -91q0 -36 11 -64zM394.5 180q26.5 34 26.5 91q0 33 -10 61l-122 -179q15 -7 35 -7q44 0 70.5 34z" />
    <glyph glyph-name="ugrave" unicode="&#xf9;" horiz-adv-x="672" 
d="M617 547v-547h-225v76q-27 -42 -68 -64t-93 -22q-56 0 -99 26t-67.5 73t-24.5 109v349h225v-284q0 -34 16.5 -54.5t43.5 -20.5q31 0 49 24t18 64v271h225zM329 780l111 -179l-143 -10l-138 129z" />
    <glyph glyph-name="uacute" unicode="&#xfa;" horiz-adv-x="672" 
d="M617 547v-547h-225v76q-27 -42 -68 -64t-93 -22q-56 0 -99 26t-67.5 73t-24.5 109v349h225v-284q0 -34 16.5 -54.5t43.5 -20.5q31 0 49 24t18 64v271h225zM359 780l169 -60l-162 -129l-142 10z" />
    <glyph glyph-name="ucircumflex" unicode="&#xfb;" horiz-adv-x="672" 
d="M617 547v-547h-225v76q-27 -42 -68 -64t-93 -22q-56 0 -99 26t-67.5 73t-24.5 109v349h225v-284q0 -34 16.5 -54.5t43.5 -20.5q31 0 49 24t18 64v271h225zM541 607h-140l-65 72l-65 -72h-140l111 162h188z" />
    <glyph glyph-name="udieresis" unicode="&#xfc;" horiz-adv-x="672" 
d="M617 547v-547h-225v76q-27 -42 -68 -64t-93 -22q-56 0 -99 26t-67.5 73t-24.5 109v349h225v-284q0 -34 16.5 -54.5t43.5 -20.5q31 0 49 24t18 64v271h225zM298.5 757q24.5 -25 24.5 -64q0 -38 -24.5 -63t-63.5 -25t-63.5 25t-24.5 63q0 39 24.5 64t63.5 25t63.5 -25z
M500.5 757q24.5 -25 24.5 -64q0 -38 -24.5 -63t-63.5 -25t-63.5 25t-24.5 63q0 39 24.5 64t63.5 25t63.5 -25z" />
    <glyph glyph-name="yacute" unicode="&#xfd;" horiz-adv-x="624" 
d="M316 -163.5q-59 -40.5 -147 -40.5q-54 0 -99.5 15.5t-89.5 48.5l94 148q35 -32 73 -32t54 28l8 13l-227 530h231l108 -312l89 312h224l-225 -585q-34 -85 -93 -125.5zM335 780l169 -60l-162 -129l-142 10z" />
    <glyph glyph-name="thorn" unicode="&#xfe;" horiz-adv-x="690" 
d="M424 555q75 0 132 -35t88 -99.5t31 -150.5q0 -84 -30 -147t-85.5 -97t-129.5 -34q-44 0 -81 16.5t-64 47.5v-250h-225v936h225v-250q54 63 139 63zM307 353q-22 -29 -22 -77t22 -77t59 -29t59.5 29t22.5 77t-22.5 77t-59.5 29t-59 -29z" />
    <glyph glyph-name="ydieresis" unicode="&#xff;" horiz-adv-x="624" 
d="M316 -163.5q-59 -40.5 -147 -40.5q-54 0 -99.5 15.5t-89.5 48.5l94 148q35 -32 73 -32t54 28l8 13l-227 530h231l108 -312l89 312h224l-225 -585q-34 -85 -93 -125.5zM274.5 757q24.5 -25 24.5 -64q0 -38 -24.5 -63t-63.5 -25t-63.5 25t-24.5 63q0 39 24.5 64t63.5 25
t63.5 -25zM476.5 757q24.5 -25 24.5 -64q0 -38 -24.5 -63t-63.5 -25t-63.5 25t-24.5 63q0 39 24.5 64t63.5 25t63.5 -25z" />
    <glyph glyph-name="Amacron" unicode="&#x100;" horiz-adv-x="799" 
d="M562 0l-35 99h-263l-36 -99h-238l296 701h238l285 -701h-247zM324 265h146l-72 205zM210 880h380v-128h-380v128z" />
    <glyph glyph-name="amacron" unicode="&#x101;" horiz-adv-x="613" 
d="M506.5 503.5q66.5 -53.5 66.5 -149.5v-354h-221v59q-50 -69 -154 -69q-86 0 -134.5 46.5t-48.5 125.5q0 81 54 123t158 44h125q-1 29 -22.5 44.5t-62.5 15.5q-32 0 -76.5 -9t-89.5 -26l-50 150q70 26 139.5 39.5t130.5 13.5q119 0 185.5 -53.5zM318.5 144
q20.5 11 33.5 31v50h-78q-48 0 -48 -44q0 -23 13 -35.5t37 -12.5q22 0 42.5 11zM148 762h320v-128h-320v128z" />
    <glyph glyph-name="Abreve" unicode="&#x102;" horiz-adv-x="799" 
d="M562 0l-35 99h-263l-36 -99h-238l296 701h238l285 -701h-247zM324 265h146l-72 205zM366.5 889.5q13.5 -13.5 33.5 -13.5t33.5 13.5t15.5 36.5h135q-4 -79 -54 -126.5t-130 -47.5t-130 47.5t-54 126.5h135q2 -23 15.5 -36.5z" />
    <glyph glyph-name="abreve" unicode="&#x103;" horiz-adv-x="613" 
d="M506.5 503.5q66.5 -53.5 66.5 -149.5v-354h-221v59q-50 -69 -154 -69q-86 0 -134.5 46.5t-48.5 125.5q0 81 54 123t158 44h125q-1 29 -22.5 44.5t-62.5 15.5q-32 0 -76.5 -9t-89.5 -26l-50 150q70 26 139.5 39.5t130.5 13.5q119 0 185.5 -53.5zM318.5 144
q20.5 11 33.5 31v50h-78q-48 0 -48 -44q0 -23 13 -35.5t37 -12.5q22 0 42.5 11zM274.5 732.5q13.5 -13.5 33.5 -13.5t33.5 13.5t15.5 36.5h135q-4 -79 -54 -126.5t-130 -47.5t-130 47.5t-54 126.5h135q2 -23 15.5 -36.5z" />
    <glyph glyph-name="Aogonek" unicode="&#x104;" horiz-adv-x="799" 
d="M703 -108l31 -111q-56 -25 -107 -25q-57 0 -86.5 33t-29.5 84q0 65 51 127l-35 99h-263l-36 -99h-238l296 701h238l285 -701h-82q-69 -48 -69 -90q0 -26 20 -26q11 0 25 8zM324 265h146l-72 205z" />
    <glyph glyph-name="aogonek" unicode="&#x105;" horiz-adv-x="613" 
d="M447 -90q0 -26 20 -26q11 0 25 8l31 -111q-56 -25 -107 -25q-57 0 -86.5 33t-29.5 84q0 67 52 128v58q-50 -69 -154 -69q-86 0 -134.5 46.5t-48.5 125.5q0 81 54 123t158 44h125q-1 29 -22.5 44.5t-62.5 15.5q-32 0 -76.5 -9t-89.5 -26l-50 150q70 26 139.5 39.5
t130.5 13.5q119 0 185.5 -53.5t66.5 -149.5v-354h-57q-69 -48 -69 -90zM318.5 144q20.5 11 33.5 31v50h-78q-48 0 -48 -44q0 -23 13 -35.5t37 -12.5q22 0 42.5 11z" />
    <glyph glyph-name="Cacute" unicode="&#x106;" horiz-adv-x="688" 
d="M482.5 496.5q-43.5 26.5 -84.5 26.5t-74.5 -21.5t-52 -59.5t-18.5 -86t18.5 -86.5t52 -60.5t74.5 -22q38 0 81.5 22.5t77.5 59.5l134 -143q-59 -65 -141.5 -103.5t-163.5 -38.5q-106 0 -190.5 47.5t-132.5 132t-48 189.5q0 104 49 186.5t135.5 129.5t195.5 47
q80 0 161 -35.5t135 -94.5l-134 -159q-31 43 -74.5 69.5zM417 934l169 -60l-162 -129l-142 10z" />
    <glyph glyph-name="cacute" unicode="&#x107;" horiz-adv-x="561" 
d="M314 373q-33 0 -52.5 -27.5t-19.5 -73.5q0 -47 19.5 -74.5t52.5 -27.5q50 0 67 59l182 -84q-30 -73 -98.5 -113t-162.5 -40q-86 0 -151 34.5t-100.5 97.5t-35.5 147q0 85 35.5 149.5t101 99.5t152.5 35q89 0 157 -41.5t102 -116.5l-179 -76q-22 52 -70 52zM321 780
l169 -60l-162 -129l-142 10z" />
    <glyph glyph-name="Ccircumflex" unicode="&#x108;" horiz-adv-x="688" 
d="M482.5 496.5q-43.5 26.5 -84.5 26.5t-74.5 -21.5t-52 -59.5t-18.5 -86t18.5 -86.5t52 -60.5t74.5 -22q38 0 81.5 22.5t77.5 59.5l134 -143q-59 -65 -141.5 -103.5t-163.5 -38.5q-106 0 -190.5 47.5t-132.5 132t-48 189.5q0 104 49 186.5t135.5 129.5t195.5 47
q80 0 161 -35.5t135 -94.5l-134 -159q-31 43 -74.5 69.5zM599 752h-140l-65 72l-65 -72h-140l111 162h188z" />
    <glyph glyph-name="ccircumflex" unicode="&#x109;" horiz-adv-x="561" 
d="M314 373q-33 0 -52.5 -27.5t-19.5 -73.5q0 -47 19.5 -74.5t52.5 -27.5q50 0 67 59l182 -84q-30 -73 -98.5 -113t-162.5 -40q-86 0 -151 34.5t-100.5 97.5t-35.5 147q0 85 35.5 149.5t101 99.5t152.5 35q89 0 157 -41.5t102 -116.5l-179 -76q-22 52 -70 52zM503 607h-140
l-65 72l-65 -72h-140l111 162h188z" />
    <glyph glyph-name="Cdotaccent" unicode="&#x10a;" horiz-adv-x="688" 
d="M482.5 496.5q-43.5 26.5 -84.5 26.5t-74.5 -21.5t-52 -59.5t-18.5 -86t18.5 -86.5t52 -60.5t74.5 -22q38 0 81.5 22.5t77.5 59.5l134 -143q-59 -65 -141.5 -103.5t-163.5 -38.5q-106 0 -190.5 47.5t-132.5 132t-48 189.5q0 104 49 186.5t135.5 129.5t195.5 47
q80 0 161 -35.5t135 -94.5l-134 -159q-31 43 -74.5 69.5zM476 948q32 -32 32 -82t-32 -82t-82 -32t-82 32t-32 82t32 82t82 32t82 -32z" />
    <glyph glyph-name="cdotaccent" unicode="&#x10b;" horiz-adv-x="561" 
d="M314 373q-33 0 -52.5 -27.5t-19.5 -73.5q0 -47 19.5 -74.5t52.5 -27.5q50 0 67 59l182 -84q-30 -73 -98.5 -113t-162.5 -40q-86 0 -151 34.5t-100.5 97.5t-35.5 147q0 85 35.5 149.5t101 99.5t152.5 35q89 0 157 -41.5t102 -116.5l-179 -76q-22 52 -70 52zM377 785
q32 -32 32 -82t-32 -82t-82 -32t-82 32t-32 82t32 82t82 32t82 -32z" />
    <glyph glyph-name="Ccaron" unicode="&#x10c;" horiz-adv-x="688" 
d="M482.5 496.5q-43.5 26.5 -84.5 26.5t-74.5 -21.5t-52 -59.5t-18.5 -86t18.5 -86.5t52 -60.5t74.5 -22q38 0 81.5 22.5t77.5 59.5l134 -143q-59 -65 -141.5 -103.5t-163.5 -38.5q-106 0 -190.5 47.5t-132.5 132t-48 189.5q0 104 49 186.5t135.5 129.5t195.5 47
q80 0 161 -35.5t135 -94.5l-134 -159q-31 43 -74.5 69.5zM459 914h140l-111 -162h-188l-111 162h140l65 -71z" />
    <glyph glyph-name="ccaron" unicode="&#x10d;" horiz-adv-x="561" 
d="M314 373q-33 0 -52.5 -27.5t-19.5 -73.5q0 -47 19.5 -74.5t52.5 -27.5q50 0 67 59l182 -84q-30 -73 -98.5 -113t-162.5 -40q-86 0 -151 34.5t-100.5 97.5t-35.5 147q0 85 35.5 149.5t101 99.5t152.5 35q89 0 157 -41.5t102 -116.5l-179 -76q-22 52 -70 52zM363 769h140
l-111 -162h-188l-111 162h140l65 -71z" />
    <glyph glyph-name="Dcaron" unicode="&#x10e;" horiz-adv-x="759" 
d="M564 658q86 -43 133 -122.5t47 -184.5q0 -106 -48 -185t-136.5 -122.5t-205.5 -43.5h-304v701h313q115 0 201 -43zM469.5 226q37.5 46 37.5 123q0 78 -40.5 125t-108.5 47h-76v-341h87q63 0 100.5 46zM417 914h140l-111 -162h-188l-111 162h140l65 -71z" />
    <glyph glyph-name="dcaron" unicode="&#x10f;" horiz-adv-x="828" 
d="M630 742v-742h-225v55q-54 -63 -139 -63q-75 0 -132 35t-88 99.5t-31 150.5q0 84 30 147t85.5 97t129.5 34q44 0 81 -16.5t64 -47.5v251h225zM383 194q22 29 22 77t-22 77t-59 29t-59.5 -29t-22.5 -77t22.5 -77t59.5 -29t59 29zM700 742h158l-30 -231h-128v231z" />
    <glyph glyph-name="Dcroat" unicode="&#x110;" horiz-adv-x="759" 
d="M564 658q86 -43 133 -122.5t47 -184.5q0 -106 -48 -185t-136.5 -122.5t-205.5 -43.5h-304v302h-62v98h62v301h313q115 0 201 -43zM469.5 226q37.5 46 37.5 123q0 78 -40.5 125t-108.5 47h-76v-121h133v-98h-133v-122h87q63 0 100.5 46z" />
    <glyph glyph-name="dcroat" unicode="&#x111;" horiz-adv-x="690" 
d="M690 567h-60v-568h-225v51q-55 -58 -139 -58q-75 0 -132 32.5t-88 92t-31 139.5q0 77 30 135t85.5 89.5t129.5 31.5q89 0 145 -59v114h-150v100h150v75h225v-75h60v-100zM383 188q22 23 22 62q0 38 -22 61t-59 23q-38 0 -60 -22.5t-22 -61.5t22 -62t60 -23q37 0 59 23z
" />
    <glyph glyph-name="Emacron" unicode="&#x112;" horiz-adv-x="690" 
d="M50 701h593v-176h-361v-86h328v-176h-328v-87h370v-176h-602v701zM158 880h380v-128h-380v128z" />
    <glyph glyph-name="emacron" unicode="&#x113;" horiz-adv-x="614" 
d="M463 518q66 -37 101 -105.5t35 -160.5q0 -19 -1 -29h-356q11 -32 34.5 -48.5t56.5 -16.5q59 0 111 49l117 -115q-44 -49 -106.5 -74.5t-141.5 -25.5q-92 0 -159.5 34.5t-103 97.5t-35.5 147q0 86 36 150t102.5 99t153.5 35q90 0 156 -37zM356.5 383q-18.5 22 -47.5 22
q-28 0 -46.5 -21t-25.5 -57h136q2 34 -16.5 56zM143 762h320v-128h-320v128z" />
    <glyph glyph-name="Ebreve" unicode="&#x114;" horiz-adv-x="690" 
d="M50 701h593v-176h-361v-86h328v-176h-328v-87h370v-176h-602v701zM314.5 889.5q13.5 -13.5 33.5 -13.5t33.5 13.5t15.5 36.5h135q-4 -79 -54 -126.5t-130 -47.5t-130 47.5t-54 126.5h135q2 -23 15.5 -36.5z" />
    <glyph glyph-name="ebreve" unicode="&#x115;" horiz-adv-x="614" 
d="M463 518q66 -37 101 -105.5t35 -160.5q0 -19 -1 -29h-356q11 -32 34.5 -48.5t56.5 -16.5q59 0 111 49l117 -115q-44 -49 -106.5 -74.5t-141.5 -25.5q-92 0 -159.5 34.5t-103 97.5t-35.5 147q0 86 36 150t102.5 99t153.5 35q90 0 156 -37zM356.5 383q-18.5 22 -47.5 22
q-28 0 -46.5 -21t-25.5 -57h136q2 34 -16.5 56zM269.5 732.5q13.5 -13.5 33.5 -13.5t33.5 13.5t15.5 36.5h135q-4 -79 -54 -126.5t-130 -47.5t-130 47.5t-54 126.5h135q2 -23 15.5 -36.5z" />
    <glyph glyph-name="Edotaccent" unicode="&#x116;" horiz-adv-x="690" 
d="M50 701h593v-176h-361v-86h328v-176h-328v-87h370v-176h-602v701zM430 948q32 -32 32 -82t-32 -82t-82 -32t-82 32t-32 82t32 82t82 32t82 -32z" />
    <glyph glyph-name="edotaccent" unicode="&#x117;" horiz-adv-x="614" 
d="M463 518q66 -37 101 -105.5t35 -160.5q0 -19 -1 -29h-356q11 -32 34.5 -48.5t56.5 -16.5q59 0 111 49l117 -115q-44 -49 -106.5 -74.5t-141.5 -25.5q-92 0 -159.5 34.5t-103 97.5t-35.5 147q0 86 36 150t102.5 99t153.5 35q90 0 156 -37zM356.5 383q-18.5 22 -47.5 22
q-28 0 -46.5 -21t-25.5 -57h136q2 34 -16.5 56zM382 785q32 -32 32 -82t-32 -82t-82 -32t-82 32t-32 82t32 82t82 32t82 -32z" />
    <glyph glyph-name="Eogonek" unicode="&#x118;" horiz-adv-x="690" 
d="M659 -219q-56 -25 -107 -25q-57 0 -86.5 33t-29.5 84q0 65 51 127h-437v701h593v-176h-361v-86h328v-176h-328v-87h370v-176q-69 -48 -69 -90q0 -26 20 -26q11 0 25 8z" />
    <glyph glyph-name="eogonek" unicode="&#x119;" horiz-adv-x="614" 
d="M463 518q66 -37 101 -105.5t35 -160.5q0 -19 -1 -29h-356q11 -32 34.5 -48.5t56.5 -16.5q59 0 111 49l117 -115q-9 -10 -29 -28q-41 -39 -65 -80t-24 -72q0 -28 19 -28q12 0 26 8l31 -111q-27 -12 -50.5 -18.5t-52.5 -6.5q-53 0 -86.5 28t-33.5 84q0 34 14 64.5t44 61.5
q-26 -2 -41 -2q-92 0 -159.5 34.5t-103 97.5t-35.5 147q0 86 36 150t102.5 99t153.5 35q90 0 156 -37zM356.5 383q-18.5 22 -47.5 22q-28 0 -46.5 -21t-25.5 -57h136q2 34 -16.5 56z" />
    <glyph glyph-name="Ecaron" unicode="&#x11a;" horiz-adv-x="690" 
d="M50 701h593v-176h-361v-86h328v-176h-328v-87h370v-176h-602v701zM413 914h140l-111 -162h-188l-111 162h140l65 -71z" />
    <glyph glyph-name="ecaron" unicode="&#x11b;" horiz-adv-x="614" 
d="M463 518q66 -37 101 -105.5t35 -160.5q0 -19 -1 -29h-356q11 -32 34.5 -48.5t56.5 -16.5q59 0 111 49l117 -115q-44 -49 -106.5 -74.5t-141.5 -25.5q-92 0 -159.5 34.5t-103 97.5t-35.5 147q0 86 36 150t102.5 99t153.5 35q90 0 156 -37zM356.5 383q-18.5 22 -47.5 22
q-28 0 -46.5 -21t-25.5 -57h136q2 34 -16.5 56zM368 769h140l-111 -162h-188l-111 162h140l65 -71z" />
    <glyph glyph-name="Gcircumflex" unicode="&#x11c;" horiz-adv-x="738" 
d="M503 369h199v-293q-59 -40 -145.5 -66t-161.5 -26q-109 0 -195.5 47.5t-135.5 131t-49 188.5q0 104 51 187.5t141 130.5t203 47q82 0 164.5 -30t138.5 -80l-131 -159q-35 35 -82.5 55.5t-90.5 20.5q-44 0 -80 -22.5t-56 -61.5t-20 -88q0 -50 20.5 -89.5t56.5 -62
t81 -22.5q38 0 92 24v168zM615 752h-140l-65 72l-65 -72h-140l111 162h188z" />
    <glyph glyph-name="gcircumflex" unicode="&#x11d;" horiz-adv-x="654" 
d="M601 547v-502q0 -75 -38.5 -131.5t-108 -87t-159.5 -30.5q-75 0 -143.5 20t-114.5 51l71 151q35 -22 81 -35t86 -13q49 0 75.5 18.5t26.5 50.5v52q-52 -58 -137 -58q-64 0 -115.5 32.5t-80.5 92.5t-29 139q0 77 28 135.5t78.5 90.5t114.5 32q88 0 141 -59v51h224z
M356 220q21 27 21 71q0 45 -20.5 72t-55.5 27t-55.5 -27t-20.5 -72q0 -44 21 -71t55 -27t55 27zM516 607h-140l-65 72l-65 -72h-140l111 162h188z" />
    <glyph glyph-name="Gbreve" unicode="&#x11e;" horiz-adv-x="738" 
d="M503 369h199v-293q-59 -40 -145.5 -66t-161.5 -26q-109 0 -195.5 47.5t-135.5 131t-49 188.5q0 104 51 187.5t141 130.5t203 47q82 0 164.5 -30t138.5 -80l-131 -159q-35 35 -82.5 55.5t-90.5 20.5q-44 0 -80 -22.5t-56 -61.5t-20 -88q0 -50 20.5 -89.5t56.5 -62
t81 -22.5q38 0 92 24v168zM376.5 889.5q13.5 -13.5 33.5 -13.5t33.5 13.5t15.5 36.5h135q-4 -79 -54 -126.5t-130 -47.5t-130 47.5t-54 126.5h135q2 -23 15.5 -36.5z" />
    <glyph glyph-name="gbreve" unicode="&#x11f;" horiz-adv-x="654" 
d="M601 547v-502q0 -75 -38.5 -131.5t-108 -87t-159.5 -30.5q-75 0 -143.5 20t-114.5 51l71 151q35 -22 81 -35t86 -13q49 0 75.5 18.5t26.5 50.5v52q-52 -58 -137 -58q-64 0 -115.5 32.5t-80.5 92.5t-29 139q0 77 28 135.5t78.5 90.5t114.5 32q88 0 141 -59v51h224z
M356 220q21 27 21 71q0 45 -20.5 72t-55.5 27t-55.5 -27t-20.5 -72q0 -44 21 -71t55 -27t55 27zM277.5 732.5q13.5 -13.5 33.5 -13.5t33.5 13.5t15.5 36.5h135q-4 -79 -54 -126.5t-130 -47.5t-130 47.5t-54 126.5h135q2 -23 15.5 -36.5z" />
    <glyph glyph-name="Gdotaccent" unicode="&#x120;" horiz-adv-x="738" 
d="M503 369h199v-293q-59 -40 -145.5 -66t-161.5 -26q-109 0 -195.5 47.5t-135.5 131t-49 188.5q0 104 51 187.5t141 130.5t203 47q82 0 164.5 -30t138.5 -80l-131 -159q-35 35 -82.5 55.5t-90.5 20.5q-44 0 -80 -22.5t-56 -61.5t-20 -88q0 -50 20.5 -89.5t56.5 -62
t81 -22.5q38 0 92 24v168zM492 948q32 -32 32 -82t-32 -82t-82 -32t-82 32t-32 82t32 82t82 32t82 -32z" />
    <glyph glyph-name="gdotaccent" unicode="&#x121;" horiz-adv-x="654" 
d="M601 547v-502q0 -75 -38.5 -131.5t-108 -87t-159.5 -30.5q-75 0 -143.5 20t-114.5 51l71 151q35 -22 81 -35t86 -13q49 0 75.5 18.5t26.5 50.5v52q-52 -58 -137 -58q-64 0 -115.5 32.5t-80.5 92.5t-29 139q0 77 28 135.5t78.5 90.5t114.5 32q88 0 141 -59v51h224z
M356 220q21 27 21 71q0 45 -20.5 72t-55.5 27t-55.5 -27t-20.5 -72q0 -44 21 -71t55 -27t55 27zM390 785q32 -32 32 -82t-32 -82t-82 -32t-82 32t-32 82t32 82t82 32t82 -32z" />
    <glyph glyph-name="Gcommaaccent" unicode="&#x122;" horiz-adv-x="738" 
d="M503 369h199v-293q-59 -40 -145.5 -66t-161.5 -26q-109 0 -195.5 47.5t-135.5 131t-49 188.5q0 104 51 187.5t141 130.5t203 47q82 0 164.5 -30t138.5 -80l-131 -159q-35 35 -82.5 55.5t-90.5 20.5q-44 0 -80 -22.5t-56 -61.5t-20 -88q0 -50 20.5 -89.5t56.5 -62
t81 -22.5q38 0 92 24v168zM306 -61h175l-86 -183h-120z" />
    <glyph glyph-name="gcommaaccent" unicode="&#x123;" horiz-adv-x="654" 
d="M601 547v-502q0 -75 -38.5 -131.5t-108 -87t-159.5 -30.5q-75 0 -143.5 20t-114.5 51l71 151q35 -22 81 -35t86 -13q49 0 75.5 18.5t26.5 50.5v52q-52 -58 -137 -58q-64 0 -115.5 32.5t-80.5 92.5t-29 139q0 77 28 135.5t78.5 90.5t114.5 32q88 0 141 -59v51h224z
M356 220q21 27 21 71q0 45 -20.5 72t-55.5 27t-55.5 -27t-20.5 -72q0 -44 21 -71t55 -27t55 27zM375 608h-175l86 183h120z" />
    <glyph glyph-name="Hcircumflex" unicode="&#x124;" horiz-adv-x="781" 
d="M50 701h232v-272h217v272h232v-701h-232v253h-217v-253h-232v701zM606 752h-140l-65 72l-65 -72h-140l111 162h188z" />
    <glyph glyph-name="hcircumflex" unicode="&#x125;" horiz-adv-x="687" 
d="M552.5 531q44.5 -26 69.5 -73t25 -109v-349h-225v284q0 34 -18 54.5t-47 20.5q-33 0 -52.5 -24t-19.5 -64v-271h-225v742h225v-273q28 43 70.5 65.5t95.5 22.5q57 0 101.5 -26zM371 802h-140l-65 72l-65 -72h-140l111 162h188z" />
    <glyph glyph-name="Hbar" unicode="&#x126;" horiz-adv-x="882" 
d="M871 611v-98h-91v-513h-232v253h-217v-253h-232v513h-93v98h93v90h232v-90h217v90h232v-90h91zM548 429v84h-217v-84h217z" />
    <glyph glyph-name="hbar" unicode="&#x127;" horiz-adv-x="687" 
d="M552.5 486q44.5 -26 69.5 -73t25 -109v-304h-225v239q0 34 -18 54.5t-47 20.5q-33 0 -52.5 -24t-19.5 -64v-226h-225v567h-60v100h60v75h225v-75h150v-100h-150v-143q28 43 70.5 65.5t95.5 22.5q57 0 101.5 -26z" />
    <glyph glyph-name="Itilde" unicode="&#x128;" horiz-adv-x="332" 
d="M50 701h232v-701h-232v701zM341.5 792q-25.5 -42 -81.5 -42q-25 0 -45.5 7t-46.5 20q-3 1 -17 7.5t-24 6.5q-14 0 -21 -9.5t-8 -29.5h-117q0 92 26 135t82 43q25 0 46 -7.5t46 -19.5q28 -14 40 -14q15 0 22 9t8 29h116q0 -93 -25.5 -135z" />
    <glyph glyph-name="itilde" unicode="&#x129;" horiz-adv-x="335" 
d="M55 547h225v-547h-225v547zM336 633q-25 -41 -79 -41q-23 0 -42 6.5t-41 18.5q-25 14 -36 14q-26 0 -27 -37h-117q0 93 25.5 135.5t78.5 42.5q23 0 41.5 -6.5t42.5 -17.5q26 -13 35 -13q14 0 20.5 7.5t7.5 26.5h116q0 -95 -25 -136z" />
    <glyph glyph-name="Imacron" unicode="&#x12a;" horiz-adv-x="332" 
d="M50 701h232v-701h-232v701zM6 880h320v-128h-320v128z" />
    <glyph glyph-name="imacron" unicode="&#x12b;" horiz-adv-x="335" 
d="M55 547h225v-547h-225v547zM18 762h300v-128h-300v128z" />
    <glyph glyph-name="Ibreve" unicode="&#x12c;" horiz-adv-x="332" 
d="M50 701h232v-701h-232v701zM132.5 889.5q13.5 -13.5 33.5 -13.5t33.5 13.5t15.5 36.5h135q-4 -79 -54 -126.5t-130 -47.5t-130 47.5t-54 126.5h135q2 -23 15.5 -36.5z" />
    <glyph glyph-name="ibreve" unicode="&#x12d;" horiz-adv-x="335" 
d="M55 547h225v-547h-225v547zM134.5 732.5q13.5 -13.5 33.5 -13.5t33.5 13.5t15.5 36.5h135q-4 -79 -54 -126.5t-130 -47.5t-130 47.5t-54 126.5h135q2 -23 15.5 -36.5z" />
    <glyph glyph-name="Iogonek" unicode="&#x12e;" horiz-adv-x="332" 
d="M145 -90q0 -26 20 -26q11 0 25 8l31 -111q-56 -25 -107 -25q-57 0 -86.5 33t-29.5 84q0 67 52 128v700h232v-701h-68q-69 -48 -69 -90z" />
    <glyph glyph-name="iogonek" unicode="&#x12f;" horiz-adv-x="335" 
d="M83 621q-32 32 -32 82t32 82t82 32t82 -32t32 -82t-32 -82t-82 -32t-82 32zM151 -90q0 -26 20 -26q11 0 25 8l31 -111q-56 -25 -107 -25q-57 0 -86.5 33t-29.5 84q0 65 51 127v547h225v-547h-60q-69 -48 -69 -90z" />
    <glyph glyph-name="Idotaccent" unicode="&#x130;" horiz-adv-x="332" 
d="M50 701h232v-701h-232v701zM248 948q32 -32 32 -82t-32 -82t-82 -32t-82 32t-32 82t32 82t82 32t82 -32z" />
    <glyph glyph-name="dotlessi" unicode="&#x131;" horiz-adv-x="335" 
d="M55 547h225v-547h-225v547z" />
    <glyph glyph-name="IJ" unicode="&#x132;" horiz-adv-x="911" 
d="M50 701h232v-701h-232v701zM790 55q-71 -65 -193 -65q-162 0 -273 122l105 150q39 -39 78.5 -59t67.5 -20q25 0 39 15t14 44v276h-238v183h471v-464q0 -117 -71 -182z" />
    <glyph glyph-name="ij" unicode="&#x133;" horiz-adv-x="673" 
d="M55 547h225v-547h-225v547zM247 785q32 -32 32 -82t-32 -82t-82 -32t-82 32t-32 82t32 82t82 32t82 -32zM351 -29q21 -1 32.5 11t11.5 35v530h225v-564q0 -85 -58 -135.5t-156 -50.5q-76 0 -136 23l43 157q24 -6 38 -6zM585 785q32 -32 32 -82t-32 -82t-82 -32t-82 32
t-32 82t32 82t82 32t82 -32z" />
    <glyph glyph-name="Jcircumflex" unicode="&#x134;" horiz-adv-x="569" 
d="M458 55q-71 -65 -193 -65q-162 0 -273 122l105 150q39 -39 78.5 -59t67.5 -20q25 0 39 15t14 44v276h-238v183h471v-464q0 -117 -71 -182zM496 752h-140l-65 72l-65 -72h-140l111 162h188z" />
    <glyph glyph-name="jcircumflex" unicode="&#x135;" horiz-adv-x="340" 
d="M16 -29q21 -1 32.5 11t11.5 35v530h225v-564q0 -85 -58 -135.5t-156 -50.5q-76 0 -136 23l43 157q24 -6 38 -6zM376 607h-140l-65 72l-65 -72h-140l111 162h188z" />
    <glyph glyph-name="Kcommaaccent" unicode="&#x136;" horiz-adv-x="773" 
d="M773 0h-277l-148 244l-66 -74v-170h-232v701h232v-256l209 256h267l-251 -280zM283 -61h175l-86 -183h-120z" />
    <glyph glyph-name="kcommaaccent" unicode="&#x137;" horiz-adv-x="662" 
d="M666 547l-199 -211l196 -336h-267l-84 172l-27 -28v-144h-225v742h225v-337l127 142h254zM243 -61h175l-86 -183h-120z" />
    <glyph glyph-name="kgreenlandic" unicode="&#x138;" horiz-adv-x="655" 
d="M659 547l-199 -211l196 -336h-267l-84 172l-25 -26v-146h-225v547h225v-154l125 154h254z" />
    <glyph glyph-name="Lacute" unicode="&#x139;" horiz-adv-x="584" 
d="M50 701h232v-508h292v-193h-524v701zM182 934l169 -60l-162 -129l-142 10z" />
    <glyph glyph-name="lacute" unicode="&#x13a;" horiz-adv-x="345" 
d="M60 742h225v-742h-225v742zM196 975l169 -60l-162 -129l-142 10z" />
    <glyph glyph-name="Lcommaaccent" unicode="&#x13b;" horiz-adv-x="584" 
d="M50 701h232v-508h292v-193h-524v701zM222 -61h175l-86 -183h-120z" />
    <glyph glyph-name="lcommaaccent" unicode="&#x13c;" horiz-adv-x="345" 
d="M60 742h225v-742h-225v742zM83 -61h175l-86 -183h-120z" />
    <glyph glyph-name="Lcaron" unicode="&#x13d;" horiz-adv-x="584" 
d="M50 701h232v-508h292v-193h-524v701zM416 701h158l-30 -231h-128v231z" />
    <glyph glyph-name="lcaron" unicode="&#x13e;" horiz-adv-x="483" 
d="M60 742h225v-742h-225v742zM355 742h158l-30 -231h-128v231z" />
    <glyph glyph-name="Ldot" unicode="&#x13f;" horiz-adv-x="584" 
d="M50 701h232v-508h292v-193h-524v701zM529 524q32 -32 32 -82t-32 -82t-82 -32t-82 32t-32 82t32 82t82 32t82 -32z" />
    <glyph glyph-name="ldot" unicode="&#x140;" horiz-adv-x="537" 
d="M60 742h225v-742h-225v742zM510 482q32 -32 32 -82t-32 -82t-82 -32t-82 32t-32 82t32 82t82 32t82 -32z" />
    <glyph glyph-name="Lslash" unicode="&#x141;" horiz-adv-x="639" 
d="M337 193h292v-193h-524v290l-90 -46v118l90 46v293h232v-176l103 52v-118l-103 -52v-214z" />
    <glyph glyph-name="lslash" unicode="&#x142;" horiz-adv-x="448" 
d="M433 567v-118l-100 -51v-398h-225v285l-100 -51v118l100 51v339h225v-226z" />
    <glyph glyph-name="Nacute" unicode="&#x143;" horiz-adv-x="781" 
d="M521 701h210v-701h-194l-276 358v-358h-211v701h194l277 -360v360zM414 934l169 -60l-162 -129l-142 10z" />
    <glyph glyph-name="nacute" unicode="&#x144;" horiz-adv-x="682" 
d="M547.5 531q44.5 -26 69.5 -73t25 -109v-349h-225v284q0 34 -18 54.5t-47 20.5q-33 0 -52.5 -24t-19.5 -64v-271h-225v547h225v-78q28 43 70.5 65.5t95.5 22.5q57 0 101.5 -26zM383 780l169 -60l-162 -129l-142 10z" />
    <glyph glyph-name="Ncommaaccent" unicode="&#x145;" horiz-adv-x="781" 
d="M521 701h210v-701h-194l-276 358v-358h-211v701h194l277 -360v360zM309 -61h175l-86 -183h-120z" />
    <glyph glyph-name="ncommaaccent" unicode="&#x146;" horiz-adv-x="682" 
d="M547.5 531q44.5 -26 69.5 -73t25 -109v-349h-225v284q0 34 -18 54.5t-47 20.5q-33 0 -52.5 -24t-19.5 -64v-271h-225v547h225v-78q28 43 70.5 65.5t95.5 22.5q57 0 101.5 -26zM257 -61h175l-86 -183h-120z" />
    <glyph glyph-name="Ncaron" unicode="&#x147;" horiz-adv-x="781" 
d="M521 701h210v-701h-194l-276 358v-358h-211v701h194l277 -360v360zM456 914h140l-111 -162h-188l-111 162h140l65 -71z" />
    <glyph glyph-name="ncaron" unicode="&#x148;" horiz-adv-x="682" 
d="M547.5 531q44.5 -26 69.5 -73t25 -109v-349h-225v284q0 34 -18 54.5t-47 20.5q-33 0 -52.5 -24t-19.5 -64v-271h-225v547h225v-78q28 43 70.5 65.5t95.5 22.5q57 0 101.5 -26zM425 769h140l-111 -162h-188l-111 162h140l65 -71z" />
    <glyph glyph-name="napostrophe" unicode="&#x149;" horiz-adv-x="859" 
d="M50 701h145l-30 -264h-115v264zM724.5 531q44.5 -26 69.5 -73t25 -109v-349h-225v284q0 34 -18 54.5t-47 20.5q-33 0 -52.5 -24t-19.5 -64v-271h-225v547h225v-78q28 43 70.5 65.5t95.5 22.5q57 0 101.5 -26z" />
    <glyph glyph-name="Eng" unicode="&#x14a;" horiz-adv-x="781" 
d="M731 701v-701q-7 -106 -77.5 -165.5t-186.5 -59.5q-92 0 -169 40l75 175q57 -22 94 -22q51 0 57 49l-263 341v-358h-211v701h194l277 -360v360h210z" />
    <glyph glyph-name="eng" unicode="&#x14b;" horiz-adv-x="682" 
d="M547.5 531q44.5 -26 69.5 -73t25 -109v-372q0 -81 -58.5 -130.5t-155.5 -49.5q-92 0 -160 34l50 154q30 -14 55 -14q21 -1 32.5 11t11.5 35v267q0 34 -18 54.5t-47 20.5q-33 0 -52.5 -24t-19.5 -64v-271h-225v547h225v-78q28 43 70.5 65.5t95.5 22.5q57 0 101.5 -26z" />
    <glyph glyph-name="Omacron" unicode="&#x14c;" horiz-adv-x="800" 
d="M598 669q88 -47 137.5 -130t49.5 -187q0 -105 -49.5 -189t-137.5 -131.5t-198 -47.5t-198 47.5t-137.5 131.5t-49.5 189t49.5 188t137.5 129.5t198 46.5t198 -47zM328.5 500.5q-34.5 -22.5 -55 -61.5t-20.5 -88t20.5 -88.5t55 -62.5t74.5 -23t73 22.5t52 62.5t19 89
t-19 88.5t-52 61.5t-73 22t-74.5 -22.5zM210 880h380v-128h-380v128z" />
    <glyph glyph-name="omacron" unicode="&#x14d;" horiz-adv-x="648" 
d="M487 520.5q70 -34.5 108 -98t38 -148.5t-38 -148.5t-108 -98.5t-163 -35t-163 35t-108 98.5t-38 148.5t38 148.5t108 98t163 34.5t163 -34.5zM264.5 348q-22.5 -29 -22.5 -77t22.5 -77t59.5 -29t59.5 29t22.5 77t-22.5 77t-59.5 29t-59.5 -29zM164 762h320v-128h-320v128
z" />
    <glyph glyph-name="Obreve" unicode="&#x14e;" horiz-adv-x="800" 
d="M598 669q88 -47 137.5 -130t49.5 -187q0 -105 -49.5 -189t-137.5 -131.5t-198 -47.5t-198 47.5t-137.5 131.5t-49.5 189t49.5 188t137.5 129.5t198 46.5t198 -47zM328.5 500.5q-34.5 -22.5 -55 -61.5t-20.5 -88t20.5 -88.5t55 -62.5t74.5 -23t73 22.5t52 62.5t19 89
t-19 88.5t-52 61.5t-73 22t-74.5 -22.5zM366.5 889.5q13.5 -13.5 33.5 -13.5t33.5 13.5t15.5 36.5h135q-4 -79 -54 -126.5t-130 -47.5t-130 47.5t-54 126.5h135q2 -23 15.5 -36.5z" />
    <glyph glyph-name="obreve" unicode="&#x14f;" horiz-adv-x="648" 
d="M487 520.5q70 -34.5 108 -98t38 -148.5t-38 -148.5t-108 -98.5t-163 -35t-163 35t-108 98.5t-38 148.5t38 148.5t108 98t163 34.5t163 -34.5zM264.5 348q-22.5 -29 -22.5 -77t22.5 -77t59.5 -29t59.5 29t22.5 77t-22.5 77t-59.5 29t-59.5 -29zM290.5 732.5
q13.5 -13.5 33.5 -13.5t33.5 13.5t15.5 36.5h135q-4 -79 -54 -126.5t-130 -47.5t-130 47.5t-54 126.5h135q2 -23 15.5 -36.5z" />
    <glyph glyph-name="Ohungarumlaut" unicode="&#x150;" horiz-adv-x="800" 
d="M598 669q88 -47 137.5 -130t49.5 -187q0 -105 -49.5 -189t-137.5 -131.5t-198 -47.5t-198 47.5t-137.5 131.5t-49.5 189t49.5 188t137.5 129.5t198 46.5t198 -47zM328.5 500.5q-34.5 -22.5 -55 -61.5t-20.5 -88t20.5 -88.5t55 -62.5t74.5 -23t73 22.5t52 62.5t19 89
t-19 88.5t-52 61.5t-73 22t-74.5 -22.5zM284 934l162 -53l-89 -136l-156 10zM505 934l162 -53l-89 -136l-156 10z" />
    <glyph glyph-name="ohungarumlaut" unicode="&#x151;" horiz-adv-x="648" 
d="M487 520.5q70 -34.5 108 -98t38 -148.5t-38 -148.5t-108 -98.5t-163 -35t-163 35t-108 98.5t-38 148.5t38 148.5t108 98t163 34.5t163 -34.5zM264.5 348q-22.5 -29 -22.5 -77t22.5 -77t59.5 -29t59.5 29t22.5 77t-22.5 77t-59.5 29t-59.5 -29zM208 780l162 -53l-89 -136
l-156 10zM429 780l162 -53l-89 -136l-156 10z" />
    <glyph glyph-name="OE" unicode="&#x152;" horiz-adv-x="1127" 
d="M1089 176v-176h-690q-109 0 -196.5 45t-137.5 124.5t-50 179.5t49.5 180.5t137 126t197.5 45.5h681v-176h-361v-86h328v-176h-328v-87h370zM487 184v330h-88q-42 0 -75 -21.5t-52 -59.5t-19 -85t19 -84.5t52 -59t75 -21.5z" />
    <glyph glyph-name="oe" unicode="&#x153;" horiz-adv-x="999" 
d="M847 518q66 -37 101.5 -105.5t35.5 -160.5q0 -19 -1 -29h-360q12 -32 36 -48.5t57 -16.5q59 0 113 49l117 -115q-92 -100 -250 -100q-119 0 -184 71q-69 -71 -188 -71q-93 0 -163 35t-108 98.5t-38 148.5t38 148.5t108 98t163 34.5q122 0 189 -72q64 72 177 72
q91 0 157 -37zM741 383q-19 22 -49 22q-29 0 -48 -21t-26 -57h140q2 34 -17 56zM383.5 194q22.5 29 22.5 77t-22.5 77t-59.5 29t-59.5 -29t-22.5 -77t22.5 -77t59.5 -29t59.5 29z" />
    <glyph glyph-name="Racute" unicode="&#x154;" horiz-adv-x="725" 
d="M453 0l-84 182h-87v-182h-232v701h339q143 0 221 -65.5t78 -185.5q0 -76 -28.5 -132.5t-82.5 -89.5l138 -228h-262zM282 358h107q38 0 58.5 22.5t20.5 62.5q0 39 -20.5 60.5t-58.5 21.5h-107v-167zM385 934l169 -60l-162 -129l-142 10z" />
    <glyph glyph-name="racute" unicode="&#x155;" horiz-adv-x="457" 
d="M351.5 533.5q42.5 23.5 95.5 23.5v-203q-22 3 -43 3q-58 0 -91 -25.5t-33 -70.5v-261h-225v547h225v-80q29 43 71.5 66.5zM268 780l169 -60l-162 -129l-142 10z" />
    <glyph glyph-name="Rcommaaccent" unicode="&#x156;" horiz-adv-x="725" 
d="M453 0l-84 182h-87v-182h-232v701h339q143 0 221 -65.5t78 -185.5q0 -76 -28.5 -132.5t-82.5 -89.5l138 -228h-262zM282 358h107q38 0 58.5 22.5t20.5 62.5q0 39 -20.5 60.5t-58.5 21.5h-107v-167zM269 -61h175l-86 -183h-120z" />
    <glyph glyph-name="rcommaaccent" unicode="&#x157;" horiz-adv-x="457" 
d="M351.5 533.5q42.5 23.5 95.5 23.5v-203q-22 3 -43 3q-58 0 -91 -25.5t-33 -70.5v-261h-225v547h225v-80q29 43 71.5 66.5zM78 -61h175l-86 -183h-120z" />
    <glyph glyph-name="Rcaron" unicode="&#x158;" horiz-adv-x="725" 
d="M453 0l-84 182h-87v-182h-232v701h339q143 0 221 -65.5t78 -185.5q0 -76 -28.5 -132.5t-82.5 -89.5l138 -228h-262zM282 358h107q38 0 58.5 22.5t20.5 62.5q0 39 -20.5 60.5t-58.5 21.5h-107v-167zM427 914h140l-111 -162h-188l-111 162h140l65 -71z" />
    <glyph glyph-name="rcaron" unicode="&#x159;" horiz-adv-x="457" 
d="M351.5 533.5q42.5 23.5 95.5 23.5v-203q-22 3 -43 3q-58 0 -91 -25.5t-33 -70.5v-261h-225v547h225v-80q29 43 71.5 66.5zM310 769h140l-111 -162h-188l-111 162h140l65 -71z" />
    <glyph glyph-name="Sacute" unicode="&#x15a;" horiz-adv-x="664" 
d="M448 516q-70 25 -114 25q-43 0 -43 -31q0 -24 27.5 -37t87.5 -29q75 -21 124.5 -42t86.5 -66.5t37 -119.5q0 -76 -39.5 -127.5t-106.5 -76.5t-149 -25q-93 0 -187.5 30.5t-163.5 83.5l86 175q53 -46 133 -78.5t134 -32.5q26 0 41 9.5t15 29.5q0 24 -28.5 37.5t-89.5 28.5
q-74 19 -123.5 39.5t-85.5 63.5t-36 115q0 70 37 122.5t105 80.5t158 28q82 0 163.5 -23t141.5 -61l-84 -177q-57 33 -127 58zM382 934l169 -60l-162 -129l-142 10z" />
    <glyph glyph-name="sacute" unicode="&#x15b;" horiz-adv-x="552" 
d="M274 409q-14 0 -22.5 -5t-8.5 -13q0 -12 18 -20t60 -19q59 -16 101 -33t73.5 -52t31.5 -91t-30.5 -98t-86.5 -65t-131 -23q-153 0 -267 78l68 140q110 -68 202 -68q16 0 25 4.5t9 11.5q0 11 -17.5 18.5t-56.5 17.5q-59 15 -100 32t-72.5 52t-31.5 92t30 99.5t84.5 66
t126.5 23.5q131 0 254 -69l-74 -139q-122 60 -185 60zM312 780l169 -60l-162 -129l-142 10z" />
    <glyph glyph-name="Scircumflex" unicode="&#x15c;" horiz-adv-x="664" 
d="M448 516q-70 25 -114 25q-43 0 -43 -31q0 -24 27.5 -37t87.5 -29q75 -21 124.5 -42t86.5 -66.5t37 -119.5q0 -76 -39.5 -127.5t-106.5 -76.5t-149 -25q-93 0 -187.5 30.5t-163.5 83.5l86 175q53 -46 133 -78.5t134 -32.5q26 0 41 9.5t15 29.5q0 24 -28.5 37.5t-89.5 28.5
q-74 19 -123.5 39.5t-85.5 63.5t-36 115q0 70 37 122.5t105 80.5t158 28q82 0 163.5 -23t141.5 -61l-84 -177q-57 33 -127 58zM564 752h-140l-65 72l-65 -72h-140l111 162h188z" />
    <glyph glyph-name="scircumflex" unicode="&#x15d;" horiz-adv-x="552" 
d="M274 409q-14 0 -22.5 -5t-8.5 -13q0 -12 18 -20t60 -19q59 -16 101 -33t73.5 -52t31.5 -91t-30.5 -98t-86.5 -65t-131 -23q-153 0 -267 78l68 140q110 -68 202 -68q16 0 25 4.5t9 11.5q0 11 -17.5 18.5t-56.5 17.5q-59 15 -100 32t-72.5 52t-31.5 92t30 99.5t84.5 66
t126.5 23.5q131 0 254 -69l-74 -139q-122 60 -185 60zM494 607h-140l-65 72l-65 -72h-140l111 162h188z" />
    <glyph glyph-name="Scedilla" unicode="&#x15e;" horiz-adv-x="664" 
d="M318.5 473q27.5 -13 87.5 -29q75 -21 124.5 -42t86.5 -66.5t37 -119.5q0 -101 -69.5 -159t-179.5 -68l-18 -48q83 -22 83 -83q0 -52 -40 -77t-97 -25q-62 0 -119 19l30 90q20 -7 45 -7q18 0 29 5t11 14q0 12 -16.5 17.5t-40.5 5.5h-17l30 92q-77 10 -149.5 38t-127.5 71
l86 175q53 -46 133 -78.5t134 -32.5q26 0 41 9.5t15 29.5q0 24 -28.5 37.5t-89.5 28.5q-74 19 -123.5 39.5t-85.5 63.5t-36 115q0 70 37 122.5t105 80.5t158 28q82 0 163.5 -23t141.5 -61l-84 -177q-57 33 -127 58t-114 25q-43 0 -43 -31q0 -24 27.5 -37z" />
    <glyph glyph-name="scedilla" unicode="&#x15f;" horiz-adv-x="552" 
d="M261 371q18 -8 60 -19q59 -16 101 -33t73.5 -52t31.5 -91q0 -73 -51 -121.5t-139 -60.5l-20 -53q83 -22 83 -83q0 -52 -40 -77t-97 -25q-62 0 -119 19l30 90q20 -7 45 -7q18 0 29 5t11 14q0 12 -16.5 17.5t-40.5 5.5h-17l31 94q-113 12 -204 74l68 140q110 -68 202 -68
q16 0 25 4.5t9 11.5q0 11 -17.5 18.5t-56.5 17.5q-59 15 -100 32t-72.5 52t-31.5 92t30 99.5t84.5 66t126.5 23.5q131 0 254 -69l-74 -139q-122 60 -185 60q-14 0 -22.5 -5t-8.5 -13q0 -12 18 -20z" />
    <glyph glyph-name="Scaron" unicode="&#x160;" horiz-adv-x="664" 
d="M448 516q-70 25 -114 25q-43 0 -43 -31q0 -24 27.5 -37t87.5 -29q75 -21 124.5 -42t86.5 -66.5t37 -119.5q0 -76 -39.5 -127.5t-106.5 -76.5t-149 -25q-93 0 -187.5 30.5t-163.5 83.5l86 175q53 -46 133 -78.5t134 -32.5q26 0 41 9.5t15 29.5q0 24 -28.5 37.5t-89.5 28.5
q-74 19 -123.5 39.5t-85.5 63.5t-36 115q0 70 37 122.5t105 80.5t158 28q82 0 163.5 -23t141.5 -61l-84 -177q-57 33 -127 58zM424 914h140l-111 -162h-188l-111 162h140l65 -71z" />
    <glyph glyph-name="scaron" unicode="&#x161;" horiz-adv-x="552" 
d="M274 409q-14 0 -22.5 -5t-8.5 -13q0 -12 18 -20t60 -19q59 -16 101 -33t73.5 -52t31.5 -91t-30.5 -98t-86.5 -65t-131 -23q-153 0 -267 78l68 140q110 -68 202 -68q16 0 25 4.5t9 11.5q0 11 -17.5 18.5t-56.5 17.5q-59 15 -100 32t-72.5 52t-31.5 92t30 99.5t84.5 66
t126.5 23.5q131 0 254 -69l-74 -139q-122 60 -185 60zM354 769h140l-111 -162h-188l-111 162h140l65 -71z" />
    <glyph glyph-name="uni0162" unicode="&#x162;" horiz-adv-x="641" 
d="M384 0l-22 -59q83 -22 83 -83q0 -52 -40 -77t-97 -25q-62 0 -119 19l30 90q20 -7 45 -7q18 0 29 5t11 14q0 12 -16.5 17.5t-40.5 5.5h-17l33 100h-59v518h-199v183h631v-183h-200v-518h-52z" />
    <glyph glyph-name="uni0163" unicode="&#x163;" horiz-adv-x="460" 
d="M407 -142q0 -52 -40 -77t-97 -25q-62 0 -119 19l30 90q20 -7 45 -7q18 0 29 5t11 14q0 12 -16.5 17.5t-40.5 5.5h-17l32 97q-66 16 -103.5 63t-37.5 116v199h-75v142h75v153h224v-153h128v-142h-128v-165q0 -22 12 -34.5t32 -11.5q19 0 56 14l38 -154q-39 -22 -101 -30
l-20 -53q83 -22 83 -83z" />
    <glyph glyph-name="Tcaron" unicode="&#x164;" horiz-adv-x="641" 
d="M5 701h631v-183h-200v-518h-232v518h-199v183zM402 914h140l-111 -162h-188l-111 162h140l65 -71z" />
    <glyph glyph-name="tcaron" unicode="&#x165;" horiz-adv-x="460" 
d="M445 24q-27 -16 -70.5 -25t-88.5 -9q-92 0 -147.5 50.5t-55.5 135.5v199h-75v142h75v153h224v-153h128v-142h-128v-165q0 -22 12 -34.5t32 -11.5q19 0 56 14zM357 742h148l-20 -181h-128v181z" />
    <glyph glyph-name="Tbar" unicode="&#x166;" horiz-adv-x="641" 
d="M636 518h-200v-159h111v-119h-111v-240h-232v240h-112v119h112v159h-199v183h631v-183z" />
    <glyph glyph-name="tbar" unicode="&#x167;" horiz-adv-x="460" 
d="M445 24q-27 -16 -70.5 -25t-88.5 -9q-92 0 -147.5 50.5t-55.5 135.5v56h-75v117h75v51h-75v117h75v153h224v-153h128v-117h-128v-51h128v-117h-128v-22q0 -22 12 -34.5t32 -11.5q19 0 56 14z" />
    <glyph glyph-name="Utilde" unicode="&#x168;" horiz-adv-x="741" 
d="M302 209q30 -32 72 -32q41 0 68 31.5t27 82.5v410h232v-410q0 -92 -40.5 -161.5t-114.5 -107.5t-173 -38t-174.5 38t-117 107.5t-41.5 161.5v410h232v-410q0 -50 30 -82zM546.5 792q-25.5 -42 -81.5 -42q-25 0 -45.5 7t-46.5 20q-3 1 -17 7.5t-24 6.5q-14 0 -21 -9.5
t-8 -29.5h-117q0 92 26 135t82 43q25 0 46 -7.5t46 -19.5q28 -14 40 -14q15 0 22 9t8 29h116q0 -93 -25.5 -135z" />
    <glyph glyph-name="utilde" unicode="&#x169;" horiz-adv-x="672" 
d="M617 547v-547h-225v76q-27 -42 -68 -64t-93 -22q-56 0 -99 26t-67.5 73t-24.5 109v349h225v-284q0 -34 16.5 -54.5t43.5 -20.5q31 0 49 24t18 64v271h225zM511.5 636q-25.5 -42 -81.5 -42q-25 0 -45.5 7t-46.5 20q-3 1 -17 7.5t-24 6.5q-14 0 -21 -9.5t-8 -29.5h-117
q0 92 26 135t82 43q25 0 46 -7.5t46 -19.5q28 -14 40 -14q15 0 22 9t8 29h116q0 -93 -25.5 -135z" />
    <glyph glyph-name="Umacron" unicode="&#x16a;" horiz-adv-x="741" 
d="M302 209q30 -32 72 -32q41 0 68 31.5t27 82.5v410h232v-410q0 -92 -40.5 -161.5t-114.5 -107.5t-173 -38t-174.5 38t-117 107.5t-41.5 161.5v410h232v-410q0 -50 30 -82zM181 880h380v-128h-380v128z" />
    <glyph glyph-name="umacron" unicode="&#x16b;" horiz-adv-x="672" 
d="M617 547v-547h-225v76q-27 -42 -68 -64t-93 -22q-56 0 -99 26t-67.5 73t-24.5 109v349h225v-284q0 -34 16.5 -54.5t43.5 -20.5q31 0 49 24t18 64v271h225zM176 762h320v-128h-320v128z" />
    <glyph glyph-name="Ubreve" unicode="&#x16c;" horiz-adv-x="741" 
d="M302 209q30 -32 72 -32q41 0 68 31.5t27 82.5v410h232v-410q0 -92 -40.5 -161.5t-114.5 -107.5t-173 -38t-174.5 38t-117 107.5t-41.5 161.5v410h232v-410q0 -50 30 -82zM337.5 889.5q13.5 -13.5 33.5 -13.5t33.5 13.5t15.5 36.5h135q-4 -79 -54 -126.5t-130 -47.5
t-130 47.5t-54 126.5h135q2 -23 15.5 -36.5z" />
    <glyph glyph-name="ubreve" unicode="&#x16d;" horiz-adv-x="672" 
d="M617 547v-547h-225v76q-27 -42 -68 -64t-93 -22q-56 0 -99 26t-67.5 73t-24.5 109v349h225v-284q0 -34 16.5 -54.5t43.5 -20.5q31 0 49 24t18 64v271h225zM302.5 732.5q13.5 -13.5 33.5 -13.5t33.5 13.5t15.5 36.5h135q-4 -79 -54 -126.5t-130 -47.5t-130 47.5t-54 126.5
h135q2 -23 15.5 -36.5z" />
    <glyph glyph-name="Uring" unicode="&#x16e;" horiz-adv-x="741" 
d="M302 209q30 -32 72 -32q41 0 68 31.5t27 82.5v410h232v-410q0 -92 -40.5 -161.5t-114.5 -107.5t-173 -38t-174.5 38t-117 107.5t-41.5 161.5v410h232v-410q0 -50 30 -82zM459 945q36 -36 36 -88t-36 -88t-88 -36t-88 36t-36 88t36 88t88 36t88 -36zM343 885
q-11 -11 -11 -28q0 -16 11 -27.5t28 -11.5q16 0 27.5 11.5t11.5 27.5q0 17 -11.5 28t-27.5 11q-17 0 -28 -11z" />
    <glyph glyph-name="uring" unicode="&#x16f;" horiz-adv-x="672" 
d="M617 547v-547h-225v76q-27 -42 -68 -64t-93 -22q-56 0 -99 26t-67.5 73t-24.5 109v349h225v-284q0 -34 16.5 -54.5t43.5 -20.5q31 0 49 24t18 64v271h225zM424 791q36 -36 36 -88t-36 -88t-88 -36t-88 36t-36 88t36 88t88 36t88 -36zM308 731q-11 -11 -11 -28
q0 -16 11 -27.5t28 -11.5q16 0 27.5 11.5t11.5 27.5q0 17 -11.5 28t-27.5 11q-17 0 -28 -11z" />
    <glyph glyph-name="Uhungarumlaut" unicode="&#x170;" horiz-adv-x="741" 
d="M302 209q30 -32 72 -32q41 0 68 31.5t27 82.5v410h232v-410q0 -92 -40.5 -161.5t-114.5 -107.5t-173 -38t-174.5 38t-117 107.5t-41.5 161.5v410h232v-410q0 -50 30 -82zM255 934l162 -53l-89 -136l-156 10zM476 934l162 -53l-89 -136l-156 10z" />
    <glyph glyph-name="uhungarumlaut" unicode="&#x171;" horiz-adv-x="672" 
d="M617 547v-547h-225v76q-27 -42 -68 -64t-93 -22q-56 0 -99 26t-67.5 73t-24.5 109v349h225v-284q0 -34 16.5 -54.5t43.5 -20.5q31 0 49 24t18 64v271h225zM220 780l162 -53l-89 -136l-156 10zM441 780l162 -53l-89 -136l-156 10z" />
    <glyph glyph-name="Uogonek" unicode="&#x172;" horiz-adv-x="741" 
d="M701 701v-410q0 -75 -27.5 -136t-78.5 -102q-36 -36 -57 -74t-21 -67q0 -28 19 -28q12 0 26 8l31 -111q-27 -12 -50.5 -18.5t-52.5 -6.5q-53 0 -86.5 28t-33.5 84q0 61 51 118q-30 -2 -48 -2q-99 0 -174.5 38t-117 107.5t-41.5 161.5v410h232v-410q0 -50 30 -82t72 -32
q41 0 68 31.5t27 82.5v410h232z" />
    <glyph glyph-name="uogonek" unicode="&#x173;" horiz-adv-x="672" 
d="M486 -90q0 -26 20 -26q11 0 25 8l31 -111q-56 -25 -107 -25q-57 0 -86.5 33t-29.5 84q0 65 53 130v73q-27 -42 -68 -64t-93 -22q-56 0 -99 26t-67.5 73t-24.5 109v349h225v-284q0 -34 16.5 -54.5t43.5 -20.5q31 0 49 24t18 64v271h225v-547h-62q-69 -48 -69 -90z" />
    <glyph glyph-name="Wcircumflex" unicode="&#x174;" horiz-adv-x="1151" 
d="M919 701h237l-237 -701h-238l-105 419l-108 -419h-238l-235 701h248l113 -460l112 460h226l114 -460zM781 752h-140l-65 72l-65 -72h-140l111 162h188z" />
    <glyph glyph-name="wcircumflex" unicode="&#x175;" horiz-adv-x="977" 
d="M-10 547h228l87 -326l84 326h208l87 -326l86 326h217l-200 -547h-220l-78 288l-81 -288h-220zM694 607h-140l-65 72l-65 -72h-140l111 162h188z" />
    <glyph glyph-name="Ycircumflex" unicode="&#x176;" horiz-adv-x="719" 
d="M729 701l-251 -483v-218h-232v213l-256 488h231l141 -270l136 270h231zM565 752h-140l-65 72l-65 -72h-140l111 162h188z" />
    <glyph glyph-name="ycircumflex" unicode="&#x177;" horiz-adv-x="624" 
d="M316 -163.5q-59 -40.5 -147 -40.5q-54 0 -99.5 15.5t-89.5 48.5l94 148q35 -32 73 -32t54 28l8 13l-227 530h231l108 -312l89 312h224l-225 -585q-34 -85 -93 -125.5zM517 607h-140l-65 72l-65 -72h-140l111 162h188z" />
    <glyph glyph-name="Ydieresis" unicode="&#x178;" horiz-adv-x="719" 
d="M729 701l-251 -483v-218h-232v213l-256 488h231l141 -270l136 270h231zM322.5 904q24.5 -25 24.5 -64q0 -38 -24.5 -63t-63.5 -25t-63.5 25t-24.5 63q0 39 24.5 64t63.5 25t63.5 -25zM524.5 904q24.5 -25 24.5 -64q0 -38 -24.5 -63t-63.5 -25t-63.5 25t-24.5 63
q0 39 24.5 64t63.5 25t63.5 -25z" />
    <glyph glyph-name="Zacute" unicode="&#x179;" horiz-adv-x="683" 
d="M32 701h624v-145l-327 -378h334v-178h-643v145l327 378h-315v178zM367 934l169 -60l-162 -129l-142 10z" />
    <glyph glyph-name="zacute" unicode="&#x17a;" horiz-adv-x="568" 
d="M35 547h502v-131l-228 -248h238v-168h-522v131l228 248h-218v168zM307 780l169 -60l-162 -129l-142 10z" />
    <glyph glyph-name="Zdotaccent" unicode="&#x17b;" horiz-adv-x="683" 
d="M32 701h624v-145l-327 -378h334v-178h-643v145l327 378h-315v178zM426 948q32 -32 32 -82t-32 -82t-82 -32t-82 32t-32 82t32 82t82 32t82 -32z" />
    <glyph glyph-name="zdotaccent" unicode="&#x17c;" horiz-adv-x="568" 
d="M35 547h502v-131l-228 -248h238v-168h-522v131l228 248h-218v168zM363 785q32 -32 32 -82t-32 -82t-82 -32t-82 32t-32 82t32 82t82 32t82 -32z" />
    <glyph glyph-name="Zcaron" unicode="&#x17d;" horiz-adv-x="683" 
d="M32 701h624v-145l-327 -378h334v-178h-643v145l327 378h-315v178zM409 914h140l-111 -162h-188l-111 162h140l65 -71z" />
    <glyph glyph-name="zcaron" unicode="&#x17e;" horiz-adv-x="568" 
d="M35 547h502v-131l-228 -248h238v-168h-522v131l228 248h-218v168zM349 769h140l-111 -162h-188l-111 162h140l65 -71z" />
    <glyph glyph-name="uni018F" unicode="&#x18f;" horiz-adv-x="800" 
d="M203 35q-85 51 -131.5 145t-46.5 218h507q-11 57 -45.5 91t-83.5 34q-41 0 -75.5 -23t-54.5 -62l-159 165q52 54 125.5 83.5t160.5 29.5q107 0 192.5 -47t134 -130t48.5 -187q0 -105 -48.5 -189t-134 -131.5t-192.5 -47.5q-112 0 -197 51zM479 202q31 25 46 69h-248
q17 -44 50 -69t76 -25q45 0 76 25z" />
    <glyph glyph-name="florin" unicode="&#x192;" horiz-adv-x="444" 
d="M352 565.5q-15 -12.5 -18 -33.5l-8 -65h106l-17 -142h-106l-42 -343q-11 -85 -75.5 -135.5t-161.5 -50.5q-37 0 -75 10.5t-62 28.5l54 154q11 -9 25.5 -14t26.5 -5q19 -1 32 11.5t16 34.5l38 309h-75l17 142h76l12 99q10 85 74.5 135.5t161.5 50.5q46 0 92 -10.5
t76 -28.5l-74 -154q-12 9 -27 14t-29 5q-22 0 -37 -12.5z" />
    <glyph glyph-name="Ohorn" unicode="&#x1a0;" horiz-adv-x="832" 
d="M826 743q0 -58 -31 -101t-87 -63q37 -46 57 -104t20 -123q0 -105 -49.5 -189t-137.5 -131.5t-198 -47.5t-198 47.5t-137.5 131.5t-49.5 189t49.5 188t137.5 129.5t198 46.5q103 0 185 -41q5 -1 14 -1q27 0 42 18.5t15 46.5q0 33 -20 62l160 58q30 -60 30 -116zM476 199.5
q33 22.5 52 62.5t19 89t-19 88.5t-52 61.5t-73 22t-74.5 -22.5t-55 -61.5t-20.5 -88t20.5 -88.5t55 -62.5t74.5 -23t73 22.5z" />
    <glyph glyph-name="ohorn" unicode="&#x1a1;" horiz-adv-x="696" 
d="M727 588q0 -60 -34.5 -104t-96.5 -63q37 -63 37 -147q0 -85 -38 -148.5t-108 -98.5t-163 -35t-163 35t-108 98.5t-38 148.5t38 148.5t108 98t163 34.5q89 0 160 -33q10 -2 16 -2q27 0 42 18.5t15 46.5q0 33 -20 62l160 58q30 -63 30 -117zM383.5 194q22.5 29 22.5 77
t-22.5 77t-59.5 29t-59.5 -29t-22.5 -77t22.5 -77t59.5 -29t59.5 29z" />
    <glyph glyph-name="Uhorn" unicode="&#x1af;" horiz-adv-x="804" 
d="M831 750q0 -57 -33 -94.5t-97 -52.5v-312q0 -92 -40.5 -161.5t-114.5 -107.5t-173 -38t-174.5 38t-117 107.5t-41.5 161.5v410h232v-410q0 -50 30 -82t72 -32q41 0 68 31.5t27 82.5v410h152q25 0 37.5 14.5t12.5 36.5q0 14 -4.5 27.5t-12.5 22.5l153 57q24 -61 24 -109z
" />
    <glyph glyph-name="uhorn" unicode="&#x1b0;" horiz-adv-x="708" 
d="M747 596q0 -57 -33 -94.5t-97 -52.5v-449h-225v76q-27 -42 -68 -64t-93 -22q-56 0 -99 26t-67.5 73t-24.5 109v349h225v-284q0 -34 16.5 -54.5t43.5 -20.5q31 0 49 24t18 64v271h145q25 0 37.5 14.5t12.5 36.5q0 14 -4.5 27.5t-12.5 22.5l153 57q24 -61 24 -109z" />
    <glyph glyph-name="uni01C4" unicode="&#x1c4;" horiz-adv-x="1442" 
d="M564 658q86 -43 133 -122.5t47 -184.5q0 -106 -48 -185t-136.5 -122.5t-205.5 -43.5h-304v701h313q115 0 201 -43zM469.5 226q37.5 46 37.5 123q0 78 -40.5 125t-108.5 47h-76v-341h87q63 0 100.5 46zM791 701h624v-145l-327 -378h334v-178h-643v145l327 378h-315v178z
M1168 914h140l-111 -162h-188l-111 162h140l65 -71z" />
    <glyph glyph-name="uni01C5" unicode="&#x1c5;" horiz-adv-x="1327" 
d="M564 658q86 -43 133 -122.5t47 -184.5q0 -106 -48 -185t-136.5 -122.5t-205.5 -43.5h-304v701h313q115 0 201 -43zM469.5 226q37.5 46 37.5 123q0 78 -40.5 125t-108.5 47h-76v-341h87q63 0 100.5 46zM794 547h502v-131l-228 -248h238v-168h-522v131l228 248h-218v168z
M1108 769h140l-111 -162h-188l-111 162h140l65 -71z" />
    <glyph glyph-name="uni01C6" unicode="&#x1c6;" horiz-adv-x="1258" 
d="M630 742v-742h-225v55q-54 -63 -139 -63q-75 0 -132 35t-88 99.5t-31 150.5q0 84 30 147t85.5 97t129.5 34q44 0 81 -16.5t64 -47.5v251h225zM383 194q22 29 22 77t-22 77t-59 29t-59.5 -29t-22.5 -77t22.5 -77t59.5 -29t59 29zM725 547h502v-131l-228 -248h238v-168
h-522v131l228 248h-218v168zM1039 769h140l-111 -162h-188l-111 162h140l65 -71z" />
    <glyph glyph-name="uni01C7" unicode="&#x1c7;" horiz-adv-x="1153" 
d="M50 701h232v-508h292v-193h-524v701zM1042 55q-71 -65 -193 -65q-162 0 -273 122l105 150q39 -39 78.5 -59t67.5 -20q25 0 39 15t14 44v276h-238v183h471v-464q0 -117 -71 -182z" />
    <glyph glyph-name="uni01C8" unicode="&#x1c8;" horiz-adv-x="924" 
d="M50 701h232v-508h292v-193h-524v701zM600 -29q21 -1 32.5 11t11.5 35v530h225v-564q0 -85 -58 -135.5t-156 -50.5q-76 0 -136 23l43 157q24 -6 38 -6zM834 785q32 -32 32 -82t-32 -82t-82 -32t-82 32t-32 82t32 82t82 32t82 -32z" />
    <glyph glyph-name="uni01C9" unicode="&#x1c9;" horiz-adv-x="685" 
d="M60 742h225v-742h-225v742zM361 -29q21 -1 32.5 11t11.5 35v530h225v-564q0 -85 -58 -135.5t-156 -50.5q-76 0 -136 23l43 157q24 -6 38 -6zM595 785q32 -32 32 -82t-32 -82t-82 -32t-82 32t-32 82t32 82t82 32t82 -32z" />
    <glyph glyph-name="uni01CA" unicode="&#x1ca;" horiz-adv-x="1350" 
d="M521 701h210v-701h-194l-276 358v-358h-211v701h194l277 -360v360zM1239 55q-71 -65 -193 -65q-162 0 -273 122l105 150q39 -39 78.5 -59t67.5 -20q25 0 39 15t14 44v276h-238v183h471v-464q0 -117 -71 -182z" />
    <glyph glyph-name="uni01CB" unicode="&#x1cb;" horiz-adv-x="1121" 
d="M521 701h210v-701h-194l-276 358v-358h-211v701h194l277 -360v360zM797 -29q21 -1 32.5 11t11.5 35v530h225v-564q0 -85 -58 -135.5t-156 -50.5q-76 0 -136 23l43 157q24 -6 38 -6zM1031 785q32 -32 32 -82t-32 -82t-82 -32t-82 32t-32 82t32 82t82 32t82 -32z" />
    <glyph glyph-name="uni01CC" unicode="&#x1cc;" horiz-adv-x="1022" 
d="M547.5 531q44.5 -26 69.5 -73t25 -109v-349h-225v284q0 34 -18 54.5t-47 20.5q-33 0 -52.5 -24t-19.5 -64v-271h-225v547h225v-78q28 43 70.5 65.5t95.5 22.5q57 0 101.5 -26zM698 -29q21 -1 32.5 11t11.5 35v530h225v-564q0 -85 -58 -135.5t-156 -50.5q-76 0 -136 23
l43 157q24 -6 38 -6zM932 785q32 -32 32 -82t-32 -82t-82 -32t-82 32t-32 82t32 82t82 32t82 -32z" />
    <glyph glyph-name="Gcaron" unicode="&#x1e6;" horiz-adv-x="738" 
d="M503 369h199v-293q-59 -40 -145.5 -66t-161.5 -26q-109 0 -195.5 47.5t-135.5 131t-49 188.5q0 104 51 187.5t141 130.5t203 47q82 0 164.5 -30t138.5 -80l-131 -159q-35 35 -82.5 55.5t-90.5 20.5q-44 0 -80 -22.5t-56 -61.5t-20 -88q0 -50 20.5 -89.5t56.5 -62
t81 -22.5q38 0 92 24v168zM475 914h140l-111 -162h-188l-111 162h140l65 -71z" />
    <glyph glyph-name="gcaron" unicode="&#x1e7;" horiz-adv-x="654" 
d="M601 547v-502q0 -75 -38.5 -131.5t-108 -87t-159.5 -30.5q-75 0 -143.5 20t-114.5 51l71 151q35 -22 81 -35t86 -13q49 0 75.5 18.5t26.5 50.5v52q-52 -58 -137 -58q-64 0 -115.5 32.5t-80.5 92.5t-29 139q0 77 28 135.5t78.5 90.5t114.5 32q88 0 141 -59v51h224z
M356 220q21 27 21 71q0 45 -20.5 72t-55.5 27t-55.5 -27t-20.5 -72q0 -44 21 -71t55 -27t55 27zM376 769h140l-111 -162h-188l-111 162h140l65 -71z" />
    <glyph glyph-name="uni01EA" unicode="&#x1ea;" horiz-adv-x="800" 
d="M743 177q-42 -79 -116 -128q-34 -36 -54 -72.5t-20 -64.5t19 -28q12 0 26 8l31 -111q-27 -12 -50.5 -18.5t-52.5 -6.5q-53 0 -86.5 28t-33.5 84q0 62 52 120q-25 -4 -58 -4q-110 0 -198 47.5t-137.5 131.5t-49.5 189t49.5 188t137.5 129.5t198 46.5t198 -47t137.5 -130
t49.5 -187q0 -96 -42 -175zM273.5 262.5q20.5 -39.5 55 -62.5t74.5 -23t73 22.5t52 62.5t19 89t-19 88.5t-52 61.5t-73 22t-74.5 -22.5t-55 -61.5t-20.5 -88t20.5 -88.5z" />
    <glyph glyph-name="uni01EB" unicode="&#x1eb;" horiz-adv-x="648" 
d="M611 156.5q-22 -52.5 -64 -89.5q-43 -40 -67.5 -81.5t-24.5 -73.5q0 -28 19 -28q12 0 26 8l31 -111q-27 -12 -50.5 -18.5t-52.5 -6.5q-53 0 -86.5 28t-33.5 84q0 34 14 64.5t44 61.5q-26 -2 -42 -2q-93 0 -163 35t-108 98.5t-38 148.5t38 148.5t108 98t163 34.5
t163 -34.5t108 -98t38 -148.5q0 -65 -22 -117.5zM264.5 194q22.5 -29 59.5 -29t59.5 29t22.5 77t-22.5 77t-59.5 29t-59.5 -29t-22.5 -77t22.5 -77z" />
    <glyph glyph-name="Aringacute" unicode="&#x1fa;" horiz-adv-x="799" 
d="M562 0l-35 99h-263l-36 -99h-238l296 701h238l285 -701h-247zM324 265h146l-72 205zM488 945q36 -36 36 -88t-36 -88t-88 -36t-88 36t-36 88t36 88t88 36t88 -36zM372 885q-11 -11 -11 -28q0 -16 11 -27.5t28 -11.5q16 0 27.5 11.5t11.5 27.5q0 17 -11.5 28t-27.5 11
q-17 0 -28 -11zM438 1177l139 -81l-173 -93l-122 31z" />
    <glyph glyph-name="aringacute" unicode="&#x1fb;" horiz-adv-x="613" 
d="M506.5 503.5q66.5 -53.5 66.5 -149.5v-354h-221v59q-50 -69 -154 -69q-86 0 -134.5 46.5t-48.5 125.5q0 81 54 123t158 44h125q-1 29 -22.5 44.5t-62.5 15.5q-32 0 -76.5 -9t-89.5 -26l-50 150q70 26 139.5 39.5t130.5 13.5q119 0 185.5 -53.5zM318.5 144
q20.5 11 33.5 31v50h-78q-48 0 -48 -44q0 -23 13 -35.5t37 -12.5q22 0 42.5 11zM396 791q36 -36 36 -88t-36 -88t-88 -36t-88 36t-36 88t36 88t88 36t88 -36zM280 731q-11 -11 -11 -28q0 -16 11 -27.5t28 -11.5q16 0 27.5 11.5t11.5 27.5q0 17 -11.5 28t-27.5 11
q-17 0 -28 -11zM346 1023l139 -81l-173 -93l-122 31z" />
    <glyph glyph-name="AEacute" unicode="&#x1fc;" horiz-adv-x="1147" 
d="M739 176h370v-176h-602v122h-217l-60 -122h-240l390 701h720v-176h-361v-86h328v-176h-328v-87zM373 288h134v237h-17zM813 934l169 -60l-162 -129l-142 10z" />
    <glyph glyph-name="aeacute" unicode="&#x1fd;" horiz-adv-x="958" 
d="M620.5 173q23.5 -15 55.5 -15q60 0 112 49l117 -115q-44 -49 -107 -74.5t-142 -25.5q-75 0 -130.5 26t-89.5 75q-31 -50 -86 -77t-130 -27q-96 0 -150.5 47t-54.5 126q0 81 54.5 123t158.5 44h127l-1 9q-4 24 -25.5 37.5t-59.5 13.5q-33 0 -78 -9t-90 -26l-50 150
q71 26 140.5 39.5t130.5 13.5q111 0 175 -45q63 43 153 43q91 0 157 -37t101 -105.5t35 -160.5q0 -19 -1 -29h-357l2 -6q10 -29 33.5 -44zM700.5 383q-18.5 22 -48.5 22q-28 0 -46.5 -21t-25.5 -57h137q2 34 -16.5 56zM239 214q-13 -11 -13 -33q0 -23 13.5 -35.5t37.5 -12.5
q22 0 43 11t35 31v50h-80q-23 0 -36 -11zM504 780l169 -60l-162 -129l-142 10z" />
    <glyph glyph-name="Oslashacute" unicode="&#x1fe;" horiz-adv-x="800" 
d="M744.5 514.5q40.5 -75.5 40.5 -167.5q0 -103 -49.5 -185t-137.5 -129t-198 -47q-74 0 -137 21l-36 -62h-127l64 110q-70 49 -109.5 124.5t-39.5 167.5q0 103 49.5 184t137.5 127t198 46q67 0 132 -19l41 70h127l-68 -117q72 -48 112.5 -123.5zM279 252l150 256
q-12 3 -26 3q-40 0 -74.5 -21.5t-55 -59t-20.5 -84.5q0 -52 26 -94zM476 201q33 22 52 60t19 85q0 58 -28 100l-152 -262q18 -5 36 -5q40 0 73 22zM444 934l169 -60l-162 -129l-142 10z" />
    <glyph glyph-name="oslashacute" unicode="&#x1ff;" horiz-adv-x="648" 
d="M604.5 404.5q28.5 -57.5 28.5 -130.5q0 -85 -38 -148.5t-108 -98.5t-163 -35q-72 0 -129 21l-63 -93h-88l85 125q-55 37 -84.5 96t-29.5 133q0 85 38 148.5t108 98t163 34.5q73 0 134 -22l64 94h88l-87 -128q53 -37 81.5 -94.5zM238 207l123 182q-19 7 -37 7
q-44 0 -70.5 -34t-26.5 -91q0 -36 11 -64zM394.5 180q26.5 34 26.5 91q0 33 -10 61l-122 -179q15 -7 35 -7q44 0 70.5 34zM367 780l169 -60l-162 -129l-142 10z" />
    <glyph glyph-name="uni0200" unicode="&#x200;" horiz-adv-x="799" 
d="M562 0l-35 99h-263l-36 -99h-238l296 701h238l285 -701h-247zM324 265h146l-72 205zM307 931l82 -179l-155 -10l-89 136zM528 931l82 -179l-155 -10l-89 136z" />
    <glyph glyph-name="uni0201" unicode="&#x201;" horiz-adv-x="613" 
d="M506.5 503.5q66.5 -53.5 66.5 -149.5v-354h-221v59q-50 -69 -154 -69q-86 0 -134.5 46.5t-48.5 125.5q0 81 54 123t158 44h125q-1 29 -22.5 44.5t-62.5 15.5q-32 0 -76.5 -9t-89.5 -26l-50 150q70 26 139.5 39.5t130.5 13.5q119 0 185.5 -53.5zM318.5 144
q20.5 11 33.5 31v50h-78q-48 0 -48 -44q0 -23 13 -35.5t37 -12.5q22 0 42.5 11zM215 780l82 -179l-155 -10l-89 136zM436 780l82 -179l-155 -10l-89 136z" />
    <glyph glyph-name="uni0202" unicode="&#x202;" horiz-adv-x="799" 
d="M562 0l-35 99h-263l-36 -99h-238l296 701h238l285 -701h-247zM324 265h146l-72 205zM215 752q4 79 54 126.5t130 47.5t130 -47.5t54 -126.5h-135q-2 23 -15.5 36.5t-33.5 13.5t-33.5 -13.5t-15.5 -36.5h-135z" />
    <glyph glyph-name="uni0203" unicode="&#x203;" horiz-adv-x="613" 
d="M506.5 503.5q66.5 -53.5 66.5 -149.5v-354h-221v59q-50 -69 -154 -69q-86 0 -134.5 46.5t-48.5 125.5q0 81 54 123t158 44h125q-1 29 -22.5 44.5t-62.5 15.5q-32 0 -76.5 -9t-89.5 -26l-50 150q70 26 139.5 39.5t130.5 13.5q119 0 185.5 -53.5zM318.5 144
q20.5 11 33.5 31v50h-78q-48 0 -48 -44q0 -23 13 -35.5t37 -12.5q22 0 42.5 11zM123 595q4 79 54 126.5t130 47.5t130 -47.5t54 -126.5h-135q-2 23 -15.5 36.5t-33.5 13.5t-33.5 -13.5t-15.5 -36.5h-135z" />
    <glyph glyph-name="uni0204" unicode="&#x204;" horiz-adv-x="690" 
d="M50 701h593v-176h-361v-86h328v-176h-328v-87h370v-176h-602v701zM255 931l82 -179l-155 -10l-89 136zM476 931l82 -179l-155 -10l-89 136z" />
    <glyph glyph-name="uni0205" unicode="&#x205;" horiz-adv-x="614" 
d="M463 518q66 -37 101 -105.5t35 -160.5q0 -19 -1 -29h-356q11 -32 34.5 -48.5t56.5 -16.5q59 0 111 49l117 -115q-44 -49 -106.5 -74.5t-141.5 -25.5q-92 0 -159.5 34.5t-103 97.5t-35.5 147q0 86 36 150t102.5 99t153.5 35q90 0 156 -37zM356.5 383q-18.5 22 -47.5 22
q-28 0 -46.5 -21t-25.5 -57h136q2 34 -16.5 56zM210 780l82 -179l-155 -10l-89 136zM431 780l82 -179l-155 -10l-89 136z" />
    <glyph glyph-name="uni0206" unicode="&#x206;" horiz-adv-x="690" 
d="M50 701h593v-176h-361v-86h328v-176h-328v-87h370v-176h-602v701zM163 752q4 79 54 126.5t130 47.5t130 -47.5t54 -126.5h-135q-2 23 -15.5 36.5t-33.5 13.5t-33.5 -13.5t-15.5 -36.5h-135z" />
    <glyph glyph-name="uni0207" unicode="&#x207;" horiz-adv-x="614" 
d="M463 518q66 -37 101 -105.5t35 -160.5q0 -19 -1 -29h-356q11 -32 34.5 -48.5t56.5 -16.5q59 0 111 49l117 -115q-44 -49 -106.5 -74.5t-141.5 -25.5q-92 0 -159.5 34.5t-103 97.5t-35.5 147q0 86 36 150t102.5 99t153.5 35q90 0 156 -37zM356.5 383q-18.5 22 -47.5 22
q-28 0 -46.5 -21t-25.5 -57h136q2 34 -16.5 56zM118 595q4 79 54 126.5t130 47.5t130 -47.5t54 -126.5h-135q-2 23 -15.5 36.5t-33.5 13.5t-33.5 -13.5t-15.5 -36.5h-135z" />
    <glyph glyph-name="uni0208" unicode="&#x208;" horiz-adv-x="332" 
d="M50 701h232v-701h-232v701zM73 931l82 -179l-155 -10l-89 136zM294 931l82 -179l-155 -10l-89 136z" />
    <glyph glyph-name="uni0209" unicode="&#x209;" horiz-adv-x="335" 
d="M55 547h225v-547h-225v547zM75 780l82 -179l-155 -10l-89 136zM296 780l82 -179l-155 -10l-89 136z" />
    <glyph glyph-name="uni020A" unicode="&#x20a;" horiz-adv-x="332" 
d="M50 701h232v-701h-232v701zM-19 752q4 79 54 126.5t130 47.5t130 -47.5t54 -126.5h-135q-2 23 -15.5 36.5t-33.5 13.5t-33.5 -13.5t-15.5 -36.5h-135z" />
    <glyph glyph-name="uni020B" unicode="&#x20b;" horiz-adv-x="335" 
d="M55 547h225v-547h-225v547zM-12 595q4 80 52 127t127 47q78 0 126 -47t52 -127h-130q-3 23 -16 36t-32 13t-32 -13t-16 -36h-131z" />
    <glyph glyph-name="uni020C" unicode="&#x20c;" horiz-adv-x="800" 
d="M598 669q88 -47 137.5 -130t49.5 -187q0 -105 -49.5 -189t-137.5 -131.5t-198 -47.5t-198 47.5t-137.5 131.5t-49.5 189t49.5 188t137.5 129.5t198 46.5t198 -47zM328.5 500.5q-34.5 -22.5 -55 -61.5t-20.5 -88t20.5 -88.5t55 -62.5t74.5 -23t73 22.5t52 62.5t19 89
t-19 88.5t-52 61.5t-73 22t-74.5 -22.5zM307 931l82 -179l-155 -10l-89 136zM528 931l82 -179l-155 -10l-89 136z" />
    <glyph glyph-name="uni020D" unicode="&#x20d;" horiz-adv-x="648" 
d="M487 520.5q70 -34.5 108 -98t38 -148.5t-38 -148.5t-108 -98.5t-163 -35t-163 35t-108 98.5t-38 148.5t38 148.5t108 98t163 34.5t163 -34.5zM264.5 348q-22.5 -29 -22.5 -77t22.5 -77t59.5 -29t59.5 29t22.5 77t-22.5 77t-59.5 29t-59.5 -29zM231 780l82 -179l-155 -10
l-89 136zM452 780l82 -179l-155 -10l-89 136z" />
    <glyph glyph-name="uni020E" unicode="&#x20e;" horiz-adv-x="800" 
d="M598 669q88 -47 137.5 -130t49.5 -187q0 -105 -49.5 -189t-137.5 -131.5t-198 -47.5t-198 47.5t-137.5 131.5t-49.5 189t49.5 188t137.5 129.5t198 46.5t198 -47zM328.5 500.5q-34.5 -22.5 -55 -61.5t-20.5 -88t20.5 -88.5t55 -62.5t74.5 -23t73 22.5t52 62.5t19 89
t-19 88.5t-52 61.5t-73 22t-74.5 -22.5zM215 752q4 79 54 126.5t130 47.5t130 -47.5t54 -126.5h-135q-2 23 -15.5 36.5t-33.5 13.5t-33.5 -13.5t-15.5 -36.5h-135z" />
    <glyph glyph-name="uni020F" unicode="&#x20f;" horiz-adv-x="648" 
d="M487 520.5q70 -34.5 108 -98t38 -148.5t-38 -148.5t-108 -98.5t-163 -35t-163 35t-108 98.5t-38 148.5t38 148.5t108 98t163 34.5t163 -34.5zM264.5 348q-22.5 -29 -22.5 -77t22.5 -77t59.5 -29t59.5 29t22.5 77t-22.5 77t-59.5 29t-59.5 -29zM139 595q4 79 54 126.5
t130 47.5t130 -47.5t54 -126.5h-135q-2 23 -15.5 36.5t-33.5 13.5t-33.5 -13.5t-15.5 -36.5h-135z" />
    <glyph glyph-name="uni0210" unicode="&#x210;" horiz-adv-x="725" 
d="M453 0l-84 182h-87v-182h-232v701h339q143 0 221 -65.5t78 -185.5q0 -76 -28.5 -132.5t-82.5 -89.5l138 -228h-262zM282 358h107q38 0 58.5 22.5t20.5 62.5q0 39 -20.5 60.5t-58.5 21.5h-107v-167zM269 931l82 -179l-155 -10l-89 136zM490 931l82 -179l-155 -10l-89 136z
" />
    <glyph glyph-name="uni0211" unicode="&#x211;" horiz-adv-x="457" 
d="M351.5 533.5q42.5 23.5 95.5 23.5v-203q-22 3 -43 3q-58 0 -91 -25.5t-33 -70.5v-261h-225v547h225v-80q29 43 71.5 66.5zM152 780l82 -179l-155 -10l-89 136zM373 780l82 -179l-155 -10l-89 136z" />
    <glyph glyph-name="uni0212" unicode="&#x212;" horiz-adv-x="725" 
d="M453 0l-84 182h-87v-182h-232v701h339q143 0 221 -65.5t78 -185.5q0 -76 -28.5 -132.5t-82.5 -89.5l138 -228h-262zM282 358h107q38 0 58.5 22.5t20.5 62.5q0 39 -20.5 60.5t-58.5 21.5h-107v-167zM177 752q4 79 54 126.5t130 47.5t130 -47.5t54 -126.5h-135
q-2 23 -15.5 36.5t-33.5 13.5t-33.5 -13.5t-15.5 -36.5h-135z" />
    <glyph glyph-name="uni0213" unicode="&#x213;" horiz-adv-x="457" 
d="M351.5 533.5q42.5 23.5 95.5 23.5v-203q-22 3 -43 3q-58 0 -91 -25.5t-33 -70.5v-261h-225v547h225v-80q29 43 71.5 66.5zM60 595q4 79 54 126.5t130 47.5t130 -47.5t54 -126.5h-135q-2 23 -15.5 36.5t-33.5 13.5t-33.5 -13.5t-15.5 -36.5h-135z" />
    <glyph glyph-name="uni0214" unicode="&#x214;" horiz-adv-x="741" 
d="M302 209q30 -32 72 -32q41 0 68 31.5t27 82.5v410h232v-410q0 -92 -40.5 -161.5t-114.5 -107.5t-173 -38t-174.5 38t-117 107.5t-41.5 161.5v410h232v-410q0 -50 30 -82zM278 931l82 -179l-155 -10l-89 136zM499 931l82 -179l-155 -10l-89 136z" />
    <glyph glyph-name="uni0215" unicode="&#x215;" horiz-adv-x="672" 
d="M617 547v-547h-225v76q-27 -42 -68 -64t-93 -22q-56 0 -99 26t-67.5 73t-24.5 109v349h225v-284q0 -34 16.5 -54.5t43.5 -20.5q31 0 49 24t18 64v271h225zM243 780l82 -179l-155 -10l-89 136zM464 780l82 -179l-155 -10l-89 136z" />
    <glyph glyph-name="uni0216" unicode="&#x216;" horiz-adv-x="741" 
d="M302 209q30 -32 72 -32q41 0 68 31.5t27 82.5v410h232v-410q0 -92 -40.5 -161.5t-114.5 -107.5t-173 -38t-174.5 38t-117 107.5t-41.5 161.5v410h232v-410q0 -50 30 -82zM186 752q4 79 54 126.5t130 47.5t130 -47.5t54 -126.5h-135q-2 23 -15.5 36.5t-33.5 13.5
t-33.5 -13.5t-15.5 -36.5h-135z" />
    <glyph glyph-name="uni0217" unicode="&#x217;" horiz-adv-x="672" 
d="M617 547v-547h-225v76q-27 -42 -68 -64t-93 -22q-56 0 -99 26t-67.5 73t-24.5 109v349h225v-284q0 -34 16.5 -54.5t43.5 -20.5q31 0 49 24t18 64v271h225zM151 595q4 79 54 126.5t130 47.5t130 -47.5t54 -126.5h-135q-2 23 -15.5 36.5t-33.5 13.5t-33.5 -13.5
t-15.5 -36.5h-135z" />
    <glyph glyph-name="Scommaaccent" unicode="&#x218;" horiz-adv-x="664" 
d="M448 516q-70 25 -114 25q-43 0 -43 -31q0 -24 27.5 -37t87.5 -29q75 -21 124.5 -42t86.5 -66.5t37 -119.5q0 -76 -39.5 -127.5t-106.5 -76.5t-149 -25q-93 0 -187.5 30.5t-163.5 83.5l86 175q53 -46 133 -78.5t134 -32.5q26 0 41 9.5t15 29.5q0 24 -28.5 37.5t-89.5 28.5
q-74 19 -123.5 39.5t-85.5 63.5t-36 115q0 70 37 122.5t105 80.5t158 28q82 0 163.5 -23t141.5 -61l-84 -177q-57 33 -127 58zM255 -61h175l-86 -183h-120z" />
    <glyph glyph-name="scommaaccent" unicode="&#x219;" horiz-adv-x="552" 
d="M274 409q-14 0 -22.5 -5t-8.5 -13q0 -12 18 -20t60 -19q59 -16 101 -33t73.5 -52t31.5 -91t-30.5 -98t-86.5 -65t-131 -23q-153 0 -267 78l68 140q110 -68 202 -68q16 0 25 4.5t9 11.5q0 11 -17.5 18.5t-56.5 17.5q-59 15 -100 32t-72.5 52t-31.5 92t30 99.5t84.5 66
t126.5 23.5q131 0 254 -69l-74 -139q-122 60 -185 60zM185 -61h175l-86 -183h-120z" />
    <glyph glyph-name="uni021A" unicode="&#x21a;" horiz-adv-x="641" 
d="M5 701h631v-183h-200v-518h-232v518h-199v183zM230 -61h175l-86 -183h-120z" />
    <glyph glyph-name="uni021B" unicode="&#x21b;" horiz-adv-x="460" 
d="M445 24q-27 -16 -70.5 -25t-88.5 -9q-92 0 -147.5 50.5t-55.5 135.5v199h-75v142h75v153h224v-153h128v-142h-128v-165q0 -22 12 -34.5t32 -11.5q19 0 56 14zM192 -61h175l-86 -183h-120z" />
    <glyph glyph-name="uni022A" unicode="&#x22a;" horiz-adv-x="800" 
d="M598 669q88 -47 137.5 -130t49.5 -187q0 -105 -49.5 -189t-137.5 -131.5t-198 -47.5t-198 47.5t-137.5 131.5t-49.5 189t49.5 188t137.5 129.5t198 46.5t198 -47zM328.5 500.5q-34.5 -22.5 -55 -61.5t-20.5 -88t20.5 -88.5t55 -62.5t74.5 -23t73 22.5t52 62.5t19 89
t-19 88.5t-52 61.5t-73 22t-74.5 -22.5zM356.5 904.5q24.5 -24.5 24.5 -64.5q0 -38 -24.5 -63t-63.5 -25t-63.5 25t-24.5 63q0 40 24.5 64.5t63.5 24.5t63.5 -24.5zM570.5 904.5q24.5 -24.5 24.5 -64.5q0 -38 -24.5 -63t-63.5 -25t-63.5 25t-24.5 63q0 40 24.5 64.5
t63.5 24.5t63.5 -24.5zM240 1090h320v-119h-320v119z" />
    <glyph glyph-name="uni022B" unicode="&#x22b;" horiz-adv-x="648" 
d="M487 520.5q70 -34.5 108 -98t38 -148.5t-38 -148.5t-108 -98.5t-163 -35t-163 35t-108 98.5t-38 148.5t38 148.5t108 98t163 34.5t163 -34.5zM264.5 348q-22.5 -29 -22.5 -77t22.5 -77t59.5 -29t59.5 29t22.5 77t-22.5 77t-59.5 29t-59.5 -29zM280.5 753.5
q24.5 -24.5 24.5 -64.5q0 -38 -24.5 -63t-63.5 -25t-63.5 25t-24.5 63q0 40 24.5 64.5t63.5 24.5t63.5 -24.5zM494.5 753.5q24.5 -24.5 24.5 -64.5q0 -38 -24.5 -63t-63.5 -25t-63.5 25t-24.5 63q0 40 24.5 64.5t63.5 24.5t63.5 -24.5zM164 939h320v-119h-320v119z" />
    <glyph glyph-name="uni022C" unicode="&#x22c;" horiz-adv-x="800" 
d="M598 669q88 -47 137.5 -130t49.5 -187q0 -105 -49.5 -189t-137.5 -131.5t-198 -47.5t-198 47.5t-137.5 131.5t-49.5 189t49.5 188t137.5 129.5t198 46.5t198 -47zM328.5 500.5q-34.5 -22.5 -55 -61.5t-20.5 -88t20.5 -88.5t55 -62.5t74.5 -23t73 22.5t52 62.5t19 89
t-19 88.5t-52 61.5t-73 22t-74.5 -22.5zM568 785.5q-25 -35.5 -81 -35.5q-27 0 -50.5 6.5t-53.5 18.5q-35 13 -47 13q-17 0 -23.5 -8.5t-6.5 -27.5h-100q0 76 25 112t81 36q28 0 51.5 -6.5t53.5 -18.5q13 -5 25.5 -9t20.5 -4q16 0 23 8.5t8 26.5h99q0 -76 -25 -111.5z
M241 1060h320v-119h-320v119z" />
    <glyph glyph-name="uni022D" unicode="&#x22d;" horiz-adv-x="648" 
d="M487 520.5q70 -34.5 108 -98t38 -148.5t-38 -148.5t-108 -98.5t-163 -35t-163 35t-108 98.5t-38 148.5t38 148.5t108 98t163 34.5t163 -34.5zM264.5 348q-22.5 -29 -22.5 -77t22.5 -77t59.5 -29t59.5 29t22.5 77t-22.5 77t-59.5 29t-59.5 -29zM492 634.5
q-25 -35.5 -81 -35.5q-27 0 -50.5 6.5t-53.5 18.5q-35 13 -47 13q-17 0 -23.5 -8.5t-6.5 -27.5h-100q0 76 25 112t81 36q28 0 51.5 -6.5t53.5 -18.5q13 -5 25.5 -9t20.5 -4q16 0 23 8.5t8 26.5h99q0 -76 -25 -111.5zM165 909h320v-119h-320v119z" />
    <glyph glyph-name="uni0230" unicode="&#x230;" horiz-adv-x="800" 
d="M598 669q88 -47 137.5 -130t49.5 -187q0 -105 -49.5 -189t-137.5 -131.5t-198 -47.5t-198 47.5t-137.5 131.5t-49.5 189t49.5 188t137.5 129.5t198 46.5t198 -47zM328.5 500.5q-34.5 -22.5 -55 -61.5t-20.5 -88t20.5 -88.5t55 -62.5t74.5 -23t73 22.5t52 62.5t19 89
t-19 88.5t-52 61.5t-73 22t-74.5 -22.5zM543.5 917.5q26.5 -26.5 26.5 -69.5q0 -42 -26.5 -69t-69.5 -27q-42 0 -69 27t-27 69q0 43 27 69.5t69 26.5q43 0 69.5 -26.5zM314 1091h320v-119h-320v119z" />
    <glyph glyph-name="uni0231" unicode="&#x231;" horiz-adv-x="648" 
d="M487 520.5q70 -34.5 108 -98t38 -148.5t-38 -148.5t-108 -98.5t-163 -35t-163 35t-108 98.5t-38 148.5t38 148.5t108 98t163 34.5t163 -34.5zM264.5 348q-22.5 -29 -22.5 -77t22.5 -77t59.5 -29t59.5 29t22.5 77t-22.5 77t-59.5 29t-59.5 -29zM393.5 765.5
q26.5 -26.5 26.5 -69.5q0 -42 -26.5 -69t-69.5 -27q-42 0 -69 27t-27 69q0 43 27 69.5t69 26.5q43 0 69.5 -26.5zM164 939h320v-119h-320v119z" />
    <glyph glyph-name="uni0232" unicode="&#x232;" horiz-adv-x="719" 
d="M729 701l-251 -483v-218h-232v213l-256 488h231l141 -270l136 270h231zM170 880h380v-128h-380v128z" />
    <glyph glyph-name="uni0233" unicode="&#x233;" horiz-adv-x="624" 
d="M316 -163.5q-59 -40.5 -147 -40.5q-54 0 -99.5 15.5t-89.5 48.5l94 148q35 -32 73 -32t54 28l8 13l-227 530h231l108 -312l89 312h224l-225 -585q-34 -85 -93 -125.5zM152 762h320v-128h-320v128z" />
    <glyph glyph-name="uni0237" unicode="&#x237;" horiz-adv-x="340" 
d="M16 -29q21 -1 32.5 11t11.5 35v530h225v-564q0 -85 -58 -135.5t-156 -50.5q-76 0 -136 23l43 157q24 -6 38 -6z" />
    <glyph glyph-name="uni0259" unicode="&#x259;" horiz-adv-x="614" 
d="M460.5 520.5q67.5 -34.5 103 -97.5t35.5 -147q0 -86 -36 -150t-102.5 -99t-153.5 -35q-90 0 -156 37t-101 105.5t-35 160.5q0 19 1 29h356q-11 32 -34.5 48.5t-56.5 16.5q-59 0 -111 -49l-117 115q44 49 106.5 74.5t141.5 25.5q92 0 159.5 -34.5zM351.5 163
q18.5 21 25.5 57h-136q-2 -34 16.5 -56t47.5 -22q28 0 46.5 21z" />
    <glyph glyph-name="uni02BB" unicode="&#x2bb;" horiz-adv-x="258" 
d="M208 470l-158 36l30 194h128v-230z" />
    <glyph glyph-name="uni02BC" unicode="&#x2bc;" horiz-adv-x="252" 
d="M50 701h145l-30 -264h-115v264z" />
    <glyph glyph-name="uni02BE" unicode="&#x2be;" horiz-adv-x="213" 
d="M53 664q17 0 28 11.5t11 27.5q0 17 -11 28t-28 11v85q52 0 88 -36t36 -88t-36 -88t-88 -36v85z" />
    <glyph glyph-name="uni02BF" unicode="&#x2bf;" horiz-adv-x="212" 
d="M159 664q-16 0 -27.5 11.5t-11.5 27.5q0 17 11.5 28t27.5 11v85q-52 0 -88 -36t-36 -88t36 -88t88 -36v85z" />
    <glyph glyph-name="circumflex" unicode="&#x2c6;" horiz-adv-x="450" 
d="M430 607h-140l-65 72l-65 -72h-140l111 162h188z" />
    <glyph glyph-name="caron" unicode="&#x2c7;" horiz-adv-x="510" 
d="M290 769h140l-111 -162h-188l-111 162h140l65 -71z" />
    <glyph glyph-name="uni02C8" unicode="&#x2c8;" horiz-adv-x="184" 
d="M20 497v204h144v-204h-144z" />
    <glyph glyph-name="uni02C9" unicode="&#x2c9;" horiz-adv-x="340" 
d="M15 762h320v-128h-320v128z" />
    <glyph glyph-name="uni02CA" unicode="&#x2ca;" horiz-adv-x="350" 
d="M165 780l169 -60l-162 -129l-142 10z" />
    <glyph glyph-name="uni02CB" unicode="&#x2cb;" horiz-adv-x="350" 
d="M220 780l111 -179l-143 -10l-138 129z" />
    <glyph glyph-name="uni02CC" unicode="&#x2cc;" horiz-adv-x="188" 
d="M20 -234v204h148v-204h-148z" />
    <glyph glyph-name="breve" unicode="&#x2d8;" horiz-adv-x="388" 
d="M160.5 732.5q13.5 -13.5 33.5 -13.5t33.5 13.5t15.5 36.5h135q-4 -79 -54 -126.5t-130 -47.5t-130 47.5t-54 126.5h135q2 -23 15.5 -36.5z" />
    <glyph glyph-name="dotaccent" unicode="&#x2d9;" horiz-adv-x="350" 
d="M254 785q32 -32 32 -82t-32 -82t-82 -32t-82 32t-32 82t32 82t82 32t82 -32z" />
    <glyph glyph-name="ring" unicode="&#x2da;" horiz-adv-x="448" 
d="M247 791q36 -36 36 -88t-36 -88t-88 -36t-88 36t-36 88t36 88t88 36t88 -36zM131 731q-11 -11 -11 -28q0 -16 11 -27.5t28 -11.5q16 0 27.5 11.5t11.5 27.5q0 17 -11.5 28t-27.5 11q-17 0 -28 -11z" />
    <glyph glyph-name="ogonek" unicode="&#x2db;" horiz-adv-x="322" 
d="M223 0q-69 -48 -69 -90q0 -26 20 -26q11 0 25 8l31 -111q-56 -25 -107 -25q-57 0 -86.5 33t-29.5 84q0 44 24 87.5t69 82.5z" />
    <glyph glyph-name="tilde" unicode="&#x2dc;" horiz-adv-x="406" 
d="M370.5 636q-25.5 -42 -81.5 -42q-25 0 -45.5 7t-46.5 20q-3 1 -17 7.5t-24 6.5q-14 0 -21 -9.5t-8 -29.5h-117q0 92 26 135t82 43q25 0 46 -7.5t46 -19.5q28 -14 40 -14q15 0 22 9t8 29h116q0 -93 -25.5 -135z" />
    <glyph glyph-name="hungarumlaut" unicode="&#x2dd;" horiz-adv-x="570" 
d="M133 780l162 -53l-89 -136l-156 10zM354 780l162 -53l-89 -136l-156 10z" />
    <glyph glyph-name="gravecomb" unicode="&#x300;" 
d="M-167 780l111 -179l-143 -10l-138 129z" />
    <glyph glyph-name="acutecomb" unicode="&#x301;" 
d="M-182 780l169 -60l-162 -129l-142 10z" />
    <glyph glyph-name="uni0302" unicode="&#x302;" 
d="M-20 607h-140l-65 72l-65 -72h-140l111 162h188z" />
    <glyph glyph-name="tildecomb" unicode="&#x303;" 
d="M-35.5 636q-25.5 -42 -81.5 -42q-25 0 -45.5 7t-46.5 20q-3 1 -17 7.5t-24 6.5q-14 0 -21 -9.5t-8 -29.5h-117q0 92 26 135t82 43q25 0 46 -7.5t46 -19.5q28 -14 40 -14q15 0 22 9t8 29h116q0 -93 -25.5 -135z" />
    <glyph glyph-name="uni0304" unicode="&#x304;" 
d="M-330 762h320v-128h-320v128z" />
    <glyph glyph-name="uni0306" unicode="&#x306;" 
d="M-227.5 732.5q13.5 -13.5 33.5 -13.5t33.5 13.5t15.5 36.5h135q-4 -79 -54 -126.5t-130 -47.5t-130 47.5t-54 126.5h135q2 -23 15.5 -36.5z" />
    <glyph glyph-name="uni0307" unicode="&#x307;" 
d="M-62 785q32 -32 32 -82t-32 -82t-82 -32t-82 32t-32 82t32 82t82 32t82 -32z" />
    <glyph glyph-name="uni0308" unicode="&#x308;" 
d="M-292.5 757q24.5 -25 24.5 -64q0 -38 -24.5 -63t-63.5 -25t-63.5 25t-24.5 63q0 39 24.5 64t63.5 25t63.5 -25zM-90.5 757q24.5 -25 24.5 -64q0 -38 -24.5 -63t-63.5 -25t-63.5 25t-24.5 63q0 39 24.5 64t63.5 25t63.5 -25z" />
    <glyph glyph-name="hookabovecomb" unicode="&#x309;" 
d="M-65.5 808.5q30.5 -28.5 30.5 -73.5q0 -77 -94 -148l-92 37q22 19 34.5 38t12.5 36q0 13 -7.5 20t-20.5 7q-21 0 -39 -15l-54 83q70 44 139 44q60 0 90.5 -28.5z" />
    <glyph glyph-name="uni030A" unicode="&#x30a;" 
d="M-72 791q36 -36 36 -88t-36 -88t-88 -36t-88 36t-36 88t36 88t88 36t88 -36zM-188 731q-11 -11 -11 -28q0 -16 11 -27.5t28 -11.5q16 0 27.5 11.5t11.5 27.5q0 17 -11.5 28t-27.5 11q-17 0 -28 -11z" />
    <glyph glyph-name="uni030B" unicode="&#x30b;" 
d="M-401 780l162 -53l-89 -136l-156 10zM-180 780l162 -53l-89 -136l-156 10z" />
    <glyph glyph-name="uni030C" unicode="&#x30c;" 
d="M-190 769h140l-111 -162h-188l-111 162h140l65 -71z" />
    <glyph glyph-name="uni030F" unicode="&#x30f;" 
d="M-358 780l82 -179l-155 -10l-89 136zM-137 780l82 -179l-155 -10l-89 136z" />
    <glyph glyph-name="uni0311" unicode="&#x311;" 
d="M-378 595q4 79 54 126.5t130 47.5t130 -47.5t54 -126.5h-135q-2 23 -15.5 36.5t-33.5 13.5t-33.5 -13.5t-15.5 -36.5h-135z" />
    <glyph glyph-name="uni0312" unicode="&#x312;" 
d="M-66 608h-175l86 183h120z" />
    <glyph glyph-name="uni031B" unicode="&#x31b;" 
d="M-54 596q0 -77 -59 -117.5t-171 -40.5l20 109q25 0 37.5 14.5t12.5 36.5q0 14 -4.5 27.5t-12.5 22.5l153 57q24 -61 24 -109z" />
    <glyph glyph-name="dotbelowcomb" unicode="&#x323;" 
d="M-62 -97q32 -32 32 -82t-32 -82t-82 -32t-82 32t-32 82t32 82t82 32t82 -32z" />
    <glyph glyph-name="uni0324" unicode="&#x324;" 
d="M-282.5 -89q24.5 -25 24.5 -64q0 -38 -24.5 -63t-63.5 -25t-63.5 25t-24.5 63q0 39 24.5 64t63.5 25t63.5 -25zM-80.5 -89q24.5 -25 24.5 -64q0 -38 -24.5 -63t-63.5 -25t-63.5 25t-24.5 63q0 39 24.5 64t63.5 25t63.5 -25z" />
    <glyph glyph-name="uni0326" unicode="&#x326;" 
d="M-227 -61h175l-86 -183h-120z" />
    <glyph glyph-name="uni0327" unicode="&#x327;" 
d="M-89 0l-22 -59q83 -22 83 -83q0 -52 -40 -77t-97 -25q-62 0 -119 19l30 90q20 -7 45 -7q18 0 29 5t11 14q0 12 -16.5 17.5t-40.5 5.5h-17l36 110z" />
    <glyph glyph-name="uni0328" unicode="&#x328;" 
d="M-60 0q-69 -48 -69 -90q0 -26 20 -26q11 0 25 8l31 -111q-56 -25 -107 -25q-57 0 -86.5 33t-29.5 84q0 44 24 87.5t69 82.5z" />
    <glyph glyph-name="uni032E" unicode="&#x32e;" 
d="M-227.5 -101.5q13.5 -13.5 33.5 -13.5t33.5 13.5t15.5 36.5h135q-4 -79 -54 -126.5t-130 -47.5t-130 47.5t-54 126.5h135q2 -23 15.5 -36.5z" />
    <glyph glyph-name="uni0331" unicode="&#x331;" 
d="M-360 -75h320v-128h-320v128z" />
    <glyph glyph-name="uni0335" unicode="&#x335;" 
d="M-432 492h427v-119h-427v119z" />
    <glyph glyph-name="uni0336" unicode="&#x336;" 
d="M-530 492h455v-119h-455v119z" />
    <glyph glyph-name="uni0337" unicode="&#x337;" 
d="M9 570l-174 -481h-188l174 481h188z" />
    <glyph glyph-name="uni0338" unicode="&#x338;" 
d="M-385 0l268 742h188l-268 -742h-188z" />
    <glyph glyph-name="uni0394" unicode="&#x394;" horiz-adv-x="799" 
d="M524 701l285 -701h-819l296 701h238zM288 166h216l-106 304z" />
    <glyph glyph-name="uni03A9" unicode="&#x3a9;" horiz-adv-x="833" 
d="M542.5 278.5q30.5 45.5 30.5 97.5q0 65 -44 106.5t-113 41.5t-112.5 -41.5t-43.5 -106.5q0 -53 31 -99t84 -71v-206h-370v180h165q-56 46 -85.5 103t-29.5 121q0 85 48 155t131 111t182 41q100 0 183 -41t131 -111.5t48 -155.5q0 -63 -29 -120t-85 -103h164v-180h-370
v206q54 27 84.5 72.5z" />
    <glyph glyph-name="uni03BC" unicode="&#x3bc;" horiz-adv-x="692" 
d="M637 547v-547h-225v76q-47 -71 -127 -83v-187h-225v741h225v-284q0 -34 16.5 -54.5t43.5 -20.5q31 0 49 24t18 64v271h225z" />
    <glyph glyph-name="pi" unicode="&#x3c0;" horiz-adv-x="733" 
d="M614 391v-391h-185v391h-37l-40 -391h-185l40 391h-13q-19 0 -31 -11.5t-11 -29.5q0 -11 5 -28.5t13 -33.5l-154 -52q-17 36 -27.5 78t-10.5 76q0 45 24 81t66.5 56t95.5 20h555l1 -156h-106z" />
    <glyph glyph-name="uni1E08" unicode="&#x1e08;" horiz-adv-x="688" 
d="M537 874l-162 -129l-142 10l135 179zM479.5 209.5q43.5 22.5 77.5 59.5l134 -143q-51 -56 -121.5 -93.5t-142.5 -45.5l-17 -46q83 -22 83 -83q0 -52 -40 -77t-97 -25q-62 0 -119 19l30 90q20 -7 45 -7q18 0 29 5t11 14q0 12 -16.5 17.5t-40.5 5.5h-17l30 91
q-86 16 -152.5 66.5t-103.5 127t-37 168.5q0 104 49 186.5t135.5 129.5t195.5 47q80 0 161 -35.5t135 -94.5l-134 -159q-31 43 -74.5 69.5t-84.5 26.5t-74.5 -21.5t-52 -59.5t-18.5 -86t18.5 -86.5t52 -60.5t74.5 -22q38 0 81.5 22.5z" />
    <glyph glyph-name="uni1E09" unicode="&#x1e09;" horiz-adv-x="561" 
d="M476 720l-162 -129l-142 10l135 179zM381 229l182 -84q-25 -63 -80 -101.5t-131 -48.5l-20 -54q83 -22 83 -83q0 -52 -40 -77t-97 -25q-62 0 -119 19l30 90q20 -7 45 -7q18 0 29 5t11 14q0 12 -16.5 17.5t-40.5 5.5h-17l32 98q-101 20 -159 92.5t-58 180.5
q0 85 35.5 149.5t101 99.5t152.5 35q89 0 157 -41.5t102 -116.5l-179 -76q-22 52 -70 52q-33 0 -52.5 -27.5t-19.5 -73.5q0 -47 19.5 -74.5t52.5 -27.5q50 0 67 59z" />
    <glyph glyph-name="uni1E0C" unicode="&#x1e0c;" horiz-adv-x="759" 
d="M564 658q86 -43 133 -122.5t47 -184.5q0 -106 -48 -185t-136.5 -122.5t-205.5 -43.5h-304v701h313q115 0 201 -43zM469.5 226q37.5 46 37.5 123q0 78 -40.5 125t-108.5 47h-76v-341h87q63 0 100.5 46zM433 -97q32 -32 32 -82t-32 -82t-82 -32t-82 32t-32 82t32 82t82 32
t82 -32z" />
    <glyph glyph-name="uni1E0D" unicode="&#x1e0d;" horiz-adv-x="690" 
d="M630 742v-742h-225v55q-54 -63 -139 -63q-75 0 -132 35t-88 99.5t-31 150.5q0 84 30 147t85.5 97t129.5 34q44 0 81 -16.5t64 -47.5v251h225zM383 194q22 29 22 77t-22 77t-59 29t-59.5 -29t-22.5 -77t22.5 -77t59.5 -29t59 29zM433 -97q32 -32 32 -82t-32 -82t-82 -32
t-82 32t-32 82t32 82t82 32t82 -32z" />
    <glyph glyph-name="uni1E0E" unicode="&#x1e0e;" horiz-adv-x="759" 
d="M564 658q86 -43 133 -122.5t47 -184.5q0 -106 -48 -185t-136.5 -122.5t-205.5 -43.5h-304v701h313q115 0 201 -43zM469.5 226q37.5 46 37.5 123q0 78 -40.5 125t-108.5 47h-76v-341h87q63 0 100.5 46zM194 -75h320v-128h-320v128z" />
    <glyph glyph-name="uni1E0F" unicode="&#x1e0f;" horiz-adv-x="690" 
d="M630 742v-742h-225v55q-54 -63 -139 -63q-75 0 -132 35t-88 99.5t-31 150.5q0 84 30 147t85.5 97t129.5 34q44 0 81 -16.5t64 -47.5v251h225zM383 194q22 29 22 77t-22 77t-59 29t-59.5 -29t-22.5 -77t22.5 -77t59.5 -29t59 29zM194 -75h320v-128h-320v128z" />
    <glyph glyph-name="uni1E14" unicode="&#x1e14;" horiz-adv-x="690" 
d="M50 701h593v-176h-361v-86h328v-176h-328v-87h370v-176h-602v701zM201 871h320v-119h-320v119zM313 1090l156 -143l-122 -31l-173 93z" />
    <glyph glyph-name="uni1E15" unicode="&#x1e15;" horiz-adv-x="614" 
d="M463 518q66 -37 101 -105.5t35 -160.5q0 -19 -1 -29h-356q11 -32 34.5 -48.5t56.5 -16.5q59 0 111 49l117 -115q-44 -49 -106.5 -74.5t-141.5 -25.5q-92 0 -159.5 34.5t-103 97.5t-35.5 147q0 86 36 150t102.5 99t153.5 35q90 0 156 -37zM356.5 383q-18.5 22 -47.5 22
q-28 0 -46.5 -21t-25.5 -57h136q2 34 -16.5 56zM116 720h320v-119h-320v119zM228 939l156 -143l-122 -31l-173 93z" />
    <glyph glyph-name="uni1E16" unicode="&#x1e16;" horiz-adv-x="690" 
d="M50 701h593v-176h-361v-86h328v-176h-328v-87h370v-176h-602v701zM179 871h320v-119h-320v119zM377 1090l139 -81l-173 -93l-122 31z" />
    <glyph glyph-name="uni1E17" unicode="&#x1e17;" horiz-adv-x="614" 
d="M463 518q66 -37 101 -105.5t35 -160.5q0 -19 -1 -29h-356q11 -32 34.5 -48.5t56.5 -16.5q59 0 111 49l117 -115q-44 -49 -106.5 -74.5t-141.5 -25.5q-92 0 -159.5 34.5t-103 97.5t-35.5 147q0 86 36 150t102.5 99t153.5 35q90 0 156 -37zM356.5 383q-18.5 22 -47.5 22
q-28 0 -46.5 -21t-25.5 -57h136q2 34 -16.5 56zM113 720h320v-119h-320v119zM311 939l139 -81l-173 -93l-122 31z" />
    <glyph glyph-name="uni1E1C" unicode="&#x1e1c;" horiz-adv-x="690" 
d="M198 799.5q-50 47.5 -54 126.5h135q2 -23 15.5 -36.5t33.5 -13.5t33.5 13.5t15.5 36.5h135q-4 -79 -54 -126.5t-130 -47.5t-130 47.5zM415 0l-22 -59q83 -22 83 -83q0 -52 -40 -77t-97 -25q-62 0 -119 19l30 90q20 -7 45 -7q18 0 29 5t11 14q0 12 -16.5 17.5t-40.5 5.5
h-17l33 100h-244v701h593v-176h-361v-86h328v-176h-328v-87h370v-176h-237z" />
    <glyph glyph-name="uni1E1D" unicode="&#x1e1d;" horiz-adv-x="614" 
d="M171 642.5q-50 47.5 -54 126.5h135q2 -23 15.5 -36.5t33.5 -13.5t33.5 13.5t15.5 36.5h135q-4 -79 -54 -126.5t-130 -47.5t-130 47.5zM463 518q66 -37 101 -105.5t35 -160.5q0 -19 -1 -29h-356q11 -32 34.5 -48.5t56.5 -16.5q59 0 111 49l117 -115q-73 -81 -192 -96
l-20 -55q83 -22 83 -83q0 -52 -40 -77t-97 -25q-62 0 -119 19l30 90q20 -7 45 -7q18 0 29 5t11 14q0 12 -16.5 17.5t-40.5 5.5h-17l32 97q-111 16 -172.5 89t-61.5 185q0 86 36 150t102.5 99t153.5 35q90 0 156 -37zM356.5 383q-18.5 22 -47.5 22q-28 0 -46.5 -21t-25.5 -57
h136q2 34 -16.5 56z" />
    <glyph glyph-name="uni1E20" unicode="&#x1e20;" horiz-adv-x="738" 
d="M503 369h199v-293q-59 -40 -145.5 -66t-161.5 -26q-109 0 -195.5 47.5t-135.5 131t-49 188.5q0 104 51 187.5t141 130.5t203 47q82 0 164.5 -30t138.5 -80l-131 -159q-35 35 -82.5 55.5t-90.5 20.5q-44 0 -80 -22.5t-56 -61.5t-20 -88q0 -50 20.5 -89.5t56.5 -62
t81 -22.5q38 0 92 24v168zM220 880h380v-128h-380v128z" />
    <glyph glyph-name="uni1E21" unicode="&#x1e21;" horiz-adv-x="654" 
d="M601 547v-502q0 -75 -38.5 -131.5t-108 -87t-159.5 -30.5q-75 0 -143.5 20t-114.5 51l71 151q35 -22 81 -35t86 -13q49 0 75.5 18.5t26.5 50.5v52q-52 -58 -137 -58q-64 0 -115.5 32.5t-80.5 92.5t-29 139q0 77 28 135.5t78.5 90.5t114.5 32q88 0 141 -59v51h224z
M356 220q21 27 21 71q0 45 -20.5 72t-55.5 27t-55.5 -27t-20.5 -72q0 -44 21 -71t55 -27t55 27zM151 762h320v-128h-320v128z" />
    <glyph glyph-name="uni1E24" unicode="&#x1e24;" horiz-adv-x="781" 
d="M50 701h232v-272h217v272h232v-701h-232v253h-217v-253h-232v701zM470 -97q32 -32 32 -82t-32 -82t-82 -32t-82 32t-32 82t32 82t82 32t82 -32z" />
    <glyph glyph-name="uni1E25" unicode="&#x1e25;" horiz-adv-x="687" 
d="M552.5 531q44.5 -26 69.5 -73t25 -109v-349h-225v284q0 34 -18 54.5t-47 20.5q-33 0 -52.5 -24t-19.5 -64v-271h-225v742h225v-273q28 43 70.5 65.5t95.5 22.5q57 0 101.5 -26zM433 -97q32 -32 32 -82t-32 -82t-82 -32t-82 32t-32 82t32 82t82 32t82 -32z" />
    <glyph glyph-name="uni1E2A" unicode="&#x1e2a;" horiz-adv-x="781" 
d="M50 701h232v-272h217v272h232v-701h-232v253h-217v-253h-232v701zM357.5 -101.5q13.5 -13.5 33.5 -13.5t33.5 13.5t15.5 36.5h135q-4 -79 -54 -126.5t-130 -47.5t-130 47.5t-54 126.5h135q2 -23 15.5 -36.5z" />
    <glyph glyph-name="uni1E2B" unicode="&#x1e2b;" horiz-adv-x="687" 
d="M552.5 531q44.5 -26 69.5 -73t25 -109v-349h-225v284q0 34 -18 54.5t-47 20.5q-33 0 -52.5 -24t-19.5 -64v-271h-225v742h225v-273q28 43 70.5 65.5t95.5 22.5q57 0 101.5 -26zM320.5 -101.5q13.5 -13.5 33.5 -13.5t33.5 13.5t15.5 36.5h135q-4 -79 -54 -126.5
t-130 -47.5t-130 47.5t-54 126.5h135q2 -23 15.5 -36.5z" />
    <glyph glyph-name="uni1E2E" unicode="&#x1e2e;" horiz-adv-x="332" 
d="M50 701h232v-701h-232v701zM122.5 904.5q24.5 -24.5 24.5 -64.5q0 -38 -24.5 -63t-63.5 -25t-63.5 25t-24.5 63q0 40 24.5 64.5t63.5 24.5t63.5 -24.5zM336.5 904.5q24.5 -24.5 24.5 -64.5q0 -38 -24.5 -63t-63.5 -25t-63.5 25t-24.5 63q0 40 24.5 64.5t63.5 24.5
t63.5 -24.5zM204 1131l139 -81l-173 -93l-122 31z" />
    <glyph glyph-name="uni1E2F" unicode="&#x1e2f;" horiz-adv-x="335" 
d="M55 547h225v-547h-225v547zM124.5 753.5q24.5 -24.5 24.5 -64.5q0 -38 -24.5 -63t-63.5 -25t-63.5 25t-24.5 63q0 40 24.5 64.5t63.5 24.5t63.5 -24.5zM338.5 753.5q24.5 -24.5 24.5 -64.5q0 -38 -24.5 -63t-63.5 -25t-63.5 25t-24.5 63q0 40 24.5 64.5t63.5 24.5
t63.5 -24.5zM206 980l139 -81l-173 -93l-122 31z" />
    <glyph glyph-name="uni1E36" unicode="&#x1e36;" horiz-adv-x="584" 
d="M50 701h232v-508h292v-193h-524v701zM391 -97q32 -32 32 -82t-32 -82t-82 -32t-82 32t-32 82t32 82t82 32t82 -32z" />
    <glyph glyph-name="uni1E37" unicode="&#x1e37;" horiz-adv-x="345" 
d="M60 742h225v-742h-225v742zM252 -97q32 -32 32 -82t-32 -82t-82 -32t-82 32t-32 82t32 82t82 32t82 -32z" />
    <glyph glyph-name="uni1E3A" unicode="&#x1e3a;" horiz-adv-x="584" 
d="M50 701h232v-508h292v-193h-524v701zM152 -75h320v-128h-320v128z" />
    <glyph glyph-name="uni1E3B" unicode="&#x1e3b;" horiz-adv-x="345" 
d="M60 742h225v-742h-225v742zM13 -75h320v-128h-320v128z" />
    <glyph glyph-name="uni1E42" unicode="&#x1e42;" horiz-adv-x="939" 
d="M50 701h246l174 -366l173 366h246v-701h-203v384l-141 -316h-151l-141 316v-384h-203v701zM548 -97q32 -32 32 -82t-32 -82t-82 -32t-82 32t-32 82t32 82t82 32t82 -32z" />
    <glyph glyph-name="uni1E43" unicode="&#x1e43;" horiz-adv-x="1032" 
d="M899 531q44 -26 68.5 -73t24.5 -109v-349h-225v284q0 34 -17 54.5t-45 20.5q-31 0 -50 -24t-19 -64v-271h-225v284q0 34 -17 54.5t-45 20.5q-31 0 -50 -24t-19 -64v-271h-225v547h225v-77q28 42 69.5 64.5t93.5 22.5q62 0 108.5 -31t68.5 -86q27 56 72.5 86.5t106.5 30.5
q56 0 100 -26zM603 -97q32 -32 32 -82t-32 -82t-82 -32t-82 32t-32 82t32 82t82 32t82 -32z" />
    <glyph glyph-name="uni1E44" unicode="&#x1e44;" horiz-adv-x="781" 
d="M521 701h210v-701h-194l-276 358v-358h-211v701h194l277 -360v360zM473 948q32 -32 32 -82t-32 -82t-82 -32t-82 32t-32 82t32 82t82 32t82 -32z" />
    <glyph glyph-name="uni1E45" unicode="&#x1e45;" horiz-adv-x="682" 
d="M547.5 531q44.5 -26 69.5 -73t25 -109v-349h-225v284q0 34 -18 54.5t-47 20.5q-33 0 -52.5 -24t-19.5 -64v-271h-225v547h225v-78q28 43 70.5 65.5t95.5 22.5q57 0 101.5 -26zM439 785q32 -32 32 -82t-32 -82t-82 -32t-82 32t-32 82t32 82t82 32t82 -32z" />
    <glyph glyph-name="uni1E46" unicode="&#x1e46;" horiz-adv-x="781" 
d="M521 701h210v-701h-194l-276 358v-358h-211v701h194l277 -360v360zM478 -97q32 -32 32 -82t-32 -82t-82 -32t-82 32t-32 82t32 82t82 32t82 -32z" />
    <glyph glyph-name="uni1E47" unicode="&#x1e47;" horiz-adv-x="682" 
d="M547.5 531q44.5 -26 69.5 -73t25 -109v-349h-225v284q0 34 -18 54.5t-47 20.5q-33 0 -52.5 -24t-19.5 -64v-271h-225v547h225v-78q28 43 70.5 65.5t95.5 22.5q57 0 101.5 -26zM426 -97q32 -32 32 -82t-32 -82t-82 -32t-82 32t-32 82t32 82t82 32t82 -32z" />
    <glyph glyph-name="uni1E48" unicode="&#x1e48;" horiz-adv-x="781" 
d="M521 701h210v-701h-194l-276 358v-358h-211v701h194l277 -360v360zM239 -75h320v-128h-320v128z" />
    <glyph glyph-name="uni1E49" unicode="&#x1e49;" horiz-adv-x="682" 
d="M547.5 531q44.5 -26 69.5 -73t25 -109v-349h-225v284q0 34 -18 54.5t-47 20.5q-33 0 -52.5 -24t-19.5 -64v-271h-225v547h225v-78q28 43 70.5 65.5t95.5 22.5q57 0 101.5 -26zM187 -75h320v-128h-320v128z" />
    <glyph glyph-name="uni1E4C" unicode="&#x1e4c;" horiz-adv-x="800" 
d="M598 669q88 -47 137.5 -130t49.5 -187q0 -105 -49.5 -189t-137.5 -131.5t-198 -47.5t-198 47.5t-137.5 131.5t-49.5 189t49.5 188t137.5 129.5t198 46.5t198 -47zM328.5 500.5q-34.5 -22.5 -55 -61.5t-20.5 -88t20.5 -88.5t55 -62.5t74.5 -23t73 22.5t52 62.5t19 89
t-19 88.5t-52 61.5t-73 22t-74.5 -22.5zM568 785.5q-25 -35.5 -81 -35.5q-27 0 -50.5 6.5t-53.5 18.5q-35 13 -47 13q-17 0 -23.5 -8.5t-6.5 -27.5h-100q0 76 25 112t81 36q28 0 51.5 -6.5t53.5 -18.5q13 -5 25.5 -9t20.5 -4q16 0 23 8.5t8 26.5h99q0 -76 -25 -111.5z
M439 1115l139 -81l-173 -93l-122 31z" />
    <glyph glyph-name="uni1E4D" unicode="&#x1e4d;" horiz-adv-x="648" 
d="M487 520.5q70 -34.5 108 -98t38 -148.5t-38 -148.5t-108 -98.5t-163 -35t-163 35t-108 98.5t-38 148.5t38 148.5t108 98t163 34.5t163 -34.5zM264.5 348q-22.5 -29 -22.5 -77t22.5 -77t59.5 -29t59.5 29t22.5 77t-22.5 77t-59.5 29t-59.5 -29zM492 634.5
q-25 -35.5 -81 -35.5q-27 0 -50.5 6.5t-53.5 18.5q-35 13 -47 13q-17 0 -23.5 -8.5t-6.5 -27.5h-100q0 76 25 112t81 36q28 0 51.5 -6.5t53.5 -18.5q13 -5 25.5 -9t20.5 -4q16 0 23 8.5t8 26.5h99q0 -76 -25 -111.5zM363 964l139 -81l-173 -93l-122 31z" />
    <glyph glyph-name="uni1E4E" unicode="&#x1e4e;" horiz-adv-x="800" 
d="M598 669q88 -47 137.5 -130t49.5 -187q0 -105 -49.5 -189t-137.5 -131.5t-198 -47.5t-198 47.5t-137.5 131.5t-49.5 189t49.5 188t137.5 129.5t198 46.5t198 -47zM328.5 500.5q-34.5 -22.5 -55 -61.5t-20.5 -88t20.5 -88.5t55 -62.5t74.5 -23t73 22.5t52 62.5t19 89
t-19 88.5t-52 61.5t-73 22t-74.5 -22.5zM555 785.5q-25 -35.5 -81 -35.5q-27 0 -50.5 6.5t-53.5 18.5q-35 13 -47 13q-17 0 -23.5 -8.5t-6.5 -27.5h-100q0 76 25 112t81 36q28 0 51.5 -6.5t53.5 -18.5q13 -5 25.5 -9t20.5 -4q16 0 23 8.5t8 26.5h99q0 -76 -25 -111.5z
M344.5 1093.5q24.5 -24.5 24.5 -64.5q0 -38 -24.5 -63t-63.5 -25t-63.5 25t-24.5 63q0 40 24.5 64.5t63.5 24.5t63.5 -24.5zM558.5 1093.5q24.5 -24.5 24.5 -64.5q0 -38 -24.5 -63t-63.5 -25t-63.5 25t-24.5 63q0 40 24.5 64.5t63.5 24.5t63.5 -24.5z" />
    <glyph glyph-name="uni1E4F" unicode="&#x1e4f;" horiz-adv-x="648" 
d="M487 520.5q70 -34.5 108 -98t38 -148.5t-38 -148.5t-108 -98.5t-163 -35t-163 35t-108 98.5t-38 148.5t38 148.5t108 98t163 34.5t163 -34.5zM264.5 348q-22.5 -29 -22.5 -77t22.5 -77t59.5 -29t59.5 29t22.5 77t-22.5 77t-59.5 29t-59.5 -29zM477 634.5
q-25 -35.5 -81 -35.5q-27 0 -50.5 6.5t-53.5 18.5q-35 13 -47 13q-17 0 -23.5 -8.5t-6.5 -27.5h-100q0 76 25 112t81 36q28 0 51.5 -6.5t53.5 -18.5q13 -5 25.5 -9t20.5 -4q16 0 23 8.5t8 26.5h99q0 -76 -25 -111.5zM266.5 942.5q24.5 -24.5 24.5 -64.5q0 -38 -24.5 -63
t-63.5 -25t-63.5 25t-24.5 63q0 40 24.5 64.5t63.5 24.5t63.5 -24.5zM480.5 942.5q24.5 -24.5 24.5 -64.5q0 -38 -24.5 -63t-63.5 -25t-63.5 25t-24.5 63q0 40 24.5 64.5t63.5 24.5t63.5 -24.5z" />
    <glyph glyph-name="uni1E50" unicode="&#x1e50;" horiz-adv-x="800" 
d="M598 669q88 -47 137.5 -130t49.5 -187q0 -105 -49.5 -189t-137.5 -131.5t-198 -47.5t-198 47.5t-137.5 131.5t-49.5 189t49.5 188t137.5 129.5t198 46.5t198 -47zM328.5 500.5q-34.5 -22.5 -55 -61.5t-20.5 -88t20.5 -88.5t55 -62.5t74.5 -23t73 22.5t52 62.5t19 89
t-19 88.5t-52 61.5t-73 22t-74.5 -22.5zM253 871h320v-119h-320v119zM365 1090l156 -143l-122 -31l-173 93z" />
    <glyph glyph-name="uni1E51" unicode="&#x1e51;" horiz-adv-x="648" 
d="M487 520.5q70 -34.5 108 -98t38 -148.5t-38 -148.5t-108 -98.5t-163 -35t-163 35t-108 98.5t-38 148.5t38 148.5t108 98t163 34.5t163 -34.5zM264.5 348q-22.5 -29 -22.5 -77t22.5 -77t59.5 -29t59.5 29t22.5 77t-22.5 77t-59.5 29t-59.5 -29zM137 720h320v-119h-320v119
zM249 939l156 -143l-122 -31l-173 93z" />
    <glyph glyph-name="uni1E52" unicode="&#x1e52;" horiz-adv-x="800" 
d="M598 669q88 -47 137.5 -130t49.5 -187q0 -105 -49.5 -189t-137.5 -131.5t-198 -47.5t-198 47.5t-137.5 131.5t-49.5 189t49.5 188t137.5 129.5t198 46.5t198 -47zM328.5 500.5q-34.5 -22.5 -55 -61.5t-20.5 -88t20.5 -88.5t55 -62.5t74.5 -23t73 22.5t52 62.5t19 89
t-19 88.5t-52 61.5t-73 22t-74.5 -22.5zM231 871h320v-119h-320v119zM429 1090l139 -81l-173 -93l-122 31z" />
    <glyph glyph-name="uni1E53" unicode="&#x1e53;" horiz-adv-x="648" 
d="M487 520.5q70 -34.5 108 -98t38 -148.5t-38 -148.5t-108 -98.5t-163 -35t-163 35t-108 98.5t-38 148.5t38 148.5t108 98t163 34.5t163 -34.5zM264.5 348q-22.5 -29 -22.5 -77t22.5 -77t59.5 -29t59.5 29t22.5 77t-22.5 77t-59.5 29t-59.5 -29zM134 720h320v-119h-320v119
zM332 939l139 -81l-173 -93l-122 31z" />
    <glyph glyph-name="uni1E5A" unicode="&#x1e5a;" horiz-adv-x="725" 
d="M453 0l-84 182h-87v-182h-232v701h339q143 0 221 -65.5t78 -185.5q0 -76 -28.5 -132.5t-82.5 -89.5l138 -228h-262zM282 358h107q38 0 58.5 22.5t20.5 62.5q0 39 -20.5 60.5t-58.5 21.5h-107v-167zM438 -97q32 -32 32 -82t-32 -82t-82 -32t-82 32t-32 82t32 82t82 32
t82 -32z" />
    <glyph glyph-name="uni1E5B" unicode="&#x1e5b;" horiz-adv-x="457" 
d="M351.5 533.5q42.5 23.5 95.5 23.5v-203q-22 3 -43 3q-58 0 -91 -25.5t-33 -70.5v-261h-225v547h225v-80q29 43 71.5 66.5zM247 -97q32 -32 32 -82t-32 -82t-82 -32t-82 32t-32 82t32 82t82 32t82 -32z" />
    <glyph glyph-name="uni1E5E" unicode="&#x1e5e;" horiz-adv-x="725" 
d="M453 0l-84 182h-87v-182h-232v701h339q143 0 221 -65.5t78 -185.5q0 -76 -28.5 -132.5t-82.5 -89.5l138 -228h-262zM282 358h107q38 0 58.5 22.5t20.5 62.5q0 39 -20.5 60.5t-58.5 21.5h-107v-167zM199 -75h320v-128h-320v128z" />
    <glyph glyph-name="uni1E5F" unicode="&#x1e5f;" horiz-adv-x="457" 
d="M351.5 533.5q42.5 23.5 95.5 23.5v-203q-22 3 -43 3q-58 0 -91 -25.5t-33 -70.5v-261h-225v547h225v-80q29 43 71.5 66.5zM8 -75h320v-128h-320v128z" />
    <glyph glyph-name="uni1E60" unicode="&#x1e60;" horiz-adv-x="664" 
d="M448 516q-70 25 -114 25q-43 0 -43 -31q0 -24 27.5 -37t87.5 -29q75 -21 124.5 -42t86.5 -66.5t37 -119.5q0 -76 -39.5 -127.5t-106.5 -76.5t-149 -25q-93 0 -187.5 30.5t-163.5 83.5l86 175q53 -46 133 -78.5t134 -32.5q26 0 41 9.5t15 29.5q0 24 -28.5 37.5t-89.5 28.5
q-74 19 -123.5 39.5t-85.5 63.5t-36 115q0 70 37 122.5t105 80.5t158 28q82 0 163.5 -23t141.5 -61l-84 -177q-57 33 -127 58zM441 948q32 -32 32 -82t-32 -82t-82 -32t-82 32t-32 82t32 82t82 32t82 -32z" />
    <glyph glyph-name="uni1E61" unicode="&#x1e61;" horiz-adv-x="552" 
d="M274 409q-14 0 -22.5 -5t-8.5 -13q0 -12 18 -20t60 -19q59 -16 101 -33t73.5 -52t31.5 -91t-30.5 -98t-86.5 -65t-131 -23q-153 0 -267 78l68 140q110 -68 202 -68q16 0 25 4.5t9 11.5q0 11 -17.5 18.5t-56.5 17.5q-59 15 -100 32t-72.5 52t-31.5 92t30 99.5t84.5 66
t126.5 23.5q131 0 254 -69l-74 -139q-122 60 -185 60zM368 785q32 -32 32 -82t-32 -82t-82 -32t-82 32t-32 82t32 82t82 32t82 -32z" />
    <glyph glyph-name="uni1E62" unicode="&#x1e62;" horiz-adv-x="664" 
d="M448 516q-70 25 -114 25q-43 0 -43 -31q0 -24 27.5 -37t87.5 -29q75 -21 124.5 -42t86.5 -66.5t37 -119.5q0 -76 -39.5 -127.5t-106.5 -76.5t-149 -25q-93 0 -187.5 30.5t-163.5 83.5l86 175q53 -46 133 -78.5t134 -32.5q26 0 41 9.5t15 29.5q0 24 -28.5 37.5t-89.5 28.5
q-74 19 -123.5 39.5t-85.5 63.5t-36 115q0 70 37 122.5t105 80.5t158 28q82 0 163.5 -23t141.5 -61l-84 -177q-57 33 -127 58zM424 -97q32 -32 32 -82t-32 -82t-82 -32t-82 32t-32 82t32 82t82 32t82 -32z" />
    <glyph glyph-name="uni1E63" unicode="&#x1e63;" horiz-adv-x="552" 
d="M274 409q-14 0 -22.5 -5t-8.5 -13q0 -12 18 -20t60 -19q59 -16 101 -33t73.5 -52t31.5 -91t-30.5 -98t-86.5 -65t-131 -23q-153 0 -267 78l68 140q110 -68 202 -68q16 0 25 4.5t9 11.5q0 11 -17.5 18.5t-56.5 17.5q-59 15 -100 32t-72.5 52t-31.5 92t30 99.5t84.5 66
t126.5 23.5q131 0 254 -69l-74 -139q-122 60 -185 60zM354 -97q32 -32 32 -82t-32 -82t-82 -32t-82 32t-32 82t32 82t82 32t82 -32z" />
    <glyph glyph-name="uni1E64" unicode="&#x1e64;" horiz-adv-x="664" 
d="M448 516q-70 25 -114 25q-43 0 -43 -31q0 -24 27.5 -37t87.5 -29q75 -21 124.5 -42t86.5 -66.5t37 -119.5q0 -76 -39.5 -127.5t-106.5 -76.5t-149 -25q-93 0 -187.5 30.5t-163.5 83.5l86 175q53 -46 133 -78.5t134 -32.5q26 0 41 9.5t15 29.5q0 24 -28.5 37.5t-89.5 28.5
q-74 19 -123.5 39.5t-85.5 63.5t-36 115q0 70 37 122.5t105 80.5t158 28q82 0 163.5 -23t141.5 -61l-84 -177q-57 33 -127 58zM366 916l139 -81l-173 -93l-122 31zM427.5 1111.5q26.5 -26.5 26.5 -69.5q0 -42 -26.5 -69t-69.5 -27q-42 0 -69 27t-27 69q0 43 27 69.5t69 26.5
q43 0 69.5 -26.5z" />
    <glyph glyph-name="uni1E65" unicode="&#x1e65;" horiz-adv-x="552" 
d="M274 409q-14 0 -22.5 -5t-8.5 -13q0 -12 18 -20t60 -19q59 -16 101 -33t73.5 -52t31.5 -91t-30.5 -98t-86.5 -65t-131 -23q-153 0 -267 78l68 140q110 -68 202 -68q16 0 25 4.5t9 11.5q0 11 -17.5 18.5t-56.5 17.5q-59 15 -100 32t-72.5 52t-31.5 92t30 99.5t84.5 66
t126.5 23.5q131 0 254 -69l-74 -139q-122 60 -185 60zM297 775l139 -81l-173 -93l-122 31zM358.5 970.5q26.5 -26.5 26.5 -69.5q0 -42 -26.5 -69t-69.5 -27q-42 0 -69 27t-27 69q0 43 27 69.5t69 26.5q43 0 69.5 -26.5z" />
    <glyph glyph-name="uni1E66" unicode="&#x1e66;" horiz-adv-x="664" 
d="M448 516q-70 25 -114 25q-43 0 -43 -31q0 -24 27.5 -37t87.5 -29q75 -21 124.5 -42t86.5 -66.5t37 -119.5q0 -76 -39.5 -127.5t-106.5 -76.5t-149 -25q-93 0 -187.5 30.5t-163.5 83.5l86 175q53 -46 133 -78.5t134 -32.5q26 0 41 9.5t15 29.5q0 24 -28.5 37.5t-89.5 28.5
q-74 19 -123.5 39.5t-85.5 63.5t-36 115q0 70 37 122.5t105 80.5t158 28q82 0 163.5 -23t141.5 -61l-84 -177q-57 33 -127 58zM434 890h160l-123 -138h-203l-124 138h161l64 -71zM438.5 1110.5q26.5 -26.5 26.5 -69.5q0 -42 -26.5 -69t-69.5 -27q-42 0 -69 27t-27 69
q0 43 27 69.5t69 26.5q43 0 69.5 -26.5z" />
    <glyph glyph-name="uni1E67" unicode="&#x1e67;" horiz-adv-x="552" 
d="M274 409q-14 0 -22.5 -5t-8.5 -13q0 -12 18 -20t60 -19q59 -16 101 -33t73.5 -52t31.5 -91t-30.5 -98t-86.5 -65t-131 -23q-153 0 -267 78l68 140q110 -68 202 -68q16 0 25 4.5t9 11.5q0 11 -17.5 18.5t-56.5 17.5q-59 15 -100 32t-72.5 52t-31.5 92t30 99.5t84.5 66
t126.5 23.5q131 0 254 -69l-74 -139q-122 60 -185 60zM364 739h160l-123 -138h-203l-124 138h161l64 -71zM368.5 959.5q26.5 -26.5 26.5 -69.5q0 -42 -26.5 -69t-69.5 -27q-42 0 -69 27t-27 69q0 43 27 69.5t69 26.5q43 0 69.5 -26.5z" />
    <glyph glyph-name="uni1E68" unicode="&#x1e68;" horiz-adv-x="664" 
d="M448 516q-70 25 -114 25q-43 0 -43 -31q0 -24 27.5 -37t87.5 -29q75 -21 124.5 -42t86.5 -66.5t37 -119.5q0 -76 -39.5 -127.5t-106.5 -76.5t-149 -25q-93 0 -187.5 30.5t-163.5 83.5l86 175q53 -46 133 -78.5t134 -32.5q26 0 41 9.5t15 29.5q0 24 -28.5 37.5t-89.5 28.5
q-74 19 -123.5 39.5t-85.5 63.5t-36 115q0 70 37 122.5t105 80.5t158 28q82 0 163.5 -23t141.5 -61l-84 -177q-57 33 -127 58zM424 -97q32 -32 32 -82t-32 -82t-82 -32t-82 32t-32 82t32 82t82 32t82 -32zM427 948q32 -32 32 -82t-32 -82t-82 -32t-82 32t-32 82t32 82t82 32
t82 -32z" />
    <glyph glyph-name="uni1E69" unicode="&#x1e69;" horiz-adv-x="552" 
d="M274 409q-14 0 -22.5 -5t-8.5 -13q0 -12 18 -20t60 -19q59 -16 101 -33t73.5 -52t31.5 -91t-30.5 -98t-86.5 -65t-131 -23q-153 0 -267 78l68 140q110 -68 202 -68q16 0 25 4.5t9 11.5q0 11 -17.5 18.5t-56.5 17.5q-59 15 -100 32t-72.5 52t-31.5 92t30 99.5t84.5 66
t126.5 23.5q131 0 254 -69l-74 -139q-122 60 -185 60zM354 -97q32 -32 32 -82t-32 -82t-82 -32t-82 32t-32 82t32 82t82 32t82 -32zM354 785q32 -32 32 -82t-32 -82t-82 -32t-82 32t-32 82t32 82t82 32t82 -32z" />
    <glyph glyph-name="uni1E6C" unicode="&#x1e6c;" horiz-adv-x="641" 
d="M5 701h631v-183h-200v-518h-232v518h-199v183zM399 -97q32 -32 32 -82t-32 -82t-82 -32t-82 32t-32 82t32 82t82 32t82 -32z" />
    <glyph glyph-name="uni1E6D" unicode="&#x1e6d;" horiz-adv-x="460" 
d="M445 24q-27 -16 -70.5 -25t-88.5 -9q-92 0 -147.5 50.5t-55.5 135.5v199h-75v142h75v153h224v-153h128v-142h-128v-165q0 -22 12 -34.5t32 -11.5q19 0 56 14zM361 -97q32 -32 32 -82t-32 -82t-82 -32t-82 32t-32 82t32 82t82 32t82 -32z" />
    <glyph glyph-name="uni1E6E" unicode="&#x1e6e;" horiz-adv-x="641" 
d="M5 701h631v-183h-200v-518h-232v518h-199v183zM160 -75h320v-128h-320v128z" />
    <glyph glyph-name="uni1E6F" unicode="&#x1e6f;" horiz-adv-x="460" 
d="M445 24q-27 -16 -70.5 -25t-88.5 -9q-92 0 -147.5 50.5t-55.5 135.5v199h-75v142h75v153h224v-153h128v-142h-128v-165q0 -22 12 -34.5t32 -11.5q19 0 56 14zM122 -75h320v-128h-320v128z" />
    <glyph glyph-name="uni1E78" unicode="&#x1e78;" horiz-adv-x="741" 
d="M302 209q30 -32 72 -32q41 0 68 31.5t27 82.5v410h232v-410q0 -92 -40.5 -161.5t-114.5 -107.5t-173 -38t-174.5 38t-117 107.5t-41.5 161.5v410h232v-410q0 -50 30 -82zM539 785.5q-25 -35.5 -81 -35.5q-27 0 -50.5 6.5t-53.5 18.5q-35 13 -47 13q-17 0 -23.5 -8.5
t-6.5 -27.5h-100q0 76 25 112t81 36q28 0 51.5 -6.5t53.5 -18.5q13 -5 25.5 -9t20.5 -4q16 0 23 8.5t8 26.5h99q0 -76 -25 -111.5zM410 1115l139 -81l-173 -93l-122 31z" />
    <glyph glyph-name="uni1E79" unicode="&#x1e79;" horiz-adv-x="672" 
d="M617 547v-547h-225v76q-27 -42 -68 -64t-93 -22q-56 0 -99 26t-67.5 73t-24.5 109v349h225v-284q0 -34 16.5 -54.5t43.5 -20.5q31 0 49 24t18 64v271h225zM504 634.5q-25 -35.5 -81 -35.5q-27 0 -50.5 6.5t-53.5 18.5q-35 13 -47 13q-17 0 -23.5 -8.5t-6.5 -27.5h-100
q0 76 25 112t81 36q28 0 51.5 -6.5t53.5 -18.5q13 -5 25.5 -9t20.5 -4q16 0 23 8.5t8 26.5h99q0 -76 -25 -111.5zM375 964l139 -81l-173 -93l-122 31z" />
    <glyph glyph-name="uni1E7A" unicode="&#x1e7a;" horiz-adv-x="741" 
d="M302 209q30 -32 72 -32q41 0 68 31.5t27 82.5v410h232v-410q0 -92 -40.5 -161.5t-114.5 -107.5t-173 -38t-174.5 38t-117 107.5t-41.5 161.5v410h232v-410q0 -50 30 -82zM170 871h320v-119h-320v119zM286.5 1068.5q24.5 -24.5 24.5 -64.5q0 -38 -24.5 -63t-63.5 -25
t-63.5 25t-24.5 63q0 40 24.5 64.5t63.5 24.5t63.5 -24.5zM500.5 1068.5q24.5 -24.5 24.5 -64.5q0 -38 -24.5 -63t-63.5 -25t-63.5 25t-24.5 63q0 40 24.5 64.5t63.5 24.5t63.5 -24.5z" />
    <glyph glyph-name="uni1E7B" unicode="&#x1e7b;" horiz-adv-x="672" 
d="M617 547v-547h-225v76q-27 -42 -68 -64t-93 -22q-56 0 -99 26t-67.5 73t-24.5 109v349h225v-284q0 -34 16.5 -54.5t43.5 -20.5q31 0 49 24t18 64v271h225zM132 720h320v-119h-320v119zM248.5 917.5q24.5 -24.5 24.5 -64.5q0 -38 -24.5 -63t-63.5 -25t-63.5 25t-24.5 63
q0 40 24.5 64.5t63.5 24.5t63.5 -24.5zM462.5 917.5q24.5 -24.5 24.5 -64.5q0 -38 -24.5 -63t-63.5 -25t-63.5 25t-24.5 63q0 40 24.5 64.5t63.5 24.5t63.5 -24.5z" />
    <glyph glyph-name="Wgrave" unicode="&#x1e80;" horiz-adv-x="1151" 
d="M919 701h237l-237 -701h-238l-105 419l-108 -419h-238l-235 701h248l113 -460l112 460h226l114 -460zM569 934l111 -179l-143 -10l-138 129z" />
    <glyph glyph-name="wgrave" unicode="&#x1e81;" horiz-adv-x="977" 
d="M-10 547h228l87 -326l84 326h208l87 -326l86 326h217l-200 -547h-220l-78 288l-81 -288h-220zM482 780l111 -179l-143 -10l-138 129z" />
    <glyph glyph-name="Wacute" unicode="&#x1e82;" horiz-adv-x="1151" 
d="M919 701h237l-237 -701h-238l-105 419l-108 -419h-238l-235 701h248l113 -460l112 460h226l114 -460zM599 934l169 -60l-162 -129l-142 10z" />
    <glyph glyph-name="wacute" unicode="&#x1e83;" horiz-adv-x="977" 
d="M-10 547h228l87 -326l84 326h208l87 -326l86 326h217l-200 -547h-220l-78 288l-81 -288h-220zM512 780l169 -60l-162 -129l-142 10z" />
    <glyph glyph-name="Wdieresis" unicode="&#x1e84;" horiz-adv-x="1151" 
d="M919 701h237l-237 -701h-238l-105 419l-108 -419h-238l-235 701h248l113 -460l112 460h226l114 -460zM538.5 904q24.5 -25 24.5 -64q0 -38 -24.5 -63t-63.5 -25t-63.5 25t-24.5 63q0 39 24.5 64t63.5 25t63.5 -25zM740.5 904q24.5 -25 24.5 -64q0 -38 -24.5 -63
t-63.5 -25t-63.5 25t-24.5 63q0 39 24.5 64t63.5 25t63.5 -25z" />
    <glyph glyph-name="wdieresis" unicode="&#x1e85;" horiz-adv-x="977" 
d="M-10 547h228l87 -326l84 326h208l87 -326l86 326h217l-200 -547h-220l-78 288l-81 -288h-220zM451.5 757q24.5 -25 24.5 -64q0 -38 -24.5 -63t-63.5 -25t-63.5 25t-24.5 63q0 39 24.5 64t63.5 25t63.5 -25zM653.5 757q24.5 -25 24.5 -64q0 -38 -24.5 -63t-63.5 -25
t-63.5 25t-24.5 63q0 39 24.5 64t63.5 25t63.5 -25z" />
    <glyph glyph-name="uni1E8E" unicode="&#x1e8e;" horiz-adv-x="719" 
d="M729 701l-251 -483v-218h-232v213l-256 488h231l141 -270l136 270h231zM442 948q32 -32 32 -82t-32 -82t-82 -32t-82 32t-32 82t32 82t82 32t82 -32z" />
    <glyph glyph-name="uni1E8F" unicode="&#x1e8f;" horiz-adv-x="624" 
d="M316 -163.5q-59 -40.5 -147 -40.5q-54 0 -99.5 15.5t-89.5 48.5l94 148q35 -32 73 -32t54 28l8 13l-227 530h231l108 -312l89 312h224l-225 -585q-34 -85 -93 -125.5zM391 785q32 -32 32 -82t-32 -82t-82 -32t-82 32t-32 82t32 82t82 32t82 -32z" />
    <glyph glyph-name="uni1E92" unicode="&#x1e92;" horiz-adv-x="683" 
d="M32 701h624v-145l-327 -378h334v-178h-643v145l327 378h-315v178zM421 -97q32 -32 32 -82t-32 -82t-82 -32t-82 32t-32 82t32 82t82 32t82 -32z" />
    <glyph glyph-name="uni1E93" unicode="&#x1e93;" horiz-adv-x="568" 
d="M35 547h502v-131l-228 -248h238v-168h-522v131l228 248h-218v168zM365 -97q32 -32 32 -82t-32 -82t-82 -32t-82 32t-32 82t32 82t82 32t82 -32z" />
    <glyph glyph-name="uni1E97" unicode="&#x1e97;" horiz-adv-x="460" 
d="M445 24q-27 -16 -70.5 -25t-88.5 -9q-92 0 -147.5 50.5t-55.5 135.5v199h-75v142h75v153h224v-153h128v-142h-128v-165q0 -22 12 -34.5t32 -11.5q19 0 56 14zM157.5 880q24.5 -25 24.5 -64q0 -38 -24.5 -63t-63.5 -25t-63.5 25t-24.5 63q0 39 24.5 64t63.5 25t63.5 -25z
M359.5 880q24.5 -25 24.5 -64q0 -38 -24.5 -63t-63.5 -25t-63.5 25t-24.5 63q0 39 24.5 64t63.5 25t63.5 -25z" />
    <glyph glyph-name="uni1E9E" unicode="&#x1e9e;" horiz-adv-x="736" 
d="M681 322q35 -48 35 -114q0 -96 -73 -152t-213 -56h-82v170h41q41 0 64 16.5t23 44.5t-23 43.5t-64 15.5h-16v120l91 112q-27 5 -51 5q-72 0 -112 -42t-40 -116v-369h-231v349q0 113 43 194.5t124.5 124.5t194.5 43q74 0 140.5 -18.5t119.5 -51.5v-159l-69 -90
q63 -22 98 -70z" />
    <glyph glyph-name="uni1EA0" unicode="&#x1ea0;" horiz-adv-x="799" 
d="M562 0l-35 99h-263l-36 -99h-238l296 701h238l285 -701h-247zM324 265h146l-72 205zM470 -97q32 -32 32 -82t-32 -82t-82 -32t-82 32t-32 82t32 82t82 32t82 -32z" />
    <glyph glyph-name="uni1EA1" unicode="&#x1ea1;" horiz-adv-x="613" 
d="M506.5 503.5q66.5 -53.5 66.5 -149.5v-354h-221v59q-50 -69 -154 -69q-86 0 -134.5 46.5t-48.5 125.5q0 81 54 123t158 44h125q-1 29 -22.5 44.5t-62.5 15.5q-32 0 -76.5 -9t-89.5 -26l-50 150q70 26 139.5 39.5t130.5 13.5q119 0 185.5 -53.5zM318.5 144
q20.5 11 33.5 31v50h-78q-48 0 -48 -44q0 -23 13 -35.5t37 -12.5q22 0 42.5 11zM364 -97q32 -32 32 -82t-32 -82t-82 -32t-82 32t-32 82t32 82t82 32t82 -32z" />
    <glyph glyph-name="uni1EA2" unicode="&#x1ea2;" horiz-adv-x="799" 
d="M562 0l-35 99h-263l-36 -99h-238l296 701h238l285 -701h-247zM324 265h146l-72 205zM501.5 962.5q30.5 -28.5 30.5 -73.5q0 -77 -94 -148l-92 37q22 19 34.5 38t12.5 36q0 13 -7.5 20t-20.5 7q-21 0 -39 -15l-54 83q70 44 139 44q60 0 90.5 -28.5z" />
    <glyph glyph-name="uni1EA3" unicode="&#x1ea3;" horiz-adv-x="613" 
d="M506.5 503.5q66.5 -53.5 66.5 -149.5v-354h-221v59q-50 -69 -154 -69q-86 0 -134.5 46.5t-48.5 125.5q0 81 54 123t158 44h125q-1 29 -22.5 44.5t-62.5 15.5q-32 0 -76.5 -9t-89.5 -26l-50 150q70 26 139.5 39.5t130.5 13.5q119 0 185.5 -53.5zM318.5 144
q20.5 11 33.5 31v50h-78q-48 0 -48 -44q0 -23 13 -35.5t37 -12.5q22 0 42.5 11zM409.5 808.5q30.5 -28.5 30.5 -73.5q0 -77 -94 -148l-92 37q22 19 34.5 38t12.5 36q0 13 -7.5 20t-20.5 7q-21 0 -39 -15l-54 83q70 44 139 44q60 0 90.5 -28.5z" />
    <glyph glyph-name="uni1EA4" unicode="&#x1ea4;" horiz-adv-x="799" 
d="M562 0l-35 99h-263l-36 -99h-238l296 701h238l285 -701h-247zM324 265h146l-72 205zM624 752h-161l-64 71l-65 -71h-160l123 138h203zM437 1095l139 -81l-173 -93l-122 31z" />
    <glyph glyph-name="uni1EA5" unicode="&#x1ea5;" horiz-adv-x="613" 
d="M506.5 503.5q66.5 -53.5 66.5 -149.5v-354h-221v59q-50 -69 -154 -69q-86 0 -134.5 46.5t-48.5 125.5q0 81 54 123t158 44h125q-1 29 -22.5 44.5t-62.5 15.5q-32 0 -76.5 -9t-89.5 -26l-50 150q70 26 139.5 39.5t130.5 13.5q119 0 185.5 -53.5zM318.5 144
q20.5 11 33.5 31v50h-78q-48 0 -48 -44q0 -23 13 -35.5t37 -12.5q22 0 42.5 11zM532 601h-161l-64 71l-65 -71h-160l123 138h203zM345 944l139 -81l-173 -93l-122 31z" />
    <glyph glyph-name="uni1EA6" unicode="&#x1ea6;" horiz-adv-x="799" 
d="M562 0l-35 99h-263l-36 -99h-238l296 701h238l285 -701h-247zM324 265h146l-72 205zM624 752h-161l-64 71l-65 -71h-160l123 138h203zM351 1095l156 -143l-122 -31l-173 93z" />
    <glyph glyph-name="uni1EA7" unicode="&#x1ea7;" horiz-adv-x="613" 
d="M506.5 503.5q66.5 -53.5 66.5 -149.5v-354h-221v59q-50 -69 -154 -69q-86 0 -134.5 46.5t-48.5 125.5q0 81 54 123t158 44h125q-1 29 -22.5 44.5t-62.5 15.5q-32 0 -76.5 -9t-89.5 -26l-50 150q70 26 139.5 39.5t130.5 13.5q119 0 185.5 -53.5zM318.5 144
q20.5 11 33.5 31v50h-78q-48 0 -48 -44q0 -23 13 -35.5t37 -12.5q22 0 42.5 11zM532 601h-161l-64 71l-65 -71h-160l123 138h203zM259 944l156 -143l-122 -31l-173 93z" />
    <glyph glyph-name="uni1EA8" unicode="&#x1ea8;" horiz-adv-x="799" 
d="M562 0l-35 99h-263l-36 -99h-238l296 701h238l285 -701h-247zM324 265h146l-72 205zM634 752h-161l-64 71l-65 -71h-160l123 138h203zM486.5 1080.5q24.5 -22.5 24.5 -53.5t-18.5 -55.5t-60.5 -50.5l-83 31q20 11 29.5 19.5t9.5 18.5q0 16 -21 16q-19 0 -31 -11l-49 70
q63 38 123 38q52 0 76.5 -22.5z" />
    <glyph glyph-name="uni1EA9" unicode="&#x1ea9;" horiz-adv-x="613" 
d="M506.5 503.5q66.5 -53.5 66.5 -149.5v-354h-221v59q-50 -69 -154 -69q-86 0 -134.5 46.5t-48.5 125.5q0 81 54 123t158 44h125q-1 29 -22.5 44.5t-62.5 15.5q-32 0 -76.5 -9t-89.5 -26l-50 150q70 26 139.5 39.5t130.5 13.5q119 0 185.5 -53.5zM318.5 144
q20.5 11 33.5 31v50h-78q-48 0 -48 -44q0 -23 13 -35.5t37 -12.5q22 0 42.5 11zM532 601h-161l-64 71l-65 -71h-160l123 138h203zM384.5 929.5q24.5 -22.5 24.5 -53.5t-18.5 -55.5t-60.5 -50.5l-83 31q20 11 29.5 19.5t9.5 18.5q0 16 -21 16q-19 0 -31 -11l-49 70
q63 38 123 38q52 0 76.5 -22.5z" />
    <glyph glyph-name="uni1EAA" unicode="&#x1eaa;" horiz-adv-x="799" 
d="M562 0l-35 99h-263l-36 -99h-238l296 701h238l285 -701h-247zM324 265h146l-72 205zM614 752h-161l-64 71l-65 -71h-160l123 138h203zM556 954.5q-25 -35.5 -81 -35.5q-27 0 -50.5 6.5t-53.5 18.5q-35 13 -47 13q-17 0 -23.5 -8.5t-6.5 -27.5h-100q0 76 25 112t81 36
q28 0 51.5 -6.5t53.5 -18.5q13 -5 25.5 -9t20.5 -4q16 0 23 8.5t8 26.5h99q0 -76 -25 -111.5z" />
    <glyph glyph-name="uni1EAB" unicode="&#x1eab;" horiz-adv-x="613" 
d="M506.5 503.5q66.5 -53.5 66.5 -149.5v-354h-221v59q-50 -69 -154 -69q-86 0 -134.5 46.5t-48.5 125.5q0 81 54 123t158 44h125q-1 29 -22.5 44.5t-62.5 15.5q-32 0 -76.5 -9t-89.5 -26l-50 150q70 26 139.5 39.5t130.5 13.5q119 0 185.5 -53.5zM318.5 144
q20.5 11 33.5 31v50h-78q-48 0 -48 -44q0 -23 13 -35.5t37 -12.5q22 0 42.5 11zM532 601h-161l-64 71l-65 -71h-160l123 138h203zM474 803.5q-25 -35.5 -81 -35.5q-27 0 -50.5 6.5t-53.5 18.5q-35 13 -47 13q-17 0 -23.5 -8.5t-6.5 -27.5h-100q0 76 25 112t81 36
q28 0 51.5 -6.5t53.5 -18.5q13 -5 25.5 -9t20.5 -4q16 0 23 8.5t8 26.5h99q0 -76 -25 -111.5z" />
    <glyph glyph-name="uni1EAC" unicode="&#x1eac;" horiz-adv-x="799" 
d="M562 0l-35 99h-263l-36 -99h-238l296 701h238l285 -701h-247zM324 265h146l-72 205zM470 -97q32 -32 32 -82t-32 -82t-82 -32t-82 32t-32 82t32 82t82 32t82 -32zM596 752h-140l-65 72l-65 -72h-140l111 162h188z" />
    <glyph glyph-name="uni1EAD" unicode="&#x1ead;" horiz-adv-x="613" 
d="M506.5 503.5q66.5 -53.5 66.5 -149.5v-354h-221v59q-50 -69 -154 -69q-86 0 -134.5 46.5t-48.5 125.5q0 81 54 123t158 44h125q-1 29 -22.5 44.5t-62.5 15.5q-32 0 -76.5 -9t-89.5 -26l-50 150q70 26 139.5 39.5t130.5 13.5q119 0 185.5 -53.5zM318.5 144
q20.5 11 33.5 31v50h-78q-48 0 -48 -44q0 -23 13 -35.5t37 -12.5q22 0 42.5 11zM364 -97q32 -32 32 -82t-32 -82t-82 -32t-82 32t-32 82t32 82t82 32t82 -32zM490 607h-140l-65 72l-65 -72h-140l111 162h188z" />
    <glyph glyph-name="uni1EAE" unicode="&#x1eae;" horiz-adv-x="799" 
d="M562 0l-35 99h-263l-36 -99h-238l296 701h238l285 -701h-247zM324 265h146l-72 205zM358.5 867.5q16.5 -12.5 41.5 -12.5t41.5 12.5t18.5 32.5h125q-4 -72 -54 -115t-131 -43t-131 42.5t-54 115.5h125q2 -20 18.5 -32.5zM438 1084l139 -81l-173 -93l-122 31z" />
    <glyph glyph-name="uni1EAF" unicode="&#x1eaf;" horiz-adv-x="613" 
d="M506.5 503.5q66.5 -53.5 66.5 -149.5v-354h-221v59q-50 -69 -154 -69q-86 0 -134.5 46.5t-48.5 125.5q0 81 54 123t158 44h125q-1 29 -22.5 44.5t-62.5 15.5q-32 0 -76.5 -9t-89.5 -26l-50 150q70 26 139.5 39.5t130.5 13.5q119 0 185.5 -53.5zM318.5 144
q20.5 11 33.5 31v50h-78q-48 0 -48 -44q0 -23 13 -35.5t37 -12.5q22 0 42.5 11zM266.5 726.5q16.5 -12.5 41.5 -12.5t41.5 12.5t18.5 32.5h125q-4 -72 -54 -115t-131 -43t-131 42.5t-54 115.5h125q2 -20 18.5 -32.5zM346 943l139 -81l-173 -93l-122 31z" />
    <glyph glyph-name="uni1EB0" unicode="&#x1eb0;" horiz-adv-x="799" 
d="M562 0l-35 99h-263l-36 -99h-238l296 701h238l285 -701h-247zM324 265h146l-72 205zM358.5 867.5q16.5 -12.5 41.5 -12.5t41.5 12.5t18.5 32.5h125q-4 -72 -54 -115t-131 -43t-131 42.5t-54 115.5h125q2 -20 18.5 -32.5zM352 1084l156 -143l-122 -31l-173 93z" />
    <glyph glyph-name="uni1EB1" unicode="&#x1eb1;" horiz-adv-x="613" 
d="M506.5 503.5q66.5 -53.5 66.5 -149.5v-354h-221v59q-50 -69 -154 -69q-86 0 -134.5 46.5t-48.5 125.5q0 81 54 123t158 44h125q-1 29 -22.5 44.5t-62.5 15.5q-32 0 -76.5 -9t-89.5 -26l-50 150q70 26 139.5 39.5t130.5 13.5q119 0 185.5 -53.5zM318.5 144
q20.5 11 33.5 31v50h-78q-48 0 -48 -44q0 -23 13 -35.5t37 -12.5q22 0 42.5 11zM266.5 726.5q16.5 -12.5 41.5 -12.5t41.5 12.5t18.5 32.5h125q-4 -72 -54 -115t-131 -43t-131 42.5t-54 115.5h125q2 -20 18.5 -32.5zM260 943l156 -143l-122 -31l-173 93z" />
    <glyph glyph-name="uni1EB2" unicode="&#x1eb2;" horiz-adv-x="799" 
d="M562 0l-35 99h-263l-36 -99h-238l296 701h238l285 -701h-247zM324 265h146l-72 205zM358.5 867.5q16.5 -12.5 41.5 -12.5t41.5 12.5t18.5 32.5h125q-4 -72 -54 -115t-131 -43t-131 42.5t-54 115.5h125q2 -20 18.5 -32.5zM477.5 1069.5q24.5 -22.5 24.5 -53.5t-18.5 -55.5
t-60.5 -50.5l-83 31q20 11 29.5 19.5t9.5 18.5q0 16 -21 16q-19 0 -31 -11l-49 70q63 38 123 38q52 0 76.5 -22.5z" />
    <glyph glyph-name="uni1EB3" unicode="&#x1eb3;" horiz-adv-x="613" 
d="M506.5 503.5q66.5 -53.5 66.5 -149.5v-354h-221v59q-50 -69 -154 -69q-86 0 -134.5 46.5t-48.5 125.5q0 81 54 123t158 44h125q-1 29 -22.5 44.5t-62.5 15.5q-32 0 -76.5 -9t-89.5 -26l-50 150q70 26 139.5 39.5t130.5 13.5q119 0 185.5 -53.5zM318.5 144
q20.5 11 33.5 31v50h-78q-48 0 -48 -44q0 -23 13 -35.5t37 -12.5q22 0 42.5 11zM266.5 726.5q16.5 -12.5 41.5 -12.5t41.5 12.5t18.5 32.5h125q-4 -72 -54 -115t-131 -43t-131 42.5t-54 115.5h125q2 -20 18.5 -32.5zM385.5 928.5q24.5 -22.5 24.5 -53.5t-18.5 -55.5
t-60.5 -50.5l-83 31q20 11 29.5 19.5t9.5 18.5q0 16 -21 16q-19 0 -31 -11l-49 70q63 38 123 38q52 0 76.5 -22.5z" />
    <glyph glyph-name="uni1EB4" unicode="&#x1eb4;" horiz-adv-x="799" 
d="M562 0l-35 99h-263l-36 -99h-238l296 701h238l285 -701h-247zM324 265h146l-72 205zM359.5 867.5q16.5 -12.5 41.5 -12.5t41.5 12.5t18.5 32.5h125q-4 -72 -54 -115t-131 -43t-131 42.5t-54 115.5h125q2 -20 18.5 -32.5zM577 973.5q-25 -35.5 -81 -35.5q-27 0 -50.5 6.5
t-53.5 18.5q-35 13 -47 13q-17 0 -23.5 -8.5t-6.5 -27.5h-100q0 76 25 112t81 36q28 0 51.5 -6.5t53.5 -18.5q13 -5 25.5 -9t20.5 -4q16 0 23 8.5t8 26.5h99q0 -76 -25 -111.5z" />
    <glyph glyph-name="uni1EB5" unicode="&#x1eb5;" horiz-adv-x="613" 
d="M506.5 503.5q66.5 -53.5 66.5 -149.5v-354h-221v59q-50 -69 -154 -69q-86 0 -134.5 46.5t-48.5 125.5q0 81 54 123t158 44h125q-1 29 -22.5 44.5t-62.5 15.5q-32 0 -76.5 -9t-89.5 -26l-50 150q70 26 139.5 39.5t130.5 13.5q119 0 185.5 -53.5zM318.5 144
q20.5 11 33.5 31v50h-78q-48 0 -48 -44q0 -23 13 -35.5t37 -12.5q22 0 42.5 11zM258.5 726.5q16.5 -12.5 41.5 -12.5t41.5 12.5t18.5 32.5h125q-4 -72 -54 -115t-131 -43t-131 42.5t-54 115.5h125q2 -20 18.5 -32.5zM476 832.5q-25 -35.5 -81 -35.5q-27 0 -50.5 6.5
t-53.5 18.5q-35 13 -47 13q-17 0 -23.5 -8.5t-6.5 -27.5h-100q0 76 25 112t81 36q28 0 51.5 -6.5t53.5 -18.5q13 -5 25.5 -9t20.5 -4q16 0 23 8.5t8 26.5h99q0 -76 -25 -111.5z" />
    <glyph glyph-name="uni1EB6" unicode="&#x1eb6;" horiz-adv-x="799" 
d="M562 0l-35 99h-263l-36 -99h-238l296 701h238l285 -701h-247zM324 265h146l-72 205zM470 -97q32 -32 32 -82t-32 -82t-82 -32t-82 32t-32 82t32 82t82 32t82 -32zM357.5 889.5q13.5 -13.5 33.5 -13.5t33.5 13.5t15.5 36.5h135q-4 -79 -54 -126.5t-130 -47.5t-130 47.5
t-54 126.5h135q2 -23 15.5 -36.5z" />
    <glyph glyph-name="uni1EB7" unicode="&#x1eb7;" horiz-adv-x="613" 
d="M506.5 503.5q66.5 -53.5 66.5 -149.5v-354h-221v59q-50 -69 -154 -69q-86 0 -134.5 46.5t-48.5 125.5q0 81 54 123t158 44h125q-1 29 -22.5 44.5t-62.5 15.5q-32 0 -76.5 -9t-89.5 -26l-50 150q70 26 139.5 39.5t130.5 13.5q119 0 185.5 -53.5zM318.5 144
q20.5 11 33.5 31v50h-78q-48 0 -48 -44q0 -23 13 -35.5t37 -12.5q22 0 42.5 11zM364 -97q32 -32 32 -82t-32 -82t-82 -32t-82 32t-32 82t32 82t82 32t82 -32zM251.5 732.5q13.5 -13.5 33.5 -13.5t33.5 13.5t15.5 36.5h135q-4 -79 -54 -126.5t-130 -47.5t-130 47.5t-54 126.5
h135q2 -23 15.5 -36.5z" />
    <glyph glyph-name="uni1EB8" unicode="&#x1eb8;" horiz-adv-x="690" 
d="M50 701h593v-176h-361v-86h328v-176h-328v-87h370v-176h-602v701zM430 -97q32 -32 32 -82t-32 -82t-82 -32t-82 32t-32 82t32 82t82 32t82 -32z" />
    <glyph glyph-name="uni1EB9" unicode="&#x1eb9;" horiz-adv-x="614" 
d="M463 518q66 -37 101 -105.5t35 -160.5q0 -19 -1 -29h-356q11 -32 34.5 -48.5t56.5 -16.5q59 0 111 49l117 -115q-44 -49 -106.5 -74.5t-141.5 -25.5q-92 0 -159.5 34.5t-103 97.5t-35.5 147q0 86 36 150t102.5 99t153.5 35q90 0 156 -37zM356.5 383q-18.5 22 -47.5 22
q-28 0 -46.5 -21t-25.5 -57h136q2 34 -16.5 56zM386 -97q32 -32 32 -82t-32 -82t-82 -32t-82 32t-32 82t32 82t82 32t82 -32z" />
    <glyph glyph-name="uni1EBA" unicode="&#x1eba;" horiz-adv-x="690" 
d="M50 701h593v-176h-361v-86h328v-176h-328v-87h370v-176h-602v701zM449.5 962.5q30.5 -28.5 30.5 -73.5q0 -77 -94 -148l-92 37q22 19 34.5 38t12.5 36q0 13 -7.5 20t-20.5 7q-21 0 -39 -15l-54 83q70 44 139 44q60 0 90.5 -28.5z" />
    <glyph glyph-name="uni1EBB" unicode="&#x1ebb;" horiz-adv-x="614" 
d="M463 518q66 -37 101 -105.5t35 -160.5q0 -19 -1 -29h-356q11 -32 34.5 -48.5t56.5 -16.5q59 0 111 49l117 -115q-44 -49 -106.5 -74.5t-141.5 -25.5q-92 0 -159.5 34.5t-103 97.5t-35.5 147q0 86 36 150t102.5 99t153.5 35q90 0 156 -37zM356.5 383q-18.5 22 -47.5 22
q-28 0 -46.5 -21t-25.5 -57h136q2 34 -16.5 56zM404.5 808.5q30.5 -28.5 30.5 -73.5q0 -77 -94 -148l-92 37q22 19 34.5 38t12.5 36q0 13 -7.5 20t-20.5 7q-21 0 -39 -15l-54 83q70 44 139 44q60 0 90.5 -28.5z" />
    <glyph glyph-name="uni1EBC" unicode="&#x1ebc;" horiz-adv-x="690" 
d="M50 701h593v-176h-361v-86h328v-176h-328v-87h370v-176h-602v701zM523.5 792q-25.5 -42 -81.5 -42q-25 0 -45.5 7t-46.5 20q-3 1 -17 7.5t-24 6.5q-14 0 -21 -9.5t-8 -29.5h-117q0 92 26 135t82 43q25 0 46 -7.5t46 -19.5q28 -14 40 -14q15 0 22 9t8 29h116
q0 -93 -25.5 -135z" />
    <glyph glyph-name="uni1EBD" unicode="&#x1ebd;" horiz-adv-x="614" 
d="M463 518q66 -37 101 -105.5t35 -160.5q0 -19 -1 -29h-356q11 -32 34.5 -48.5t56.5 -16.5q59 0 111 49l117 -115q-44 -49 -106.5 -74.5t-141.5 -25.5q-92 0 -159.5 34.5t-103 97.5t-35.5 147q0 86 36 150t102.5 99t153.5 35q90 0 156 -37zM356.5 383q-18.5 22 -47.5 22
q-28 0 -46.5 -21t-25.5 -57h136q2 34 -16.5 56zM478.5 636q-25.5 -42 -81.5 -42q-25 0 -45.5 7t-46.5 20q-3 1 -17 7.5t-24 6.5q-14 0 -21 -9.5t-8 -29.5h-117q0 92 26 135t82 43q25 0 46 -7.5t46 -19.5q28 -14 40 -14q15 0 22 9t8 29h116q0 -93 -25.5 -135z" />
    <glyph glyph-name="uni1EBE" unicode="&#x1ebe;" horiz-adv-x="690" 
d="M50 701h593v-176h-361v-86h328v-176h-328v-87h370v-176h-602v701zM572 752h-161l-64 71l-65 -71h-160l123 138h203zM385 1095l139 -81l-173 -93l-122 31z" />
    <glyph glyph-name="uni1EBF" unicode="&#x1ebf;" horiz-adv-x="614" 
d="M463 518q66 -37 101 -105.5t35 -160.5q0 -19 -1 -29h-356q11 -32 34.5 -48.5t56.5 -16.5q59 0 111 49l117 -115q-44 -49 -106.5 -74.5t-141.5 -25.5q-92 0 -159.5 34.5t-103 97.5t-35.5 147q0 86 36 150t102.5 99t153.5 35q90 0 156 -37zM356.5 383q-18.5 22 -47.5 22
q-28 0 -46.5 -21t-25.5 -57h136q2 34 -16.5 56zM527 601h-161l-64 71l-65 -71h-160l123 138h203zM340 944l139 -81l-173 -93l-122 31z" />
    <glyph glyph-name="uni1EC0" unicode="&#x1ec0;" horiz-adv-x="690" 
d="M50 701h593v-176h-361v-86h328v-176h-328v-87h370v-176h-602v701zM572 752h-161l-64 71l-65 -71h-160l123 138h203zM299 1095l156 -143l-122 -31l-173 93z" />
    <glyph glyph-name="uni1EC1" unicode="&#x1ec1;" horiz-adv-x="614" 
d="M463 518q66 -37 101 -105.5t35 -160.5q0 -19 -1 -29h-356q11 -32 34.5 -48.5t56.5 -16.5q59 0 111 49l117 -115q-44 -49 -106.5 -74.5t-141.5 -25.5q-92 0 -159.5 34.5t-103 97.5t-35.5 147q0 86 36 150t102.5 99t153.5 35q90 0 156 -37zM356.5 383q-18.5 22 -47.5 22
q-28 0 -46.5 -21t-25.5 -57h136q2 34 -16.5 56zM527 601h-161l-64 71l-65 -71h-160l123 138h203zM254 944l156 -143l-122 -31l-173 93z" />
    <glyph glyph-name="uni1EC2" unicode="&#x1ec2;" horiz-adv-x="690" 
d="M50 701h593v-176h-361v-86h328v-176h-328v-87h370v-176h-602v701zM582 752h-161l-64 71l-65 -71h-160l123 138h203zM434.5 1080.5q24.5 -22.5 24.5 -53.5t-18.5 -55.5t-60.5 -50.5l-83 31q20 11 29.5 19.5t9.5 18.5q0 16 -21 16q-19 0 -31 -11l-49 70q63 38 123 38
q52 0 76.5 -22.5z" />
    <glyph glyph-name="uni1EC3" unicode="&#x1ec3;" horiz-adv-x="614" 
d="M463 518q66 -37 101 -105.5t35 -160.5q0 -19 -1 -29h-356q11 -32 34.5 -48.5t56.5 -16.5q59 0 111 49l117 -115q-44 -49 -106.5 -74.5t-141.5 -25.5q-92 0 -159.5 34.5t-103 97.5t-35.5 147q0 86 36 150t102.5 99t153.5 35q90 0 156 -37zM356.5 383q-18.5 22 -47.5 22
q-28 0 -46.5 -21t-25.5 -57h136q2 34 -16.5 56zM527 601h-161l-64 71l-65 -71h-160l123 138h203zM379.5 929.5q24.5 -22.5 24.5 -53.5t-18.5 -55.5t-60.5 -50.5l-83 31q20 11 29.5 19.5t9.5 18.5q0 16 -21 16q-19 0 -31 -11l-49 70q63 38 123 38q52 0 76.5 -22.5z" />
    <glyph glyph-name="uni1EC4" unicode="&#x1ec4;" horiz-adv-x="690" 
d="M50 701h593v-176h-361v-86h328v-176h-328v-87h370v-176h-602v701zM562 752h-161l-64 71l-65 -71h-160l123 138h203zM504 954.5q-25 -35.5 -81 -35.5q-27 0 -50.5 6.5t-53.5 18.5q-35 13 -47 13q-17 0 -23.5 -8.5t-6.5 -27.5h-100q0 76 25 112t81 36q28 0 51.5 -6.5
t53.5 -18.5q13 -5 25.5 -9t20.5 -4q16 0 23 8.5t8 26.5h99q0 -76 -25 -111.5z" />
    <glyph glyph-name="uni1EC5" unicode="&#x1ec5;" horiz-adv-x="614" 
d="M463 518q66 -37 101 -105.5t35 -160.5q0 -19 -1 -29h-356q11 -32 34.5 -48.5t56.5 -16.5q59 0 111 49l117 -115q-44 -49 -106.5 -74.5t-141.5 -25.5q-92 0 -159.5 34.5t-103 97.5t-35.5 147q0 86 36 150t102.5 99t153.5 35q90 0 156 -37zM356.5 383q-18.5 22 -47.5 22
q-28 0 -46.5 -21t-25.5 -57h136q2 34 -16.5 56zM527 601h-161l-64 71l-65 -71h-160l123 138h203zM469 803.5q-25 -35.5 -81 -35.5q-27 0 -50.5 6.5t-53.5 18.5q-35 13 -47 13q-17 0 -23.5 -8.5t-6.5 -27.5h-100q0 76 25 112t81 36q28 0 51.5 -6.5t53.5 -18.5q13 -5 25.5 -9
t20.5 -4q16 0 23 8.5t8 26.5h99q0 -76 -25 -111.5z" />
    <glyph glyph-name="uni1EC6" unicode="&#x1ec6;" horiz-adv-x="690" 
d="M50 701h593v-176h-361v-86h328v-176h-328v-87h370v-176h-602v701zM430 -97q32 -32 32 -82t-32 -82t-82 -32t-82 32t-32 82t32 82t82 32t82 -32zM556 752h-140l-65 72l-65 -72h-140l111 162h188z" />
    <glyph glyph-name="uni1EC7" unicode="&#x1ec7;" horiz-adv-x="614" 
d="M463 518q66 -37 101 -105.5t35 -160.5q0 -19 -1 -29h-356q11 -32 34.5 -48.5t56.5 -16.5q59 0 111 49l117 -115q-44 -49 -106.5 -74.5t-141.5 -25.5q-92 0 -159.5 34.5t-103 97.5t-35.5 147q0 86 36 150t102.5 99t153.5 35q90 0 156 -37zM356.5 383q-18.5 22 -47.5 22
q-28 0 -46.5 -21t-25.5 -57h136q2 34 -16.5 56zM386 -97q32 -32 32 -82t-32 -82t-82 -32t-82 32t-32 82t32 82t82 32t82 -32zM512 607h-140l-65 72l-65 -72h-140l111 162h188z" />
    <glyph glyph-name="uni1EC8" unicode="&#x1ec8;" horiz-adv-x="332" 
d="M50 701h232v-701h-232v701zM267.5 962.5q30.5 -28.5 30.5 -73.5q0 -77 -94 -148l-92 37q22 19 34.5 38t12.5 36q0 13 -7.5 20t-20.5 7q-21 0 -39 -15l-54 83q70 44 139 44q60 0 90.5 -28.5z" />
    <glyph glyph-name="uni1EC9" unicode="&#x1ec9;" horiz-adv-x="335" 
d="M55 547h225v-547h-225v547zM269.5 808.5q30.5 -28.5 30.5 -73.5q0 -77 -94 -148l-92 37q22 19 34.5 38t12.5 36q0 13 -7.5 20t-20.5 7q-21 0 -39 -15l-54 83q70 44 139 44q60 0 90.5 -28.5z" />
    <glyph glyph-name="uni1ECA" unicode="&#x1eca;" horiz-adv-x="332" 
d="M50 701h232v-701h-232v701zM245 -97q32 -32 32 -82t-32 -82t-82 -32t-82 32t-32 82t32 82t82 32t82 -32z" />
    <glyph glyph-name="uni1ECB" unicode="&#x1ecb;" horiz-adv-x="335" 
d="M55 547h225v-547h-225v547zM247 785q32 -32 32 -82t-32 -82t-82 -32t-82 32t-32 82t32 82t82 32t82 -32zM247 -97q32 -32 32 -82t-32 -82t-82 -32t-82 32t-32 82t32 82t82 32t82 -32z" />
    <glyph glyph-name="uni1ECC" unicode="&#x1ecc;" horiz-adv-x="800" 
d="M598 669q88 -47 137.5 -130t49.5 -187q0 -105 -49.5 -189t-137.5 -131.5t-198 -47.5t-198 47.5t-137.5 131.5t-49.5 189t49.5 188t137.5 129.5t198 46.5t198 -47zM328.5 500.5q-34.5 -22.5 -55 -61.5t-20.5 -88t20.5 -88.5t55 -62.5t74.5 -23t73 22.5t52 62.5t19 89
t-19 88.5t-52 61.5t-73 22t-74.5 -22.5zM479 -97q32 -32 32 -82t-32 -82t-82 -32t-82 32t-32 82t32 82t82 32t82 -32z" />
    <glyph glyph-name="uni1ECD" unicode="&#x1ecd;" horiz-adv-x="648" 
d="M487 520.5q70 -34.5 108 -98t38 -148.5t-38 -148.5t-108 -98.5t-163 -35t-163 35t-108 98.5t-38 148.5t38 148.5t108 98t163 34.5t163 -34.5zM264.5 348q-22.5 -29 -22.5 -77t22.5 -77t59.5 -29t59.5 29t22.5 77t-22.5 77t-59.5 29t-59.5 -29zM403 -97q32 -32 32 -82
t-32 -82t-82 -32t-82 32t-32 82t32 82t82 32t82 -32z" />
    <glyph glyph-name="uni1ECE" unicode="&#x1ece;" horiz-adv-x="800" 
d="M598 669q88 -47 137.5 -130t49.5 -187q0 -105 -49.5 -189t-137.5 -131.5t-198 -47.5t-198 47.5t-137.5 131.5t-49.5 189t49.5 188t137.5 129.5t198 46.5t198 -47zM328.5 500.5q-34.5 -22.5 -55 -61.5t-20.5 -88t20.5 -88.5t55 -62.5t74.5 -23t73 22.5t52 62.5t19 89
t-19 88.5t-52 61.5t-73 22t-74.5 -22.5zM501.5 962.5q30.5 -28.5 30.5 -73.5q0 -77 -94 -148l-92 37q22 19 34.5 38t12.5 36q0 13 -7.5 20t-20.5 7q-21 0 -39 -15l-54 83q70 44 139 44q60 0 90.5 -28.5z" />
    <glyph glyph-name="uni1ECF" unicode="&#x1ecf;" horiz-adv-x="648" 
d="M487 520.5q70 -34.5 108 -98t38 -148.5t-38 -148.5t-108 -98.5t-163 -35t-163 35t-108 98.5t-38 148.5t38 148.5t108 98t163 34.5t163 -34.5zM264.5 348q-22.5 -29 -22.5 -77t22.5 -77t59.5 -29t59.5 29t22.5 77t-22.5 77t-59.5 29t-59.5 -29zM425.5 808.5
q30.5 -28.5 30.5 -73.5q0 -77 -94 -148l-92 37q22 19 34.5 38t12.5 36q0 13 -7.5 20t-20.5 7q-21 0 -39 -15l-54 83q70 44 139 44q60 0 90.5 -28.5z" />
    <glyph glyph-name="uni1ED0" unicode="&#x1ed0;" horiz-adv-x="800" 
d="M598 669q88 -47 137.5 -130t49.5 -187q0 -105 -49.5 -189t-137.5 -131.5t-198 -47.5t-198 47.5t-137.5 131.5t-49.5 189t49.5 188t137.5 129.5t198 46.5t198 -47zM328.5 500.5q-34.5 -22.5 -55 -61.5t-20.5 -88t20.5 -88.5t55 -62.5t74.5 -23t73 22.5t52 62.5t19 89
t-19 88.5t-52 61.5t-73 22t-74.5 -22.5zM624 752h-161l-64 71l-65 -71h-160l123 138h203zM437 1095l139 -81l-173 -93l-122 31z" />
    <glyph glyph-name="uni1ED1" unicode="&#x1ed1;" horiz-adv-x="648" 
d="M487 520.5q70 -34.5 108 -98t38 -148.5t-38 -148.5t-108 -98.5t-163 -35t-163 35t-108 98.5t-38 148.5t38 148.5t108 98t163 34.5t163 -34.5zM264.5 348q-22.5 -29 -22.5 -77t22.5 -77t59.5 -29t59.5 29t22.5 77t-22.5 77t-59.5 29t-59.5 -29zM548 601h-161l-64 71
l-65 -71h-160l123 138h203zM361 944l139 -81l-173 -93l-122 31z" />
    <glyph glyph-name="uni1ED2" unicode="&#x1ed2;" horiz-adv-x="800" 
d="M598 669q88 -47 137.5 -130t49.5 -187q0 -105 -49.5 -189t-137.5 -131.5t-198 -47.5t-198 47.5t-137.5 131.5t-49.5 189t49.5 188t137.5 129.5t198 46.5t198 -47zM328.5 500.5q-34.5 -22.5 -55 -61.5t-20.5 -88t20.5 -88.5t55 -62.5t74.5 -23t73 22.5t52 62.5t19 89
t-19 88.5t-52 61.5t-73 22t-74.5 -22.5zM624 752h-161l-64 71l-65 -71h-160l123 138h203zM351 1095l156 -143l-122 -31l-173 93z" />
    <glyph glyph-name="uni1ED3" unicode="&#x1ed3;" horiz-adv-x="648" 
d="M487 520.5q70 -34.5 108 -98t38 -148.5t-38 -148.5t-108 -98.5t-163 -35t-163 35t-108 98.5t-38 148.5t38 148.5t108 98t163 34.5t163 -34.5zM264.5 348q-22.5 -29 -22.5 -77t22.5 -77t59.5 -29t59.5 29t22.5 77t-22.5 77t-59.5 29t-59.5 -29zM548 601h-161l-64 71
l-65 -71h-160l123 138h203zM275 944l156 -143l-122 -31l-173 93z" />
    <glyph glyph-name="uni1ED4" unicode="&#x1ed4;" horiz-adv-x="800" 
d="M598 669q88 -47 137.5 -130t49.5 -187q0 -105 -49.5 -189t-137.5 -131.5t-198 -47.5t-198 47.5t-137.5 131.5t-49.5 189t49.5 188t137.5 129.5t198 46.5t198 -47zM328.5 500.5q-34.5 -22.5 -55 -61.5t-20.5 -88t20.5 -88.5t55 -62.5t74.5 -23t73 22.5t52 62.5t19 89
t-19 88.5t-52 61.5t-73 22t-74.5 -22.5zM634 752h-161l-64 71l-65 -71h-160l123 138h203zM486.5 1080.5q24.5 -22.5 24.5 -53.5t-18.5 -55.5t-60.5 -50.5l-83 31q20 11 29.5 19.5t9.5 18.5q0 16 -21 16q-19 0 -31 -11l-49 70q63 38 123 38q52 0 76.5 -22.5z" />
    <glyph glyph-name="uni1ED5" unicode="&#x1ed5;" horiz-adv-x="648" 
d="M487 520.5q70 -34.5 108 -98t38 -148.5t-38 -148.5t-108 -98.5t-163 -35t-163 35t-108 98.5t-38 148.5t38 148.5t108 98t163 34.5t163 -34.5zM264.5 348q-22.5 -29 -22.5 -77t22.5 -77t59.5 -29t59.5 29t22.5 77t-22.5 77t-59.5 29t-59.5 -29zM548 601h-161l-64 71
l-65 -71h-160l123 138h203zM400.5 929.5q24.5 -22.5 24.5 -53.5t-18.5 -55.5t-60.5 -50.5l-83 31q20 11 29.5 19.5t9.5 18.5q0 16 -21 16q-19 0 -31 -11l-49 70q63 38 123 38q52 0 76.5 -22.5z" />
    <glyph glyph-name="uni1ED6" unicode="&#x1ed6;" horiz-adv-x="800" 
d="M598 669q88 -47 137.5 -130t49.5 -187q0 -105 -49.5 -189t-137.5 -131.5t-198 -47.5t-198 47.5t-137.5 131.5t-49.5 189t49.5 188t137.5 129.5t198 46.5t198 -47zM328.5 500.5q-34.5 -22.5 -55 -61.5t-20.5 -88t20.5 -88.5t55 -62.5t74.5 -23t73 22.5t52 62.5t19 89
t-19 88.5t-52 61.5t-73 22t-74.5 -22.5zM614 752h-161l-64 71l-65 -71h-160l123 138h203zM556 954.5q-25 -35.5 -81 -35.5q-27 0 -50.5 6.5t-53.5 18.5q-35 13 -47 13q-17 0 -23.5 -8.5t-6.5 -27.5h-100q0 76 25 112t81 36q28 0 51.5 -6.5t53.5 -18.5q13 -5 25.5 -9t20.5 -4
q16 0 23 8.5t8 26.5h99q0 -76 -25 -111.5z" />
    <glyph glyph-name="uni1ED7" unicode="&#x1ed7;" horiz-adv-x="648" 
d="M487 520.5q70 -34.5 108 -98t38 -148.5t-38 -148.5t-108 -98.5t-163 -35t-163 35t-108 98.5t-38 148.5t38 148.5t108 98t163 34.5t163 -34.5zM264.5 348q-22.5 -29 -22.5 -77t22.5 -77t59.5 -29t59.5 29t22.5 77t-22.5 77t-59.5 29t-59.5 -29zM548 601h-161l-64 71
l-65 -71h-160l123 138h203zM490 803.5q-25 -35.5 -81 -35.5q-27 0 -50.5 6.5t-53.5 18.5q-35 13 -47 13q-17 0 -23.5 -8.5t-6.5 -27.5h-100q0 76 25 112t81 36q28 0 51.5 -6.5t53.5 -18.5q13 -5 25.5 -9t20.5 -4q16 0 23 8.5t8 26.5h99q0 -76 -25 -111.5z" />
    <glyph glyph-name="uni1ED8" unicode="&#x1ed8;" horiz-adv-x="800" 
d="M598 669q88 -47 137.5 -130t49.5 -187q0 -105 -49.5 -189t-137.5 -131.5t-198 -47.5t-198 47.5t-137.5 131.5t-49.5 189t49.5 188t137.5 129.5t198 46.5t198 -47zM328.5 500.5q-34.5 -22.5 -55 -61.5t-20.5 -88t20.5 -88.5t55 -62.5t74.5 -23t73 22.5t52 62.5t19 89
t-19 88.5t-52 61.5t-73 22t-74.5 -22.5zM479 -97q32 -32 32 -82t-32 -82t-82 -32t-82 32t-32 82t32 82t82 32t82 -32zM605 752h-140l-65 72l-65 -72h-140l111 162h188z" />
    <glyph glyph-name="uni1ED9" unicode="&#x1ed9;" horiz-adv-x="648" 
d="M487 520.5q70 -34.5 108 -98t38 -148.5t-38 -148.5t-108 -98.5t-163 -35t-163 35t-108 98.5t-38 148.5t38 148.5t108 98t163 34.5t163 -34.5zM264.5 348q-22.5 -29 -22.5 -77t22.5 -77t59.5 -29t59.5 29t22.5 77t-22.5 77t-59.5 29t-59.5 -29zM403 -97q32 -32 32 -82
t-32 -82t-82 -32t-82 32t-32 82t32 82t82 32t82 -32zM529 607h-140l-65 72l-65 -72h-140l111 162h188z" />
    <glyph glyph-name="uni1EDA" unicode="&#x1eda;" horiz-adv-x="832" 
d="M826 743q0 -58 -31 -101t-87 -63q37 -46 57 -104t20 -123q0 -105 -49.5 -189t-137.5 -131.5t-198 -47.5t-198 47.5t-137.5 131.5t-49.5 189t49.5 188t137.5 129.5t198 46.5q103 0 185 -41q5 -1 14 -1q27 0 42 18.5t15 46.5q0 33 -20 62l160 58q30 -60 30 -116zM476 199.5
q33 22.5 52 62.5t19 89t-19 88.5t-52 61.5t-73 22t-74.5 -22.5t-55 -61.5t-20.5 -88t20.5 -88.5t55 -62.5t74.5 -23t73 22.5zM423 934l169 -60l-162 -129l-142 10z" />
    <glyph glyph-name="uni1EDB" unicode="&#x1edb;" horiz-adv-x="696" 
d="M727 588q0 -60 -34.5 -104t-96.5 -63q37 -63 37 -147q0 -85 -38 -148.5t-108 -98.5t-163 -35t-163 35t-108 98.5t-38 148.5t38 148.5t108 98t163 34.5q89 0 160 -33q10 -2 16 -2q27 0 42 18.5t15 46.5q0 33 -20 62l160 58q30 -63 30 -117zM383.5 194q22.5 29 22.5 77
t-22.5 77t-59.5 29t-59.5 -29t-22.5 -77t22.5 -77t59.5 -29t59.5 29zM347 780l169 -60l-162 -129l-142 10z" />
    <glyph glyph-name="uni1EDC" unicode="&#x1edc;" horiz-adv-x="832" 
d="M826 743q0 -58 -31 -101t-87 -63q37 -46 57 -104t20 -123q0 -105 -49.5 -189t-137.5 -131.5t-198 -47.5t-198 47.5t-137.5 131.5t-49.5 189t49.5 188t137.5 129.5t198 46.5q103 0 185 -41q5 -1 14 -1q27 0 42 18.5t15 46.5q0 33 -20 62l160 58q30 -60 30 -116zM476 199.5
q33 22.5 52 62.5t19 89t-19 88.5t-52 61.5t-73 22t-74.5 -22.5t-55 -61.5t-20.5 -88t20.5 -88.5t55 -62.5t74.5 -23t73 22.5zM393 934l111 -179l-143 -10l-138 129z" />
    <glyph glyph-name="uni1EDD" unicode="&#x1edd;" horiz-adv-x="696" 
d="M727 588q0 -60 -34.5 -104t-96.5 -63q37 -63 37 -147q0 -85 -38 -148.5t-108 -98.5t-163 -35t-163 35t-108 98.5t-38 148.5t38 148.5t108 98t163 34.5q89 0 160 -33q10 -2 16 -2q27 0 42 18.5t15 46.5q0 33 -20 62l160 58q30 -63 30 -117zM383.5 194q22.5 29 22.5 77
t-22.5 77t-59.5 29t-59.5 -29t-22.5 -77t22.5 -77t59.5 -29t59.5 29zM317 780l111 -179l-143 -10l-138 129z" />
    <glyph glyph-name="uni1EDE" unicode="&#x1ede;" horiz-adv-x="832" 
d="M826 743q0 -58 -31 -101t-87 -63q37 -46 57 -104t20 -123q0 -105 -49.5 -189t-137.5 -131.5t-198 -47.5t-198 47.5t-137.5 131.5t-49.5 189t49.5 188t137.5 129.5t198 46.5q103 0 185 -41q5 -1 14 -1q27 0 42 18.5t15 46.5q0 33 -20 62l160 58q30 -60 30 -116zM476 199.5
q33 22.5 52 62.5t19 89t-19 88.5t-52 61.5t-73 22t-74.5 -22.5t-55 -61.5t-20.5 -88t20.5 -88.5t55 -62.5t74.5 -23t73 22.5zM501.5 962.5q30.5 -28.5 30.5 -73.5q0 -77 -94 -148l-92 37q22 19 34.5 38t12.5 36q0 13 -7.5 20t-20.5 7q-21 0 -39 -15l-54 83q70 44 139 44
q60 0 90.5 -28.5z" />
    <glyph glyph-name="uni1EDF" unicode="&#x1edf;" horiz-adv-x="696" 
d="M727 588q0 -60 -34.5 -104t-96.5 -63q37 -63 37 -147q0 -85 -38 -148.5t-108 -98.5t-163 -35t-163 35t-108 98.5t-38 148.5t38 148.5t108 98t163 34.5q89 0 160 -33q10 -2 16 -2q27 0 42 18.5t15 46.5q0 33 -20 62l160 58q30 -63 30 -117zM383.5 194q22.5 29 22.5 77
t-22.5 77t-59.5 29t-59.5 -29t-22.5 -77t22.5 -77t59.5 -29t59.5 29zM425.5 808.5q30.5 -28.5 30.5 -73.5q0 -77 -94 -148l-92 37q22 19 34.5 38t12.5 36q0 13 -7.5 20t-20.5 7q-21 0 -39 -15l-54 83q70 44 139 44q60 0 90.5 -28.5z" />
    <glyph glyph-name="uni1EE0" unicode="&#x1ee0;" horiz-adv-x="832" 
d="M826 743q0 -58 -31 -101t-87 -63q37 -46 57 -104t20 -123q0 -105 -49.5 -189t-137.5 -131.5t-198 -47.5t-198 47.5t-137.5 131.5t-49.5 189t49.5 188t137.5 129.5t198 46.5q103 0 185 -41q5 -1 14 -1q27 0 42 18.5t15 46.5q0 33 -20 62l160 58q30 -60 30 -116zM476 199.5
q33 22.5 52 62.5t19 89t-19 88.5t-52 61.5t-73 22t-74.5 -22.5t-55 -61.5t-20.5 -88t20.5 -88.5t55 -62.5t74.5 -23t73 22.5zM575.5 792q-25.5 -42 -81.5 -42q-25 0 -45.5 7t-46.5 20q-3 1 -17 7.5t-24 6.5q-14 0 -21 -9.5t-8 -29.5h-117q0 92 26 135t82 43q25 0 46 -7.5
t46 -19.5q28 -14 40 -14q15 0 22 9t8 29h116q0 -93 -25.5 -135z" />
    <glyph glyph-name="uni1EE1" unicode="&#x1ee1;" horiz-adv-x="696" 
d="M727 588q0 -60 -34.5 -104t-96.5 -63q37 -63 37 -147q0 -85 -38 -148.5t-108 -98.5t-163 -35t-163 35t-108 98.5t-38 148.5t38 148.5t108 98t163 34.5q89 0 160 -33q10 -2 16 -2q27 0 42 18.5t15 46.5q0 33 -20 62l160 58q30 -63 30 -117zM383.5 194q22.5 29 22.5 77
t-22.5 77t-59.5 29t-59.5 -29t-22.5 -77t22.5 -77t59.5 -29t59.5 29zM499.5 636q-25.5 -42 -81.5 -42q-25 0 -45.5 7t-46.5 20q-3 1 -17 7.5t-24 6.5q-14 0 -21 -9.5t-8 -29.5h-117q0 92 26 135t82 43q25 0 46 -7.5t46 -19.5q28 -14 40 -14q15 0 22 9t8 29h116
q0 -93 -25.5 -135z" />
    <glyph glyph-name="uni1EE2" unicode="&#x1ee2;" horiz-adv-x="831" 
d="M826 743q0 -58 -31 -101t-87 -63q37 -46 57 -104t20 -123q0 -105 -49.5 -189t-137.5 -131.5t-198 -47.5t-198 47.5t-137.5 131.5t-49.5 189t49.5 188t137.5 129.5t198 46.5q103 0 185 -41q5 -1 14 -1q27 0 42 18.5t15 46.5q0 33 -20 62l160 58q30 -60 30 -116zM476 199.5
q33 22.5 52 62.5t19 89t-19 88.5t-52 61.5t-73 22t-74.5 -22.5t-55 -61.5t-20.5 -88t20.5 -88.5t55 -62.5t74.5 -23t73 22.5zM479 -97q32 -32 32 -82t-32 -82t-82 -32t-82 32t-32 82t32 82t82 32t82 -32z" />
    <glyph glyph-name="uni1EE3" unicode="&#x1ee3;" horiz-adv-x="696" 
d="M727 588q0 -60 -34.5 -104t-96.5 -63q37 -63 37 -147q0 -85 -38 -148.5t-108 -98.5t-163 -35t-163 35t-108 98.5t-38 148.5t38 148.5t108 98t163 34.5q89 0 160 -33q10 -2 16 -2q27 0 42 18.5t15 46.5q0 33 -20 62l160 58q30 -63 30 -117zM383.5 194q22.5 29 22.5 77
t-22.5 77t-59.5 29t-59.5 -29t-22.5 -77t22.5 -77t59.5 -29t59.5 29zM403 -97q32 -32 32 -82t-32 -82t-82 -32t-82 32t-32 82t32 82t82 32t82 -32z" />
    <glyph glyph-name="uni1EE4" unicode="&#x1ee4;" horiz-adv-x="741" 
d="M302 209q30 -32 72 -32q41 0 68 31.5t27 82.5v410h232v-410q0 -92 -40.5 -161.5t-114.5 -107.5t-173 -38t-174.5 38t-117 107.5t-41.5 161.5v410h232v-410q0 -50 30 -82zM450 -97q32 -32 32 -82t-32 -82t-82 -32t-82 32t-32 82t32 82t82 32t82 -32z" />
    <glyph glyph-name="uni1EE5" unicode="&#x1ee5;" horiz-adv-x="672" 
d="M617 547v-547h-225v76q-27 -42 -68 -64t-93 -22q-56 0 -99 26t-67.5 73t-24.5 109v349h225v-284q0 -34 16.5 -54.5t43.5 -20.5q31 0 49 24t18 64v271h225zM415 -97q32 -32 32 -82t-32 -82t-82 -32t-82 32t-32 82t32 82t82 32t82 -32z" />
    <glyph glyph-name="uni1EE6" unicode="&#x1ee6;" horiz-adv-x="741" 
d="M302 209q30 -32 72 -32q41 0 68 31.5t27 82.5v410h232v-410q0 -92 -40.5 -161.5t-114.5 -107.5t-173 -38t-174.5 38t-117 107.5t-41.5 161.5v410h232v-410q0 -50 30 -82zM472.5 962.5q30.5 -28.5 30.5 -73.5q0 -77 -94 -148l-92 37q22 19 34.5 38t12.5 36q0 13 -7.5 20
t-20.5 7q-21 0 -39 -15l-54 83q70 44 139 44q60 0 90.5 -28.5z" />
    <glyph glyph-name="uni1EE7" unicode="&#x1ee7;" horiz-adv-x="672" 
d="M617 547v-547h-225v76q-27 -42 -68 -64t-93 -22q-56 0 -99 26t-67.5 73t-24.5 109v349h225v-284q0 -34 16.5 -54.5t43.5 -20.5q31 0 49 24t18 64v271h225zM437.5 808.5q30.5 -28.5 30.5 -73.5q0 -77 -94 -148l-92 37q22 19 34.5 38t12.5 36q0 13 -7.5 20t-20.5 7
q-21 0 -39 -15l-54 83q70 44 139 44q60 0 90.5 -28.5z" />
    <glyph glyph-name="uni1EE8" unicode="&#x1ee8;" horiz-adv-x="804" 
d="M831 750q0 -57 -33 -94.5t-97 -52.5v-312q0 -92 -40.5 -161.5t-114.5 -107.5t-173 -38t-174.5 38t-117 107.5t-41.5 161.5v410h232v-410q0 -50 30 -82t72 -32q41 0 68 31.5t27 82.5v410h152q25 0 37.5 14.5t12.5 36.5q0 14 -4.5 27.5t-12.5 22.5l153 57q24 -61 24 -109z
M394 934l169 -60l-162 -129l-142 10z" />
    <glyph glyph-name="uni1EE9" unicode="&#x1ee9;" horiz-adv-x="708" 
d="M747 596q0 -57 -33 -94.5t-97 -52.5v-449h-225v76q-27 -42 -68 -64t-93 -22q-56 0 -99 26t-67.5 73t-24.5 109v349h225v-284q0 -34 16.5 -54.5t43.5 -20.5q31 0 49 24t18 64v271h145q25 0 37.5 14.5t12.5 36.5q0 14 -4.5 27.5t-12.5 22.5l153 57q24 -61 24 -109zM359 780
l169 -60l-162 -129l-142 10z" />
    <glyph glyph-name="uni1EEA" unicode="&#x1eea;" horiz-adv-x="804" 
d="M831 750q0 -57 -33 -94.5t-97 -52.5v-312q0 -92 -40.5 -161.5t-114.5 -107.5t-173 -38t-174.5 38t-117 107.5t-41.5 161.5v410h232v-410q0 -50 30 -82t72 -32q41 0 68 31.5t27 82.5v410h152q25 0 37.5 14.5t12.5 36.5q0 14 -4.5 27.5t-12.5 22.5l153 57q24 -61 24 -109z
M364 934l111 -179l-143 -10l-138 129z" />
    <glyph glyph-name="uni1EEB" unicode="&#x1eeb;" horiz-adv-x="708" 
d="M747 596q0 -57 -33 -94.5t-97 -52.5v-449h-225v76q-27 -42 -68 -64t-93 -22q-56 0 -99 26t-67.5 73t-24.5 109v349h225v-284q0 -34 16.5 -54.5t43.5 -20.5q31 0 49 24t18 64v271h145q25 0 37.5 14.5t12.5 36.5q0 14 -4.5 27.5t-12.5 22.5l153 57q24 -61 24 -109zM329 780
l111 -179l-143 -10l-138 129z" />
    <glyph glyph-name="uni1EEC" unicode="&#x1eec;" horiz-adv-x="804" 
d="M831 750q0 -57 -33 -94.5t-97 -52.5v-312q0 -92 -40.5 -161.5t-114.5 -107.5t-173 -38t-174.5 38t-117 107.5t-41.5 161.5v410h232v-410q0 -50 30 -82t72 -32q41 0 68 31.5t27 82.5v410h152q25 0 37.5 14.5t12.5 36.5q0 14 -4.5 27.5t-12.5 22.5l153 57q24 -61 24 -109z
M472.5 962.5q30.5 -28.5 30.5 -73.5q0 -77 -94 -148l-92 37q22 19 34.5 38t12.5 36q0 13 -7.5 20t-20.5 7q-21 0 -39 -15l-54 83q70 44 139 44q60 0 90.5 -28.5z" />
    <glyph glyph-name="uni1EED" unicode="&#x1eed;" horiz-adv-x="708" 
d="M747 596q0 -57 -33 -94.5t-97 -52.5v-449h-225v76q-27 -42 -68 -64t-93 -22q-56 0 -99 26t-67.5 73t-24.5 109v349h225v-284q0 -34 16.5 -54.5t43.5 -20.5q31 0 49 24t18 64v271h145q25 0 37.5 14.5t12.5 36.5q0 14 -4.5 27.5t-12.5 22.5l153 57q24 -61 24 -109z
M437.5 808.5q30.5 -28.5 30.5 -73.5q0 -77 -94 -148l-92 37q22 19 34.5 38t12.5 36q0 13 -7.5 20t-20.5 7q-21 0 -39 -15l-54 83q70 44 139 44q60 0 90.5 -28.5z" />
    <glyph glyph-name="uni1EEE" unicode="&#x1eee;" horiz-adv-x="804" 
d="M831 750q0 -57 -33 -94.5t-97 -52.5v-312q0 -92 -40.5 -161.5t-114.5 -107.5t-173 -38t-174.5 38t-117 107.5t-41.5 161.5v410h232v-410q0 -50 30 -82t72 -32q41 0 68 31.5t27 82.5v410h152q25 0 37.5 14.5t12.5 36.5q0 14 -4.5 27.5t-12.5 22.5l153 57q24 -61 24 -109z
M546.5 792q-25.5 -42 -81.5 -42q-25 0 -45.5 7t-46.5 20q-3 1 -17 7.5t-24 6.5q-14 0 -21 -9.5t-8 -29.5h-117q0 92 26 135t82 43q25 0 46 -7.5t46 -19.5q28 -14 40 -14q15 0 22 9t8 29h116q0 -93 -25.5 -135z" />
    <glyph glyph-name="uni1EEF" unicode="&#x1eef;" horiz-adv-x="708" 
d="M747 596q0 -57 -33 -94.5t-97 -52.5v-449h-225v76q-27 -42 -68 -64t-93 -22q-56 0 -99 26t-67.5 73t-24.5 109v349h225v-284q0 -34 16.5 -54.5t43.5 -20.5q31 0 49 24t18 64v271h145q25 0 37.5 14.5t12.5 36.5q0 14 -4.5 27.5t-12.5 22.5l153 57q24 -61 24 -109z
M511.5 636q-25.5 -42 -81.5 -42q-25 0 -45.5 7t-46.5 20q-3 1 -17 7.5t-24 6.5q-14 0 -21 -9.5t-8 -29.5h-117q0 92 26 135t82 43q25 0 46 -7.5t46 -19.5q28 -14 40 -14q15 0 22 9t8 29h116q0 -93 -25.5 -135z" />
    <glyph glyph-name="uni1EF0" unicode="&#x1ef0;" horiz-adv-x="802" 
d="M831 750q0 -57 -33 -94.5t-97 -52.5v-312q0 -92 -40.5 -161.5t-114.5 -107.5t-173 -38t-174.5 38t-117 107.5t-41.5 161.5v410h232v-410q0 -50 30 -82t72 -32q41 0 68 31.5t27 82.5v410h152q25 0 37.5 14.5t12.5 36.5q0 14 -4.5 27.5t-12.5 22.5l153 57q24 -61 24 -109z
M450 -97q32 -32 32 -82t-32 -82t-82 -32t-82 32t-32 82t32 82t82 32t82 -32z" />
    <glyph glyph-name="uni1EF1" unicode="&#x1ef1;" horiz-adv-x="708" 
d="M747 596q0 -57 -33 -94.5t-97 -52.5v-449h-225v76q-27 -42 -68 -64t-93 -22q-56 0 -99 26t-67.5 73t-24.5 109v349h225v-284q0 -34 16.5 -54.5t43.5 -20.5q31 0 49 24t18 64v271h145q25 0 37.5 14.5t12.5 36.5q0 14 -4.5 27.5t-12.5 22.5l153 57q24 -61 24 -109zM415 -97
q32 -32 32 -82t-32 -82t-82 -32t-82 32t-32 82t32 82t82 32t82 -32z" />
    <glyph glyph-name="Ygrave" unicode="&#x1ef2;" horiz-adv-x="719" 
d="M729 701l-251 -483v-218h-232v213l-256 488h231l141 -270l136 270h231zM353 934l111 -179l-143 -10l-138 129z" />
    <glyph glyph-name="ygrave" unicode="&#x1ef3;" horiz-adv-x="624" 
d="M316 -163.5q-59 -40.5 -147 -40.5q-54 0 -99.5 15.5t-89.5 48.5l94 148q35 -32 73 -32t54 28l8 13l-227 530h231l108 -312l89 312h224l-225 -585q-34 -85 -93 -125.5zM305 780l111 -179l-143 -10l-138 129z" />
    <glyph glyph-name="uni1EF4" unicode="&#x1ef4;" horiz-adv-x="719" 
d="M729 701l-251 -483v-218h-232v213l-256 488h231l141 -270l136 270h231zM441 -97q32 -32 32 -82t-32 -82t-82 -32t-82 32t-32 82t32 82t82 32t82 -32z" />
    <glyph glyph-name="uni1EF5" unicode="&#x1ef5;" horiz-adv-x="624" 
d="M316 -163.5q-59 -40.5 -147 -40.5q-54 0 -99.5 15.5t-89.5 48.5l94 148q35 -32 73 -32t54 28l8 13l-227 530h231l108 -312l89 312h224l-225 -585q-34 -85 -93 -125.5zM605 -97q32 -32 32 -82t-32 -82t-82 -32t-82 32t-32 82t32 82t82 32t82 -32z" />
    <glyph glyph-name="uni1EF6" unicode="&#x1ef6;" horiz-adv-x="719" 
d="M729 701l-251 -483v-218h-232v213l-256 488h231l141 -270l136 270h231zM461.5 962.5q30.5 -28.5 30.5 -73.5q0 -77 -94 -148l-92 37q22 19 34.5 38t12.5 36q0 13 -7.5 20t-20.5 7q-21 0 -39 -15l-54 83q70 44 139 44q60 0 90.5 -28.5z" />
    <glyph glyph-name="uni1EF7" unicode="&#x1ef7;" horiz-adv-x="624" 
d="M316 -163.5q-59 -40.5 -147 -40.5q-54 0 -99.5 15.5t-89.5 48.5l94 148q35 -32 73 -32t54 28l8 13l-227 530h231l108 -312l89 312h224l-225 -585q-34 -85 -93 -125.5zM413.5 808.5q30.5 -28.5 30.5 -73.5q0 -77 -94 -148l-92 37q22 19 34.5 38t12.5 36q0 13 -7.5 20
t-20.5 7q-21 0 -39 -15l-54 83q70 44 139 44q60 0 90.5 -28.5z" />
    <glyph glyph-name="uni1EF8" unicode="&#x1ef8;" horiz-adv-x="719" 
d="M729 701l-251 -483v-218h-232v213l-256 488h231l141 -270l136 270h231zM535.5 792q-25.5 -42 -81.5 -42q-25 0 -45.5 7t-46.5 20q-3 1 -17 7.5t-24 6.5q-14 0 -21 -9.5t-8 -29.5h-117q0 92 26 135t82 43q25 0 46 -7.5t46 -19.5q28 -14 40 -14q15 0 22 9t8 29h116
q0 -93 -25.5 -135z" />
    <glyph glyph-name="uni1EF9" unicode="&#x1ef9;" horiz-adv-x="624" 
d="M316 -163.5q-59 -40.5 -147 -40.5q-54 0 -99.5 15.5t-89.5 48.5l94 148q35 -32 73 -32t54 28l8 13l-227 530h231l108 -312l89 312h224l-225 -585q-34 -85 -93 -125.5zM487.5 636q-25.5 -42 -81.5 -42q-25 0 -45.5 7t-46.5 20q-3 1 -17 7.5t-24 6.5q-14 0 -21 -9.5
t-8 -29.5h-117q0 92 26 135t82 43q25 0 46 -7.5t46 -19.5q28 -14 40 -14q15 0 22 9t8 29h116q0 -93 -25.5 -135z" />
    <glyph glyph-name="uni2007" unicode="&#x2007;" horiz-adv-x="700" 
 />
    <glyph glyph-name="uni2008" unicode="&#x2008;" horiz-adv-x="265" 
 />
    <glyph glyph-name="uni2009" unicode="&#x2009;" horiz-adv-x="200" 
 />
    <glyph glyph-name="uni200A" unicode="&#x200a;" horiz-adv-x="100" 
 />
    <glyph glyph-name="uni200B" unicode="&#x200b;" 
 />
    <glyph glyph-name="uni2010" unicode="&#x2010;" horiz-adv-x="380" 
d="M50 379h280v-140h-280v140z" />
    <glyph glyph-name="figuredash" unicode="&#x2012;" horiz-adv-x="617" 
d="M0 379h617v-140h-617v140z" />
    <glyph glyph-name="endash" unicode="&#x2013;" horiz-adv-x="410" 
d="M0 379h410v-140h-410v140z" />
    <glyph glyph-name="emdash" unicode="&#x2014;" horiz-adv-x="610" 
d="M0 379h610v-140h-610v140z" />
    <glyph glyph-name="uni2015" unicode="&#x2015;" horiz-adv-x="610" 
d="M0 379h610v-140h-610v140z" />
    <glyph glyph-name="quoteleft" unicode="&#x2018;" horiz-adv-x="265" 
d="M213 517q0 -45 -29 -73.5t-74 -28.5q-43 0 -72.5 27t-29.5 74q0 39 27 80l97 146h104l-61 -147q38 -28 38 -78z" />
    <glyph glyph-name="quoteright" unicode="&#x2019;" horiz-adv-x="265" 
d="M206.5 715q29.5 -27 29.5 -74q0 -39 -27 -80l-97 -146h-104l61 147q-38 28 -38 78q0 45 29 73.5t74 28.5q43 0 72.5 -27z" />
    <glyph glyph-name="quotesinglbase" unicode="&#x201a;" horiz-adv-x="265" 
d="M206.5 170q29.5 -27 29.5 -74q0 -39 -27 -80l-97 -146h-104l61 147q-38 28 -38 78q0 45 29 73.5t74 28.5q43 0 72.5 -27z" />
    <glyph glyph-name="quotedblleft" unicode="&#x201c;" horiz-adv-x="483" 
d="M213 517q0 -45 -29 -73.5t-74 -28.5q-43 0 -72.5 27t-29.5 74q0 39 27 80l97 146h104l-61 -147q38 -28 38 -78zM431 517q0 -45 -29 -73.5t-74 -28.5q-43 0 -72.5 27t-29.5 74q0 39 27 80l97 146h104l-61 -147q38 -28 38 -78z" />
    <glyph glyph-name="quotedblright" unicode="&#x201d;" horiz-adv-x="483" 
d="M206.5 715q29.5 -27 29.5 -74q0 -39 -27 -80l-97 -146h-104l61 147q-38 28 -38 78q0 45 29 73.5t74 28.5q43 0 72.5 -27zM424.5 715q29.5 -27 29.5 -74q0 -39 -27 -80l-97 -146h-104l61 147q-38 28 -38 78q0 45 29 73.5t74 28.5q43 0 72.5 -27z" />
    <glyph glyph-name="quotedblbase" unicode="&#x201e;" horiz-adv-x="483" 
d="M206.5 170q29.5 -27 29.5 -74q0 -39 -27 -80l-97 -146h-104l61 147q-38 28 -38 78q0 45 29 73.5t74 28.5q43 0 72.5 -27zM424.5 170q29.5 -27 29.5 -74q0 -39 -27 -80l-97 -146h-104l61 147q-38 28 -38 78q0 45 29 73.5t74 28.5q43 0 72.5 -27z" />
    <glyph glyph-name="dagger" unicode="&#x2020;" horiz-adv-x="608" 
d="M188 699h225v-196h175v-176h-175v-512h-225v512h-168v176h168v196z" />
    <glyph glyph-name="daggerdbl" unicode="&#x2021;" horiz-adv-x="608" 
d="M588 327h-175v-134h175v-176h-175v-202h-225v202h-168v176h168v134h-168v176h168v196h225v-196h175v-176z" />
    <glyph glyph-name="bullet" unicode="&#x2022;" horiz-adv-x="368" 
d="M295 394.5q43 -42.5 43 -110.5q0 -69 -43 -112t-112 -43q-68 0 -110.5 43t-42.5 112q0 68 43 110.5t110 42.5q69 0 112 -42.5z" />
    <glyph glyph-name="ellipsis" unicode="&#x2026;" horiz-adv-x="745" 
d="M206.5 168.5q28.5 -28.5 28.5 -73.5q0 -46 -28.5 -74.5t-74.5 -28.5q-45 0 -73.5 28.5t-28.5 74.5q0 45 28.5 73.5t73.5 28.5q46 0 74.5 -28.5zM446.5 168.5q28.5 -28.5 28.5 -73.5q0 -46 -28.5 -74.5t-74.5 -28.5q-45 0 -73.5 28.5t-28.5 74.5q0 45 28.5 73.5t73.5 28.5
q46 0 74.5 -28.5zM686.5 168.5q28.5 -28.5 28.5 -73.5q0 -46 -28.5 -74.5t-74.5 -28.5q-45 0 -73.5 28.5t-28.5 74.5q0 45 28.5 73.5t73.5 28.5q46 0 74.5 -28.5z" />
    <glyph glyph-name="perthousand" unicode="&#x2030;" horiz-adv-x="1449" 
d="M365.5 647q55.5 -58 55.5 -156t-55.5 -157t-148.5 -59t-149 59t-56 157q0 97 56 155.5t149 58.5t148.5 -58zM170.5 561q-17.5 -26 -17.5 -70t17.5 -70.5t46.5 -26.5t46.5 26.5t17.5 70.5t-17.5 70t-46.5 26t-46.5 -26zM677 701h149l-487 -701h-149zM948.5 367
q55.5 -58 55.5 -156t-55.5 -157t-148.5 -59t-149 59t-56 157q0 97 56 155.5t149 58.5t148.5 -58zM753.5 281q-17.5 -26 -17.5 -70t17.5 -70.5t46.5 -26.5t46.5 26.5t17.5 70.5t-17.5 70t-46.5 26t-46.5 -26zM1381.5 367q55.5 -58 55.5 -156t-55.5 -157t-148.5 -59t-149 59
t-56 157q0 97 56 155.5t149 58.5t148.5 -58zM1186.5 281q-17.5 -26 -17.5 -70t17.5 -70.5t46.5 -26.5t46.5 26.5t17.5 70.5t-17.5 70t-46.5 26t-46.5 -26z" />
    <glyph glyph-name="minute" unicode="&#x2032;" horiz-adv-x="253" 
d="M57 701h154l-47 -246h-124z" />
    <glyph glyph-name="second" unicode="&#x2033;" horiz-adv-x="448" 
d="M57 701h154l-47 -246h-124zM252 701h154l-47 -246h-124z" />
    <glyph glyph-name="guilsinglleft" unicode="&#x2039;" horiz-adv-x="285" 
d="M107 466h180l-106 -193l106 -195h-180l-124 195z" />
    <glyph glyph-name="guilsinglright" unicode="&#x203a;" horiz-adv-x="285" 
d="M178 78h-180l106 193l-106 195h180l124 -195z" />
    <glyph glyph-name="fraction" unicode="&#x2044;" horiz-adv-x="150" 
d="M244 701h149l-487 -701h-149z" />
    <glyph glyph-name="uni2070" unicode="&#x2070;" horiz-adv-x="433" 
d="M365.5 727q55.5 -58 55.5 -156t-55.5 -157t-148.5 -59t-149 59t-56 157q0 97 56 155.5t149 58.5t148.5 -58zM170.5 641q-17.5 -26 -17.5 -70t17.5 -70.5t46.5 -26.5t46.5 26.5t17.5 70.5t-17.5 70t-46.5 26t-46.5 -26z" />
    <glyph glyph-name="uni2074" unicode="&#x2074;" horiz-adv-x="409" 
d="M130 781h149l-116 -237h49v76h145v-76h55v-107h-55v-77h-145v77h-208v98z" />
    <glyph glyph-name="uni2075" unicode="&#x2075;" horiz-adv-x="407" 
d="M339.5 598.5q48.5 -34.5 48.5 -92.5q0 -45 -24.5 -80t-68.5 -54.5t-101 -19.5q-50 0 -94 13t-88 43l52 90q31 -19 54.5 -28t50.5 -9q20 0 35 9.5t15 27.5q0 15 -10.5 23.5t-30.5 8.5h-85h-40v253h314v-115h-171v-35h14q81 0 129.5 -34.5z" />
    <glyph glyph-name="uni2076" unicode="&#x2076;" horiz-adv-x="410" 
d="M351.5 605.5q39.5 -38.5 39.5 -100.5q0 -68 -48 -109t-128 -41q-94 0 -148.5 58t-54.5 155q0 66 27 116t77 77.5t116 27.5q41 0 84 -10.5t71 -27.5l-59 -105q-34 28 -87 28q-79 0 -80 -54q35 24 87 24q64 0 103.5 -38.5zM237.5 482.5q8.5 7.5 8.5 23.5q0 30 -36 30
q-18 0 -27 -7.5t-9 -23.5q0 -17 8.5 -23.5t27.5 -6.5t27.5 7.5z" />
    <glyph glyph-name="uni2077" unicode="&#x2077;" horiz-adv-x="371" 
d="M4 781h371v-100l-149 -321h-165l141 306h-61v-58h-137v173z" />
    <glyph glyph-name="uni2078" unicode="&#x2078;" horiz-adv-x="413" 
d="M329.5 754.5q46.5 -32.5 46.5 -86.5q0 -22 -12 -45t-32 -38q31 -16 49.5 -44.5t18.5 -60.5q0 -58 -53 -92.5t-141 -34.5t-141 34t-53 90q0 33 21 62.5t55 45.5q-23 17 -37.5 41t-14.5 47q0 52 46 83t123 31q78 0 124.5 -32.5zM167 660q0 -27 39 -27t39 27q0 30 -39 30
t-39 -30zM160 493q0 -32 46 -32q47 0 47 32q0 33 -47 33q-46 0 -46 -33z" />
    <glyph glyph-name="uni2079" unicode="&#x2079;" horiz-adv-x="410" 
d="M343.5 731q54.5 -58 54.5 -155q0 -66 -27 -116t-77 -77.5t-116 -27.5q-41 0 -84 10.5t-71 27.5l59 105q34 -28 87 -28q79 0 80 54q-35 -24 -87 -24q-64 0 -103.5 38.5t-39.5 100.5q0 68 48 109t128 41q94 0 148.5 -58zM227 615.5q9 7.5 9 23.5q0 17 -8.5 23.5t-27.5 6.5
t-27.5 -7.5t-8.5 -23.5q0 -30 36 -30q18 0 27 7.5z" />
    <glyph glyph-name="uni2080" unicode="&#x2080;" horiz-adv-x="433" 
d="M365.5 262q55.5 -58 55.5 -156t-55.5 -157t-148.5 -59t-149 59t-56 157q0 97 56 155.5t149 58.5t148.5 -58zM170.5 176q-17.5 -26 -17.5 -70t17.5 -70.5t46.5 -26.5t46.5 26.5t17.5 70.5t-17.5 70t-46.5 26t-46.5 -26z" />
    <glyph glyph-name="uni2081" unicode="&#x2081;" horiz-adv-x="278" 
d="M-1 321h232v-421h-156v302h-76v119z" />
    <glyph glyph-name="uni2082" unicode="&#x2082;" horiz-adv-x="396" 
d="M203 190q0 16 -23 16q-24 0 -55 -14.5t-64 -39.5l-58 108q104 67 202 67q70 0 116 -32t46 -83q0 -35 -22.5 -69.5t-64.5 -73.5l-58 -54h149v-115h-349v93l152 149q29 31 29 48z" />
    <glyph glyph-name="uni2083" unicode="&#x2083;" horiz-adv-x="382" 
d="M340.5 106.5q25.5 -30.5 25.5 -75.5q0 -62 -49 -101.5t-130 -39.5q-51 0 -100.5 16t-81.5 42l62 114q49 -61 107 -61q39 0 39 30q0 31 -39 31h-82v78l78 68h-142v108h318v-84l-91 -79l19 -5q41 -11 66.5 -41.5z" />
    <glyph glyph-name="uni2084" unicode="&#x2084;" horiz-adv-x="409" 
d="M130 321h149l-116 -237h49v76h145v-76h55v-107h-55v-77h-145v77h-208v98z" />
    <glyph glyph-name="uni2085" unicode="&#x2085;" horiz-adv-x="407" 
d="M339.5 133.5q48.5 -34.5 48.5 -92.5q0 -45 -24.5 -80t-68.5 -54.5t-101 -19.5q-50 0 -94 13t-88 43l52 90q31 -19 54.5 -28t50.5 -9q20 0 35 9.5t15 27.5q0 15 -10.5 23.5t-30.5 8.5h-85h-40v253h314v-115h-171v-35h14q81 0 129.5 -34.5z" />
    <glyph glyph-name="uni2086" unicode="&#x2086;" horiz-adv-x="410" 
d="M351.5 140.5q39.5 -38.5 39.5 -100.5q0 -68 -48 -109t-128 -41q-94 0 -148.5 58t-54.5 155q0 66 27 116t77 77.5t116 27.5q41 0 84 -10.5t71 -27.5l-59 -105q-34 28 -87 28q-79 0 -80 -54q35 24 87 24q64 0 103.5 -38.5zM237.5 17.5q8.5 7.5 8.5 23.5q0 30 -36 30
q-18 0 -27 -7.5t-9 -23.5q0 -17 8.5 -23.5t27.5 -6.5t27.5 7.5z" />
    <glyph glyph-name="uni2087" unicode="&#x2087;" horiz-adv-x="371" 
d="M4 321h371v-100l-149 -321h-165l141 306h-61v-58h-137v173z" />
    <glyph glyph-name="uni2088" unicode="&#x2088;" horiz-adv-x="413" 
d="M329.5 291.5q46.5 -32.5 46.5 -86.5q0 -22 -12 -45t-32 -38q31 -16 49.5 -44.5t18.5 -60.5q0 -58 -53 -92.5t-141 -34.5t-141 34t-53 90q0 33 21 62.5t55 45.5q-23 17 -37.5 41t-14.5 47q0 52 46 83t123 31q78 0 124.5 -32.5zM167 197q0 -27 39 -27t39 27q0 30 -39 30
t-39 -30zM160 30q0 -32 46 -32q47 0 47 32q0 33 -47 33q-46 0 -46 -33z" />
    <glyph glyph-name="uni2089" unicode="&#x2089;" horiz-adv-x="410" 
d="M343.5 266q54.5 -58 54.5 -155q0 -66 -27 -116t-77 -77.5t-116 -27.5q-41 0 -84 10.5t-71 27.5l59 105q34 -28 87 -28q79 0 80 54q-35 -24 -87 -24q-64 0 -103.5 38.5t-39.5 100.5q0 68 48 109t128 41q94 0 148.5 -58zM227 150.5q9 7.5 9 23.5q0 17 -8.5 23.5t-27.5 6.5
t-27.5 -7.5t-8.5 -23.5q0 -30 36 -30q18 0 27 7.5z" />
    <glyph glyph-name="colonmonetary" unicode="&#x20a1;" horiz-adv-x="688" 
d="M479.5 209.5q43.5 22.5 77.5 59.5l134 -143q-67 -73 -164 -113l-42 -178h-136l35 149q-30 0 -63 5l-36 -154h-136l46 197q-84 47 -132 131.5t-48 189.5q0 112 57 199t154 130l43 182h136l-35 -149q8 1 25 1q13 0 39 -2l35 150h136l-44 -186q76 -33 130 -92l-134 -159
q-31 43 -74.5 69.5t-84.5 26.5t-74.5 -21.5t-52 -59.5t-18.5 -86t18.5 -86.5t52 -60.5t74.5 -22q38 0 81.5 22.5z" />
    <glyph glyph-name="franc" unicode="&#x20a3;" horiz-adv-x="676" 
d="M659 525h-332v-121h311v-166h-311v-84h199v-70h-199v-84h-232v84h-70v70h70v547h564v-176z" />
    <glyph glyph-name="lira" unicode="&#x20a4;" horiz-adv-x="576" 
d="M323 173h238v-173h-541v173h70v59h-70v70h70v45h-70v70h70v47q0 118 68.5 182.5t192.5 64.5q64 0 123 -21.5t102 -60.5l-84 -170q-65 59 -116 59q-53 0 -53 -59v-42h159v-70h-159v-45h159v-70h-159v-59z" />
    <glyph glyph-name="uni20A6" unicode="&#x20a6;" horiz-adv-x="821" 
d="M791 376h-70v-45h70v-70h-70v-261h-184l-236 347v-347h-201v261h-70v70h70v45h-70v70h70v255h184l237 -349v349h200v-255h70v-70z" />
    <glyph glyph-name="peseta" unicode="&#x20a7;" horiz-adv-x="1582" 
d="M534 633.5q72 -67.5 72 -190.5q0 -124 -72 -192.5t-203 -68.5h-79v-182h-202v701h281q131 0 203 -67.5zM1029 178l38 -154q-25 -16 -65.5 -25t-82.5 -9q-84 0 -134 50.5t-50 135.5v205h-75v136h75v153h194v-153h128v-136h-128v-167q0 -24 12.5 -37t34.5 -13q23 0 53 14z
M1322 365q19 -11 63 -28q52 -19 86.5 -37t60 -52t25.5 -86q0 -78 -59 -125t-159 -47q-131 0 -237 60l56 123q53 -25 95.5 -36.5t81.5 -11.5q41 0 41 29q0 16 -18.5 27t-58.5 26q-51 19 -85.5 37.5t-60 53.5t-25.5 89q0 78 57.5 124t153.5 46q64 0 116 -13t108 -41l-62 -127
q-53 26 -87 37t-65 11q-21 0 -33.5 -8t-12.5 -23q0 -17 19 -28zM387.5 358q28.5 30 28.5 85q0 53 -28.5 82.5t-80.5 29.5h-55v-227h55q52 0 80.5 30z" />
    <glyph glyph-name="uni20A9" unicode="&#x20a9;" horiz-adv-x="1071" 
d="M1079 701l-79 -255h66v-70h-88l-14 -45h92v-70h-113l-81 -261h-238l-85 401l-88 -401h-238l-80 261h-118v70h96l-13 45h-93v70h71l-78 255h243l97 -445l93 445h226l94 -445l96 445h232z" />
    <glyph glyph-name="dong" unicode="&#x20ab;" horiz-adv-x="693" 
d="M693 590h-63v-590h-225v55q-54 -63 -139 -63q-75 0 -132 35t-88 99.5t-31 150.5q0 84 30 147t85.5 97t129.5 34q44 0 81 -16.5t64 -47.5v99h-107v80h107v72h225v-72h63v-80zM383 194q22 29 22 77t-22 77t-59 29t-59.5 -29t-22.5 -77t22.5 -77t59.5 -29t59 29zM110 -130
v80h460v-80h-460z" />
    <glyph glyph-name="Euro" unicode="&#x20ac;" horiz-adv-x="763" 
d="M554.5 214.5q43.5 21.5 77.5 58.5l134 -143q-59 -64 -141.5 -102t-163.5 -38q-90 0 -165 34t-126 95.5t-70 141.5h-80v70h71q-1 7 -1 21q0 16 1 24h-71v70h82q20 78 72 137t128.5 92t167.5 33q80 0 161 -35t135 -93l-134 -159q-31 43 -74.5 68.5t-84.5 25.5
q-39 0 -70.5 -18t-51.5 -51h190v-70h-212q-1 -7 -1 -21q0 -16 1 -24h212v-70h-188q19 -32 50.5 -50t69.5 -18t81.5 21.5z" />
    <glyph glyph-name="uni20AD" unicode="&#x20ad;" horiz-adv-x="789" 
d="M789 0h-272l-214 303v-303h-232v332h-70v70h70v299h232v-275l209 275h262l-235 -299h164v-70h-157z" />
    </font>
</defs>
</svg>
